<?xml version="1.0" encoding="utf-8" standalone="no"?>
<!DOCTYPE svg PUBLIC "-//W3C//DTD SVG 1.1//EN"
  "http://www.w3.org/Graphics/SVG/1.1/DTD/svg11.dtd">
<svg xmlns:xlink="http://www.w3.org/1999/xlink" width="1609.11375pt" height="395.85625pt" viewBox="0 0 1609.11375 395.85625" xmlns="http://www.w3.org/2000/svg" version="1.1">
 <metadata>
  <rdf:RDF xmlns:dc="http://purl.org/dc/elements/1.1/" xmlns:cc="http://creativecommons.org/ns#" xmlns:rdf="http://www.w3.org/1999/02/22-rdf-syntax-ns#">
   <cc:Work>
    <dc:type rdf:resource="http://purl.org/dc/dcmitype/StillImage"/>
    <dc:date>2026-08-03T11:44:28.762166</dc:date>
    <dc:format>image/svg+xml</dc:format>
    <dc:creator>
     <cc:Agent>
      <dc:title>Matplotlib v3.9.2, https://matplotlib.org/</dc:title>
     </cc:Agent>
    </dc:creator>
   </cc:Work>
  </rdf:RDF>
 </metadata>
 <defs>
  <style type="text/css">*{stroke-linejoin: round; stroke-linecap: butt}</style>
 </defs>
 <g id="figure_1">
  <g id="patch_1">
   <path d="M 0 395.85625 
L 1609.11375 395.85625 
L 1609.11375 0 
L 0 0 
z
" style="fill: #ffffff"/>
  </g>
  <g id="axes_1">
   <g id="patch_2">
    <path d="M 609.256875 284.4 
L 999.856875 284.4 
L 999.856875 7.2 
L 609.256875 7.2 
z
" style="fill: #ffffff"/>
   </g>
   <g id="matplotlib.axis_1">
    <g id="xtick_1">
     <g id="text_1">
      <!-- 0.0 -->
      <g style="fill: #262626" transform="translate(607.55142 307.941875) scale(0.28 -0.28)">
       <defs>
        <path id="ArialMT-30" d="M 266 2259 
Q 266 3072 433 3567 
Q 600 4063 929 4331 
Q 1259 4600 1759 4600 
Q 2128 4600 2406 4451 
Q 2684 4303 2865 4023 
Q 3047 3744 3150 3342 
Q 3253 2941 3253 2259 
Q 3253 1453 3087 958 
Q 2922 463 2592 192 
Q 2263 -78 1759 -78 
Q 1097 -78 719 397 
Q 266 969 266 2259 
z
M 844 2259 
Q 844 1131 1108 757 
Q 1372 384 1759 384 
Q 2147 384 2411 759 
Q 2675 1134 2675 2259 
Q 2675 3391 2411 3762 
Q 2147 4134 1753 4134 
Q 1366 4134 1134 3806 
Q 844 3388 844 2259 
z
" transform="scale(0.015625)"/>
        <path id="ArialMT-2e" d="M 581 0 
L 581 641 
L 1222 641 
L 1222 0 
L 581 0 
z
" transform="scale(0.015625)"/>
       </defs>
       <use xlink:href="#ArialMT-30"/>
       <use xlink:href="#ArialMT-2e" x="55.615234"/>
       <use xlink:href="#ArialMT-30" x="83.398438"/>
      </g>
     </g>
    </g>
    <g id="xtick_2">
     <g id="text_2">
      <!-- 0.5 -->
      <g style="fill: #262626" transform="translate(785.096875 307.941875) scale(0.28 -0.28)">
       <defs>
        <path id="ArialMT-35" d="M 266 1200 
L 856 1250 
Q 922 819 1161 601 
Q 1400 384 1738 384 
Q 2144 384 2425 690 
Q 2706 997 2706 1503 
Q 2706 1984 2436 2262 
Q 2166 2541 1728 2541 
Q 1456 2541 1237 2417 
Q 1019 2294 894 2097 
L 366 2166 
L 809 4519 
L 3088 4519 
L 3088 3981 
L 1259 3981 
L 1013 2750 
Q 1425 3038 1878 3038 
Q 2478 3038 2890 2622 
Q 3303 2206 3303 1553 
Q 3303 931 2941 478 
Q 2500 -78 1738 -78 
Q 1113 -78 717 272 
Q 322 622 266 1200 
z
" transform="scale(0.015625)"/>
       </defs>
       <use xlink:href="#ArialMT-30"/>
       <use xlink:href="#ArialMT-2e" x="55.615234"/>
       <use xlink:href="#ArialMT-35" x="83.398438"/>
      </g>
     </g>
    </g>
    <g id="xtick_3">
     <g id="text_3">
      <!-- 1.0 -->
      <g style="fill: #262626" transform="translate(962.64233 307.941875) scale(0.28 -0.28)">
       <defs>
        <path id="ArialMT-31" d="M 2384 0 
L 1822 0 
L 1822 3584 
Q 1619 3391 1289 3197 
Q 959 3003 697 2906 
L 697 3450 
Q 1169 3672 1522 3987 
Q 1875 4303 2022 4600 
L 2384 4600 
L 2384 0 
z
" transform="scale(0.015625)"/>
       </defs>
       <use xlink:href="#ArialMT-31"/>
       <use xlink:href="#ArialMT-2e" x="55.615234"/>
       <use xlink:href="#ArialMT-30" x="83.398438"/>
      </g>
     </g>
    </g>
    <g id="text_4">
     <!-- Recall -->
     <g style="fill: #262626" transform="translate(765.654375 337.54875) scale(0.28 -0.28)">
      <defs>
       <path id="ArialMT-52" d="M 503 0 
L 503 4581 
L 2534 4581 
Q 3147 4581 3465 4457 
Q 3784 4334 3975 4021 
Q 4166 3709 4166 3331 
Q 4166 2844 3850 2509 
Q 3534 2175 2875 2084 
Q 3116 1969 3241 1856 
Q 3506 1613 3744 1247 
L 4541 0 
L 3778 0 
L 3172 953 
Q 2906 1366 2734 1584 
Q 2563 1803 2427 1890 
Q 2291 1978 2150 2013 
Q 2047 2034 1813 2034 
L 1109 2034 
L 1109 0 
L 503 0 
z
M 1109 2559 
L 2413 2559 
Q 2828 2559 3062 2645 
Q 3297 2731 3419 2920 
Q 3541 3109 3541 3331 
Q 3541 3656 3305 3865 
Q 3069 4075 2559 4075 
L 1109 4075 
L 1109 2559 
z
" transform="scale(0.015625)"/>
       <path id="ArialMT-65" d="M 2694 1069 
L 3275 997 
Q 3138 488 2766 206 
Q 2394 -75 1816 -75 
Q 1088 -75 661 373 
Q 234 822 234 1631 
Q 234 2469 665 2931 
Q 1097 3394 1784 3394 
Q 2450 3394 2872 2941 
Q 3294 2488 3294 1666 
Q 3294 1616 3291 1516 
L 816 1516 
Q 847 969 1125 678 
Q 1403 388 1819 388 
Q 2128 388 2347 550 
Q 2566 713 2694 1069 
z
M 847 1978 
L 2700 1978 
Q 2663 2397 2488 2606 
Q 2219 2931 1791 2931 
Q 1403 2931 1139 2672 
Q 875 2413 847 1978 
z
" transform="scale(0.015625)"/>
       <path id="ArialMT-63" d="M 2588 1216 
L 3141 1144 
Q 3050 572 2676 248 
Q 2303 -75 1759 -75 
Q 1078 -75 664 370 
Q 250 816 250 1647 
Q 250 2184 428 2587 
Q 606 2991 970 3192 
Q 1334 3394 1763 3394 
Q 2303 3394 2647 3120 
Q 2991 2847 3088 2344 
L 2541 2259 
Q 2463 2594 2264 2762 
Q 2066 2931 1784 2931 
Q 1359 2931 1093 2626 
Q 828 2322 828 1663 
Q 828 994 1084 691 
Q 1341 388 1753 388 
Q 2084 388 2306 591 
Q 2528 794 2588 1216 
z
" transform="scale(0.015625)"/>
       <path id="ArialMT-61" d="M 2588 409 
Q 2275 144 1986 34 
Q 1697 -75 1366 -75 
Q 819 -75 525 192 
Q 231 459 231 875 
Q 231 1119 342 1320 
Q 453 1522 633 1644 
Q 813 1766 1038 1828 
Q 1203 1872 1538 1913 
Q 2219 1994 2541 2106 
Q 2544 2222 2544 2253 
Q 2544 2597 2384 2738 
Q 2169 2928 1744 2928 
Q 1347 2928 1158 2789 
Q 969 2650 878 2297 
L 328 2372 
Q 403 2725 575 2942 
Q 747 3159 1072 3276 
Q 1397 3394 1825 3394 
Q 2250 3394 2515 3294 
Q 2781 3194 2906 3042 
Q 3031 2891 3081 2659 
Q 3109 2516 3109 2141 
L 3109 1391 
Q 3109 606 3145 398 
Q 3181 191 3288 0 
L 2700 0 
Q 2613 175 2588 409 
z
M 2541 1666 
Q 2234 1541 1622 1453 
Q 1275 1403 1131 1340 
Q 988 1278 909 1158 
Q 831 1038 831 891 
Q 831 666 1001 516 
Q 1172 366 1500 366 
Q 1825 366 2078 508 
Q 2331 650 2450 897 
Q 2541 1088 2541 1459 
L 2541 1666 
z
" transform="scale(0.015625)"/>
       <path id="ArialMT-6c" d="M 409 0 
L 409 4581 
L 972 4581 
L 972 0 
L 409 0 
z
" transform="scale(0.015625)"/>
      </defs>
      <use xlink:href="#ArialMT-52"/>
      <use xlink:href="#ArialMT-65" x="72.216797"/>
      <use xlink:href="#ArialMT-63" x="127.832031"/>
      <use xlink:href="#ArialMT-61" x="177.832031"/>
      <use xlink:href="#ArialMT-6c" x="233.447266"/>
      <use xlink:href="#ArialMT-6c" x="255.664062"/>
     </g>
    </g>
   </g>
   <g id="matplotlib.axis_2">
    <g id="ytick_1">
     <g id="text_5">
      <!-- 0.0 -->
      <g style="fill: #262626" transform="translate(566.836875 281.820938) scale(0.28 -0.28)">
       <use xlink:href="#ArialMT-30"/>
       <use xlink:href="#ArialMT-2e" x="55.615234"/>
       <use xlink:href="#ArialMT-30" x="83.398438"/>
      </g>
     </g>
    </g>
    <g id="ytick_2">
     <g id="text_6">
      <!-- 0.5 -->
      <g style="fill: #262626" transform="translate(566.836875 155.820938) scale(0.28 -0.28)">
       <use xlink:href="#ArialMT-30"/>
       <use xlink:href="#ArialMT-2e" x="55.615234"/>
       <use xlink:href="#ArialMT-35" x="83.398438"/>
      </g>
     </g>
    </g>
    <g id="ytick_3">
     <g id="text_7">
      <!-- 1.0 -->
      <g style="fill: #262626" transform="translate(566.836875 29.820938) scale(0.28 -0.28)">
       <use xlink:href="#ArialMT-31"/>
       <use xlink:href="#ArialMT-2e" x="55.615234"/>
       <use xlink:href="#ArialMT-30" x="83.398438"/>
      </g>
     </g>
    </g>
    <g id="text_8">
     <!-- False Discovery Rate -->
     <g style="fill: #262626" transform="translate(556.94375 278.835) rotate(-90) scale(0.28 -0.28)">
      <defs>
       <path id="ArialMT-46" d="M 525 0 
L 525 4581 
L 3616 4581 
L 3616 4041 
L 1131 4041 
L 1131 2622 
L 3281 2622 
L 3281 2081 
L 1131 2081 
L 1131 0 
L 525 0 
z
" transform="scale(0.015625)"/>
       <path id="ArialMT-73" d="M 197 991 
L 753 1078 
Q 800 744 1014 566 
Q 1228 388 1613 388 
Q 2000 388 2187 545 
Q 2375 703 2375 916 
Q 2375 1106 2209 1216 
Q 2094 1291 1634 1406 
Q 1016 1563 777 1677 
Q 538 1791 414 1992 
Q 291 2194 291 2438 
Q 291 2659 392 2848 
Q 494 3038 669 3163 
Q 800 3259 1026 3326 
Q 1253 3394 1513 3394 
Q 1903 3394 2198 3281 
Q 2494 3169 2634 2976 
Q 2775 2784 2828 2463 
L 2278 2388 
Q 2241 2644 2061 2787 
Q 1881 2931 1553 2931 
Q 1166 2931 1000 2803 
Q 834 2675 834 2503 
Q 834 2394 903 2306 
Q 972 2216 1119 2156 
Q 1203 2125 1616 2013 
Q 2213 1853 2448 1751 
Q 2684 1650 2818 1456 
Q 2953 1263 2953 975 
Q 2953 694 2789 445 
Q 2625 197 2315 61 
Q 2006 -75 1616 -75 
Q 969 -75 630 194 
Q 291 463 197 991 
z
" transform="scale(0.015625)"/>
       <path id="ArialMT-20" transform="scale(0.015625)"/>
       <path id="ArialMT-44" d="M 494 0 
L 494 4581 
L 2072 4581 
Q 2606 4581 2888 4516 
Q 3281 4425 3559 4188 
Q 3922 3881 4101 3404 
Q 4281 2928 4281 2316 
Q 4281 1794 4159 1391 
Q 4038 988 3847 723 
Q 3656 459 3429 307 
Q 3203 156 2883 78 
Q 2563 0 2147 0 
L 494 0 
z
M 1100 541 
L 2078 541 
Q 2531 541 2789 625 
Q 3047 709 3200 863 
Q 3416 1078 3536 1442 
Q 3656 1806 3656 2325 
Q 3656 3044 3420 3430 
Q 3184 3816 2847 3947 
Q 2603 4041 2063 4041 
L 1100 4041 
L 1100 541 
z
" transform="scale(0.015625)"/>
       <path id="ArialMT-69" d="M 425 3934 
L 425 4581 
L 988 4581 
L 988 3934 
L 425 3934 
z
M 425 0 
L 425 3319 
L 988 3319 
L 988 0 
L 425 0 
z
" transform="scale(0.015625)"/>
       <path id="ArialMT-6f" d="M 213 1659 
Q 213 2581 725 3025 
Q 1153 3394 1769 3394 
Q 2453 3394 2887 2945 
Q 3322 2497 3322 1706 
Q 3322 1066 3130 698 
Q 2938 331 2570 128 
Q 2203 -75 1769 -75 
Q 1072 -75 642 372 
Q 213 819 213 1659 
z
M 791 1659 
Q 791 1022 1069 705 
Q 1347 388 1769 388 
Q 2188 388 2466 706 
Q 2744 1025 2744 1678 
Q 2744 2294 2464 2611 
Q 2184 2928 1769 2928 
Q 1347 2928 1069 2612 
Q 791 2297 791 1659 
z
" transform="scale(0.015625)"/>
       <path id="ArialMT-76" d="M 1344 0 
L 81 3319 
L 675 3319 
L 1388 1331 
Q 1503 1009 1600 663 
Q 1675 925 1809 1294 
L 2547 3319 
L 3125 3319 
L 1869 0 
L 1344 0 
z
" transform="scale(0.015625)"/>
       <path id="ArialMT-72" d="M 416 0 
L 416 3319 
L 922 3319 
L 922 2816 
Q 1116 3169 1280 3281 
Q 1444 3394 1641 3394 
Q 1925 3394 2219 3213 
L 2025 2691 
Q 1819 2813 1613 2813 
Q 1428 2813 1281 2702 
Q 1134 2591 1072 2394 
Q 978 2094 978 1738 
L 978 0 
L 416 0 
z
" transform="scale(0.015625)"/>
       <path id="ArialMT-79" d="M 397 -1278 
L 334 -750 
Q 519 -800 656 -800 
Q 844 -800 956 -737 
Q 1069 -675 1141 -563 
Q 1194 -478 1313 -144 
Q 1328 -97 1363 -6 
L 103 3319 
L 709 3319 
L 1400 1397 
Q 1534 1031 1641 628 
Q 1738 1016 1872 1384 
L 2581 3319 
L 3144 3319 
L 1881 -56 
Q 1678 -603 1566 -809 
Q 1416 -1088 1222 -1217 
Q 1028 -1347 759 -1347 
Q 597 -1347 397 -1278 
z
" transform="scale(0.015625)"/>
       <path id="ArialMT-74" d="M 1650 503 
L 1731 6 
Q 1494 -44 1306 -44 
Q 1000 -44 831 53 
Q 663 150 594 308 
Q 525 466 525 972 
L 525 2881 
L 113 2881 
L 113 3319 
L 525 3319 
L 525 4141 
L 1084 4478 
L 1084 3319 
L 1650 3319 
L 1650 2881 
L 1084 2881 
L 1084 941 
Q 1084 700 1114 631 
Q 1144 563 1211 522 
Q 1278 481 1403 481 
Q 1497 481 1650 503 
z
" transform="scale(0.015625)"/>
      </defs>
      <use xlink:href="#ArialMT-46"/>
      <use xlink:href="#ArialMT-61" x="61.083984"/>
      <use xlink:href="#ArialMT-6c" x="116.699219"/>
      <use xlink:href="#ArialMT-73" x="138.916016"/>
      <use xlink:href="#ArialMT-65" x="188.916016"/>
      <use xlink:href="#ArialMT-20" x="244.53125"/>
      <use xlink:href="#ArialMT-44" x="272.314453"/>
      <use xlink:href="#ArialMT-69" x="344.53125"/>
      <use xlink:href="#ArialMT-73" x="366.748047"/>
      <use xlink:href="#ArialMT-63" x="416.748047"/>
      <use xlink:href="#ArialMT-6f" x="466.748047"/>
      <use xlink:href="#ArialMT-76" x="522.363281"/>
      <use xlink:href="#ArialMT-65" x="572.363281"/>
      <use xlink:href="#ArialMT-72" x="627.978516"/>
      <use xlink:href="#ArialMT-79" x="661.279297"/>
      <use xlink:href="#ArialMT-20" x="711.279297"/>
      <use xlink:href="#ArialMT-52" x="739.0625"/>
      <use xlink:href="#ArialMT-61" x="811.279297"/>
      <use xlink:href="#ArialMT-74" x="866.894531"/>
      <use xlink:href="#ArialMT-65" x="894.677734"/>
     </g>
    </g>
   </g>
   <g id="PolyCollection_1">
    <defs>
     <path id="m57aeef19cb" d="M 627.01142 -124.056502 
L 627.01142 -124.056502 
L 630.598197 -124.056642 
L 634.184974 -124.063627 
L 637.771751 -124.108937 
L 641.358528 -124.165321 
L 644.945305 -124.232235 
L 648.532082 -124.348714 
L 652.118858 -124.567657 
L 655.705635 -124.907943 
L 659.292412 -125.352651 
L 662.879189 -125.86472 
L 666.465966 -126.565122 
L 670.052743 -127.328611 
L 673.63952 -128.344565 
L 677.226296 -129.397621 
L 680.813073 -130.371015 
L 684.39985 -131.130623 
L 687.986627 -131.799161 
L 691.573404 -132.583856 
L 695.160181 -133.45527 
L 698.746958 -134.130254 
L 702.333735 -134.790046 
L 705.920511 -135.37404 
L 709.507288 -135.841435 
L 713.094065 -136.057337 
L 716.680842 -136.393988 
L 720.267619 -136.739615 
L 723.854396 -137.147149 
L 727.441173 -137.592688 
L 731.027949 -137.726484 
L 734.614726 -138.02918 
L 738.201503 -138.516631 
L 741.78828 -138.880364 
L 745.375057 -139.224602 
L 748.961834 -139.65254 
L 752.548611 -140.209297 
L 756.135387 -140.644661 
L 759.722164 -141.573123 
L 763.308941 -142.064219 
L 766.895718 -142.558698 
L 770.482495 -143.063183 
L 774.069272 -144.218046 
L 777.656049 -144.943126 
L 781.242825 -146.141729 
L 784.829602 -146.779268 
L 788.416379 -147.721119 
L 792.003156 -148.548393 
L 795.589933 -149.547294 
L 799.17671 -150.767507 
L 802.763487 -152.481706 
L 806.350263 -154.402988 
L 809.93704 -155.427961 
L 813.523817 -157.648611 
L 817.110594 -160.070526 
L 820.697371 -162.066444 
L 824.284148 -164.209173 
L 827.870925 -166.859278 
L 831.457701 -169.61307 
L 835.044478 -172.612162 
L 838.631255 -176.570887 
L 842.218032 -180.022779 
L 845.804809 -183.7175 
L 849.391586 -188.179067 
L 852.978363 -193.718718 
L 856.565139 -198.351 
L 860.151916 -204.211695 
L 863.738693 -210.058635 
L 867.32547 -214.716246 
L 870.912247 -221.379329 
L 874.499024 -227.505533 
L 878.085801 -233.079323 
L 881.672577 -240.856368 
L 885.259354 -248.291153 
L 888.846131 -255.662192 
L 892.432908 -262.551118 
L 896.019685 -270.562904 
L 899.606462 -277.076538 
L 903.193239 -282.830045 
L 906.780015 -288.943111 
L 910.366792 -294.652406 
L 913.953569 -300.377055 
L 917.540346 -305.509515 
L 921.127123 -311.461548 
L 924.7139 -316.331401 
L 928.300677 -321.289451 
L 931.887454 -325.985305 
L 935.47423 -330.04745 
L 939.061007 -334.371382 
L 942.647784 -338.008979 
L 946.234561 -342.088503 
L 949.821338 -345.816379 
L 953.408115 -349.467874 
L 956.994892 -353.027931 
L 960.581668 -356.315355 
L 964.168445 -359.153435 
L 967.755222 -361.566763 
L 971.341999 -364.229848 
L 974.928776 -366.650913 
L 978.515553 -369.252435 
L 982.10233 -372.744196 
L 982.10233 -372.744196 
L 982.10233 -372.744196 
L 978.515553 -370.695593 
L 974.928776 -369.156565 
L 971.341999 -367.479673 
L 967.755222 -365.570685 
L 964.168445 -363.544549 
L 960.581668 -361.372581 
L 956.994892 -358.752369 
L 953.408115 -355.80804 
L 949.821338 -352.702173 
L 946.234561 -349.706507 
L 942.647784 -346.555661 
L 939.061007 -342.622447 
L 935.47423 -339.017058 
L 931.887454 -335.589796 
L 928.300677 -331.16895 
L 924.7139 -327.783512 
L 921.127123 -323.750723 
L 917.540346 -319.572575 
L 913.953569 -315.652042 
L 910.366792 -311.660471 
L 906.780015 -307.374873 
L 903.193239 -303.360475 
L 899.606462 -299.22492 
L 896.019685 -294.964678 
L 892.432908 -291.182442 
L 888.846131 -286.102714 
L 885.259354 -280.918033 
L 881.672577 -276.088553 
L 878.085801 -271.419632 
L 874.499024 -266.710056 
L 870.912247 -262.027459 
L 867.32547 -257.216581 
L 863.738693 -251.332091 
L 860.151916 -246.175937 
L 856.565139 -241.590801 
L 852.978363 -236.517277 
L 849.391586 -231.636947 
L 845.804809 -226.372161 
L 842.218032 -222.458036 
L 838.631255 -217.784097 
L 835.044478 -211.361593 
L 831.457701 -206.109848 
L 827.870925 -201.960697 
L 824.284148 -198.342213 
L 820.697371 -193.664946 
L 817.110594 -188.902577 
L 813.523817 -185.264807 
L 809.93704 -181.835747 
L 806.350263 -179.323853 
L 802.763487 -177.06161 
L 799.17671 -174.64621 
L 795.589933 -172.788184 
L 792.003156 -170.998445 
L 788.416379 -169.832246 
L 784.829602 -168.748017 
L 781.242825 -167.412583 
L 777.656049 -165.992996 
L 774.069272 -164.457484 
L 770.482495 -163.102501 
L 766.895718 -161.805185 
L 763.308941 -160.768458 
L 759.722164 -159.49528 
L 756.135387 -157.650321 
L 752.548611 -156.330194 
L 748.961834 -155.398984 
L 745.375057 -154.460757 
L 741.78828 -153.489079 
L 738.201503 -152.555496 
L 734.614726 -151.833452 
L 731.027949 -150.917387 
L 727.441173 -150.101452 
L 723.854396 -149.267117 
L 720.267619 -148.253498 
L 716.680842 -147.494181 
L 713.094065 -146.556243 
L 709.507288 -145.846493 
L 705.920511 -145.349655 
L 702.333735 -144.862152 
L 698.746958 -144.546227 
L 695.160181 -144.128578 
L 691.573404 -143.932251 
L 687.986627 -143.943578 
L 684.39985 -143.874091 
L 680.813073 -144.336052 
L 677.226296 -145.530809 
L 673.63952 -147.114098 
L 670.052743 -149.66887 
L 666.465966 -151.390642 
L 662.879189 -153.270387 
L 659.292412 -155.120773 
L 655.705635 -158.184404 
L 652.118858 -161.332574 
L 648.532082 -163.596656 
L 644.945305 -164.070727 
L 641.358528 -162.441742 
L 637.771751 -155.337145 
L 634.184974 -153.070531 
L 630.598197 -129.691792 
L 627.01142 -124.056502 
z
" style="stroke: #66c2a5; stroke-opacity: 0.3"/>
    </defs>
    <g clip-path="url(#p72aab18b81)">
     <use xlink:href="#m57aeef19cb" x="0" y="395.85625" style="fill: #66c2a5; fill-opacity: 0.3; stroke: #66c2a5; stroke-opacity: 0.3"/>
    </g>
   </g>
   <g id="PolyCollection_2"/>
   <g id="PolyCollection_3">
    <defs>
     <path id="m4f5f01fc55" d="M 627.01142 -124.056502 
L 627.01142 -124.056502 
L 630.598197 -127.534199 
L 634.184974 -127.305412 
L 637.771751 -130.65038 
L 641.358528 -134.07016 
L 644.945305 -135.727092 
L 648.532082 -141.473687 
L 652.118858 -143.721555 
L 655.705635 -147.521341 
L 659.292412 -153.021644 
L 662.879189 -158.993204 
L 666.465966 -165.451605 
L 670.052743 -172.254968 
L 673.63952 -182.291742 
L 677.226296 -190.161058 
L 680.813073 -198.528127 
L 684.39985 -208.16689 
L 687.986627 -223.382653 
L 691.573404 -230.701177 
L 695.160181 -238.14898 
L 698.746958 -244.288747 
L 702.333735 -251.057037 
L 705.920511 -257.22712 
L 709.507288 -263.634573 
L 713.094065 -270.832034 
L 716.680842 -277.739211 
L 720.267619 -283.345499 
L 723.854396 -288.091363 
L 727.441173 -292.311429 
L 731.027949 -297.303837 
L 734.614726 -302.342979 
L 738.201503 -305.906376 
L 741.78828 -309.399195 
L 745.375057 -312.971854 
L 748.961834 -316.455232 
L 752.548611 -318.899431 
L 756.135387 -321.704253 
L 759.722164 -324.420903 
L 763.308941 -327.049546 
L 766.895718 -329.27929 
L 770.482495 -330.832412 
L 774.069272 -332.405346 
L 777.656049 -334.157707 
L 781.242825 -336.294036 
L 784.829602 -338.043511 
L 788.416379 -339.367101 
L 792.003156 -340.990082 
L 795.589933 -342.415137 
L 799.17671 -343.70441 
L 802.763487 -345.089516 
L 806.350263 -346.538768 
L 809.93704 -347.726745 
L 813.523817 -349.01871 
L 817.110594 -349.979084 
L 820.697371 -351.005257 
L 824.284148 -351.997111 
L 827.870925 -352.893521 
L 831.457701 -353.679783 
L 835.044478 -354.475379 
L 838.631255 -355.280746 
L 842.218032 -356.013406 
L 845.804809 -356.626957 
L 849.391586 -357.462572 
L 852.978363 -358.06028 
L 856.565139 -358.769949 
L 860.151916 -359.414824 
L 863.738693 -360.043479 
L 867.32547 -360.608514 
L 870.912247 -361.159042 
L 874.499024 -361.738207 
L 878.085801 -362.298281 
L 881.672577 -362.836692 
L 885.259354 -363.336607 
L 888.846131 -363.878492 
L 892.432908 -364.350892 
L 896.019685 -364.803731 
L 899.606462 -365.28916 
L 903.193239 -365.675267 
L 906.780015 -366.08615 
L 910.366792 -366.472456 
L 913.953569 -366.875134 
L 917.540346 -367.235972 
L 921.127123 -367.591473 
L 924.7139 -367.952797 
L 928.300677 -368.2765 
L 931.887454 -368.614428 
L 935.47423 -368.938043 
L 939.061007 -369.246162 
L 942.647784 -369.512314 
L 946.234561 -369.8237 
L 949.821338 -370.101176 
L 953.408115 -370.383398 
L 956.994892 -370.659158 
L 960.581668 -370.943264 
L 964.168445 -371.230225 
L 967.755222 -371.498215 
L 971.341999 -371.749609 
L 974.928776 -372.026893 
L 978.515553 -372.297406 
L 982.10233 -372.744196 
L 982.10233 -372.744196 
L 982.10233 -372.744196 
L 978.515553 -372.55882 
L 974.928776 -372.344306 
L 971.341999 -372.125795 
L 967.755222 -371.971235 
L 964.168445 -371.851193 
L 960.581668 -371.736209 
L 956.994892 -371.608296 
L 953.408115 -371.502199 
L 949.821338 -371.387718 
L 946.234561 -371.25526 
L 942.647784 -371.127121 
L 939.061007 -370.957873 
L 935.47423 -370.811099 
L 931.887454 -370.656603 
L 928.300677 -370.501045 
L 924.7139 -370.360135 
L 921.127123 -370.219166 
L 917.540346 -370.072462 
L 913.953569 -369.910508 
L 910.366792 -369.749789 
L 906.780015 -369.588364 
L 903.193239 -369.419833 
L 899.606462 -369.239229 
L 896.019685 -369.114219 
L 892.432908 -368.941396 
L 888.846131 -368.753011 
L 885.259354 -368.576892 
L 881.672577 -368.397851 
L 878.085801 -368.167239 
L 874.499024 -368.003044 
L 870.912247 -367.825477 
L 867.32547 -367.640732 
L 863.738693 -367.395586 
L 860.151916 -367.149833 
L 856.565139 -366.857246 
L 852.978363 -366.54701 
L 849.391586 -366.228208 
L 845.804809 -365.948498 
L 842.218032 -365.579219 
L 838.631255 -365.261338 
L 835.044478 -364.883397 
L 831.457701 -364.479446 
L 827.870925 -364.124124 
L 824.284148 -363.711344 
L 820.697371 -363.318117 
L 817.110594 -362.874768 
L 813.523817 -362.411807 
L 809.93704 -361.986847 
L 806.350263 -361.551805 
L 802.763487 -360.971711 
L 799.17671 -360.478618 
L 795.589933 -359.850549 
L 792.003156 -359.265915 
L 788.416379 -358.747323 
L 784.829602 -358.095161 
L 781.242825 -357.355456 
L 777.656049 -356.642231 
L 774.069272 -355.688569 
L 770.482495 -354.9375 
L 766.895718 -354.087274 
L 763.308941 -353.056647 
L 759.722164 -352.047774 
L 756.135387 -350.925347 
L 752.548611 -349.762422 
L 748.961834 -348.635174 
L 745.375057 -347.41417 
L 741.78828 -346.312802 
L 738.201503 -344.976997 
L 734.614726 -343.441407 
L 731.027949 -341.987023 
L 727.441173 -340.637028 
L 723.854396 -339.044206 
L 720.267619 -337.368207 
L 716.680842 -335.511584 
L 713.094065 -333.720836 
L 709.507288 -331.314446 
L 705.920511 -328.268795 
L 702.333735 -325.394205 
L 698.746958 -321.534652 
L 695.160181 -317.154847 
L 691.573404 -311.812256 
L 687.986627 -307.073155 
L 684.39985 -303.560461 
L 680.813073 -297.186678 
L 677.226296 -290.549052 
L 673.63952 -280.578719 
L 670.052743 -272.779612 
L 666.465966 -259.678781 
L 662.879189 -245.770535 
L 659.292412 -233.419941 
L 655.705635 -221.082834 
L 652.118858 -205.376641 
L 648.532082 -191.193931 
L 644.945305 -178.623587 
L 641.358528 -173.685033 
L 637.771751 -166.792724 
L 634.184974 -147.437024 
L 630.598197 -145.862013 
L 627.01142 -124.056502 
z
" style="stroke: #a6d854; stroke-opacity: 0.3"/>
    </defs>
    <g clip-path="url(#p72aab18b81)">
     <use xlink:href="#m4f5f01fc55" x="0" y="395.85625" style="fill: #a6d854; fill-opacity: 0.3; stroke: #a6d854; stroke-opacity: 0.3"/>
    </g>
   </g>
   <g id="PolyCollection_4"/>
   <g id="line2d_1">
    <path d="M 627.01142 271.799748 
L 630.598197 271.752472 
L 634.184974 271.309116 
L 637.771751 270.43554 
L 641.358528 269.596549 
L 644.945305 268.938552 
L 648.532082 268.147996 
L 652.118858 267.152523 
L 655.705635 266.122767 
L 659.292412 265.183411 
L 662.879189 264.273318 
L 666.465966 263.283376 
L 670.052743 262.438837 
L 673.63952 261.699306 
L 677.226296 260.968193 
L 680.813073 260.389225 
L 684.39985 259.879468 
L 687.986627 259.317417 
L 691.573404 258.716061 
L 695.160181 258.006598 
L 698.746958 257.377175 
L 702.333735 256.803559 
L 705.920511 256.224437 
L 709.507288 255.722905 
L 713.094065 255.310206 
L 716.680842 254.730716 
L 720.267619 254.212087 
L 723.854396 253.556239 
L 727.441173 252.941231 
L 731.027949 252.546121 
L 734.614726 251.998657 
L 738.201503 251.395363 
L 741.78828 250.798793 
L 745.375057 250.20152 
L 748.961834 249.558484 
L 752.548611 248.82862 
L 756.135387 248.03837 
L 759.722164 246.711233 
L 763.308941 245.898492 
L 766.895718 245.17059 
L 770.482495 244.338607 
L 774.069272 243.034368 
L 777.656049 241.959163 
L 781.242825 240.60388 
L 784.829602 239.662672 
L 788.416379 238.611666 
L 792.003156 237.607451 
L 795.589933 236.247093 
L 799.17671 234.712271 
L 802.763487 232.632969 
L 806.350263 230.481645 
L 809.93704 228.81185 
L 813.523817 225.99688 
L 817.110594 222.966266 
L 820.697371 219.742025 
L 824.284148 216.448391 
L 827.870925 213.261521 
L 831.457701 209.78588 
L 835.044478 205.682359 
L 838.631255 200.466402 
L 842.218032 196.311538 
L 845.804809 192.347794 
L 849.391586 187.328199 
L 852.978363 181.86831 
L 856.565139 176.856904 
L 860.151916 171.402046 
L 863.738693 165.708214 
L 867.32547 160.307874 
L 870.912247 154.377028 
L 874.499024 148.821629 
L 878.085801 143.554784 
L 881.672577 137.215216 
L 885.259354 131.000157 
L 888.846131 124.656478 
L 892.432908 118.621758 
L 896.019685 112.760031 
L 899.606462 107.378585 
L 903.193239 102.434814 
L 906.780015 97.393789 
L 910.366792 92.403695 
L 913.953569 87.569995 
L 917.540346 83.055722 
L 921.127123 78.023612 
L 924.7139 73.576982 
L 928.300677 69.441831 
L 931.887454 64.868921 
L 935.47423 61.128769 
L 939.061007 57.171662 
L 942.647784 53.344193 
L 946.234561 49.749831 
L 949.821338 46.401103 
L 953.408115 43.02463 
L 956.994892 39.779533 
L 960.581668 36.83908 
L 964.168445 34.352558 
L 967.755222 32.134323 
L 971.341999 29.876675 
L 974.928776 27.858872 
L 978.515553 25.840336 
L 982.10233 23.112054 
" clip-path="url(#p72aab18b81)" style="fill: none; stroke: #66c2a5; stroke-width: 1.75; stroke-linecap: round"/>
   </g>
   <g id="line2d_2">
    <path d="M 627.01142 271.799748 
L 630.598197 224.37137 
L 634.184974 233.87368 
L 637.771751 226.138016 
L 641.358528 220.228765 
L 644.945305 216.819645 
L 648.532082 212.690242 
L 652.118858 209.108874 
L 655.705635 206.523591 
L 659.292412 204.082276 
L 662.879189 201.929355 
L 666.465966 199.783192 
L 670.052743 194.215047 
L 673.63952 189.641239 
L 677.226296 183.425032 
L 680.813073 177.448866 
L 684.39985 165.093785 
L 687.986627 154.612229 
L 691.573404 148.508775 
L 695.160181 142.86476 
L 698.746958 138.788371 
L 702.333735 135.556227 
L 705.920511 129.264077 
L 709.507288 125.215553 
L 713.094065 121.209322 
L 716.680842 116.395443 
L 720.267619 111.856142 
L 723.854396 108.051425 
L 727.441173 103.622626 
L 731.027949 100.814463 
L 734.614726 96.820322 
L 738.201503 93.585917 
L 741.78828 90.652971 
L 745.375057 87.716182 
L 748.961834 85.114089 
L 752.548611 82.44004 
L 756.135387 80.038498 
L 759.722164 76.995777 
L 763.308941 74.652874 
L 766.895718 72.719985 
L 770.482495 70.284854 
L 774.069272 68.246941 
L 777.656049 66.717824 
L 781.242825 64.959042 
L 784.829602 63.205146 
L 788.416379 61.470594 
L 792.003156 59.880815 
L 795.589933 58.430011 
L 799.17671 57.107422 
L 802.763487 55.515526 
L 806.350263 54.043671 
L 809.93704 53.007342 
L 813.523817 51.602967 
L 817.110594 50.369843 
L 820.697371 48.864504 
L 824.284148 47.737907 
L 827.870925 46.556445 
L 831.457701 45.512372 
L 835.044478 44.332688 
L 838.631255 43.402781 
L 842.218032 42.521976 
L 845.804809 41.606699 
L 849.391586 40.652219 
L 852.978363 39.807711 
L 856.565139 38.808042 
L 860.151916 37.804222 
L 863.738693 36.902443 
L 867.32547 36.04298 
L 870.912247 35.103755 
L 874.499024 34.047622 
L 878.085801 33.186776 
L 881.672577 32.366405 
L 885.259354 31.790473 
L 888.846131 31.069007 
L 892.432908 30.567954 
L 896.019685 30.104503 
L 899.606462 29.559779 
L 903.193239 29.079817 
L 906.780015 28.638417 
L 910.366792 28.190569 
L 913.953569 27.765403 
L 917.540346 27.389749 
L 921.127123 26.870838 
L 924.7139 26.418599 
L 928.300677 26.082052 
L 931.887454 25.680251 
L 935.47423 25.320681 
L 939.061007 25.041262 
L 942.647784 24.726628 
L 946.234561 24.399547 
L 949.821338 24.125168 
L 953.408115 23.87651 
L 956.994892 23.717582 
L 960.581668 23.535398 
L 964.168445 23.426596 
L 967.755222 23.331157 
L 971.341999 23.261976 
L 974.928776 23.197304 
L 978.515553 23.155745 
L 982.10233 23.112054 
" clip-path="url(#p72aab18b81)" style="fill: none; stroke: #fc8d62; stroke-width: 1.75; stroke-linecap: round"/>
   </g>
   <g id="line2d_3">
    <path d="M 627.01142 271.799748 
L 630.598197 262.947078 
L 634.184974 262.914392 
L 637.771751 254.419846 
L 641.358528 248.737035 
L 644.945305 245.636336 
L 648.532082 236.255539 
L 652.118858 229.656981 
L 655.705635 220.830201 
L 659.292412 211.354129 
L 662.879189 201.38655 
L 666.465966 190.231412 
L 670.052743 178.932775 
L 673.63952 167.867095 
L 677.226296 157.3466 
L 680.813073 148.397051 
L 684.39985 139.01837 
L 687.986627 128.712403 
L 691.573404 122.059494 
L 695.160181 115.006406 
L 698.746958 109.226664 
L 702.333735 103.537025 
L 705.920511 98.836419 
L 709.507288 93.957187 
L 713.094065 89.253428 
L 716.680842 85.165769 
L 720.267619 81.597276 
L 723.854396 78.525351 
L 727.441173 75.737079 
L 731.027949 72.838308 
L 734.614726 69.864513 
L 738.201503 67.413125 
L 741.78828 65.138143 
L 745.375057 63.006215 
L 748.961834 60.830189 
L 752.548611 59.116925 
L 756.135387 57.246668 
L 759.722164 55.441777 
L 763.308941 53.753062 
L 766.895718 52.200128 
L 770.482495 51.026304 
L 774.069272 49.916044 
L 777.656049 48.597215 
L 781.242825 47.31021 
L 784.829602 46.147155 
L 788.416379 45.202569 
L 792.003156 44.24393 
L 795.589933 43.31155 
L 799.17671 42.398916 
L 802.763487 41.546732 
L 806.350263 40.610505 
L 809.93704 39.871591 
L 813.523817 39.10135 
L 817.110594 38.427236 
L 820.697371 37.742657 
L 824.284148 37.105436 
L 827.870925 36.490266 
L 831.457701 35.955467 
L 835.044478 35.384083 
L 838.631255 34.827058 
L 842.218032 34.338162 
L 845.804809 33.858455 
L 849.391586 33.357558 
L 852.978363 32.918489 
L 856.565139 32.443636 
L 860.151916 32.004929 
L 863.738693 31.60387 
L 867.32547 31.226979 
L 870.912247 30.895818 
L 874.499024 30.558046 
L 878.085801 30.235625 
L 881.672577 29.877563 
L 885.259354 29.567659 
L 888.846131 29.242715 
L 892.432908 28.936591 
L 896.019685 28.647717 
L 899.606462 28.375269 
L 903.193239 28.107265 
L 906.780015 27.836503 
L 910.366792 27.579749 
L 913.953569 27.316311 
L 917.540346 27.068967 
L 921.127123 26.832693 
L 924.7139 26.596916 
L 928.300677 26.376552 
L 931.887454 26.141133 
L 935.47423 25.912099 
L 939.061007 25.693883 
L 942.647784 25.480745 
L 946.234561 25.271173 
L 949.821338 25.073544 
L 953.408115 24.883393 
L 956.994892 24.700049 
L 960.581668 24.500138 
L 964.168445 24.305049 
L 967.755222 24.115161 
L 971.341999 23.914322 
L 974.928776 23.667446 
L 978.515553 23.425817 
L 982.10233 23.112054 
" clip-path="url(#p72aab18b81)" style="fill: none; stroke: #a6d854; stroke-width: 1.75; stroke-linecap: round"/>
   </g>
   <g id="line2d_4">
    <path d="M 627.01142 271.799748 
L 630.598197 248.339104 
L 634.184974 242.091183 
L 637.771751 236.974927 
L 641.358528 234.319149 
L 644.945305 228.687487 
L 648.532082 219.386876 
L 652.118858 208.177544 
L 655.705635 191.278689 
L 659.292412 175.346247 
L 662.879189 152.040424 
L 666.465966 144.008614 
L 670.052743 135.36635 
L 673.63952 127.151914 
L 677.226296 116.91312 
L 680.813073 106.95899 
L 684.39985 101.810503 
L 687.986627 96.096275 
L 691.573404 88.540168 
L 695.160181 80.903765 
L 698.746958 76.219605 
L 702.333735 72.28773 
L 705.920511 68.248504 
L 709.507288 63.418736 
L 713.094065 59.352019 
L 716.680842 57.077575 
L 720.267619 53.937734 
L 723.854396 51.404567 
L 727.441173 49.701703 
L 731.027949 47.628225 
L 734.614726 45.419484 
L 738.201503 43.523887 
L 741.78828 42.144462 
L 745.375057 41.198 
L 748.961834 40.270813 
L 752.548611 39.051562 
L 756.135387 38.17716 
L 759.722164 37.302791 
L 763.308941 36.439864 
L 766.895718 35.76337 
L 770.482495 35.204346 
L 774.069272 34.639093 
L 777.656049 33.953402 
L 781.242825 33.39662 
L 784.829602 33.040013 
L 788.416379 32.736608 
L 792.003156 32.326743 
L 795.589933 31.946899 
L 799.17671 31.633146 
L 802.763487 31.285489 
L 806.350263 30.945692 
L 809.93704 30.778204 
L 813.523817 30.493929 
L 817.110594 30.220799 
L 820.697371 29.939777 
L 824.284148 29.635737 
L 827.870925 29.414414 
L 831.457701 29.259128 
L 835.044478 29.070829 
L 838.631255 28.878861 
L 842.218032 28.687699 
L 845.804809 28.495643 
L 849.391586 28.314013 
L 852.978363 28.038171 
L 856.565139 27.814625 
L 860.151916 27.603058 
L 863.738693 27.473657 
L 867.32547 27.325002 
L 870.912247 27.189292 
L 874.499024 27.034121 
L 878.085801 26.854158 
L 881.672577 26.706592 
L 885.259354 26.608547 
L 888.846131 26.474352 
L 892.432908 26.35992 
L 896.019685 26.237555 
L 899.606462 26.094699 
L 903.193239 25.988174 
L 906.780015 25.854534 
L 910.366792 25.741369 
L 913.953569 25.587957 
L 917.540346 25.450373 
L 921.127123 25.307526 
L 924.7139 25.197116 
L 928.300677 25.075907 
L 931.887454 24.970293 
L 935.47423 24.82257 
L 939.061007 24.710032 
L 942.647784 24.56211 
L 946.234561 24.428061 
L 949.821338 24.295373 
L 953.408115 24.145698 
L 956.994892 23.988016 
L 960.581668 23.842244 
L 964.168445 23.699969 
L 967.755222 23.557265 
L 971.341999 23.428625 
L 974.928776 23.31326 
L 978.515553 23.209786 
L 982.10233 23.112054 
" clip-path="url(#p72aab18b81)" style="fill: none; stroke: #e78ac3; stroke-width: 1.75; stroke-linecap: round"/>
   </g>
   <g id="patch_3">
    <path d="M 609.256875 284.4 
L 609.256875 7.2 
" style="fill: none; stroke: #262626; stroke-width: 0.8; stroke-linejoin: miter; stroke-linecap: square"/>
   </g>
   <g id="patch_4">
    <path d="M 609.256875 284.4 
L 999.856875 284.4 
" style="fill: none; stroke: #262626; stroke-width: 0.8; stroke-linejoin: miter; stroke-linecap: square"/>
   </g>
   <g id="legend_1">
    <g id="line2d_5">
     <path d="M 18.4 361.763125 
L 46.4 361.763125 
L 74.4 361.763125 
" style="fill: none; stroke: #66c2a5; stroke-width: 1.75; stroke-linecap: round"/>
    </g>
    <g id="text_9">
     <!-- Contrastive Transformer -->
     <g style="fill: #262626" transform="translate(96.8 371.563125) scale(0.28 -0.28)">
      <defs>
       <path id="ArialMT-43" d="M 3763 1606 
L 4369 1453 
Q 4178 706 3683 314 
Q 3188 -78 2472 -78 
Q 1731 -78 1267 223 
Q 803 525 561 1097 
Q 319 1669 319 2325 
Q 319 3041 592 3573 
Q 866 4106 1370 4382 
Q 1875 4659 2481 4659 
Q 3169 4659 3637 4309 
Q 4106 3959 4291 3325 
L 3694 3184 
Q 3534 3684 3231 3912 
Q 2928 4141 2469 4141 
Q 1941 4141 1586 3887 
Q 1231 3634 1087 3207 
Q 944 2781 944 2328 
Q 944 1744 1114 1308 
Q 1284 872 1643 656 
Q 2003 441 2422 441 
Q 2931 441 3284 734 
Q 3638 1028 3763 1606 
z
" transform="scale(0.015625)"/>
       <path id="ArialMT-6e" d="M 422 0 
L 422 3319 
L 928 3319 
L 928 2847 
Q 1294 3394 1984 3394 
Q 2284 3394 2536 3286 
Q 2788 3178 2913 3003 
Q 3038 2828 3088 2588 
Q 3119 2431 3119 2041 
L 3119 0 
L 2556 0 
L 2556 2019 
Q 2556 2363 2490 2533 
Q 2425 2703 2258 2804 
Q 2091 2906 1866 2906 
Q 1506 2906 1245 2678 
Q 984 2450 984 1813 
L 984 0 
L 422 0 
z
" transform="scale(0.015625)"/>
       <path id="ArialMT-54" d="M 1659 0 
L 1659 4041 
L 150 4041 
L 150 4581 
L 3781 4581 
L 3781 4041 
L 2266 4041 
L 2266 0 
L 1659 0 
z
" transform="scale(0.015625)"/>
       <path id="ArialMT-66" d="M 556 0 
L 556 2881 
L 59 2881 
L 59 3319 
L 556 3319 
L 556 3672 
Q 556 4006 616 4169 
Q 697 4388 901 4523 
Q 1106 4659 1475 4659 
Q 1713 4659 2000 4603 
L 1916 4113 
Q 1741 4144 1584 4144 
Q 1328 4144 1222 4034 
Q 1116 3925 1116 3625 
L 1116 3319 
L 1763 3319 
L 1763 2881 
L 1116 2881 
L 1116 0 
L 556 0 
z
" transform="scale(0.015625)"/>
       <path id="ArialMT-6d" d="M 422 0 
L 422 3319 
L 925 3319 
L 925 2853 
Q 1081 3097 1340 3245 
Q 1600 3394 1931 3394 
Q 2300 3394 2536 3241 
Q 2772 3088 2869 2813 
Q 3263 3394 3894 3394 
Q 4388 3394 4653 3120 
Q 4919 2847 4919 2278 
L 4919 0 
L 4359 0 
L 4359 2091 
Q 4359 2428 4304 2576 
Q 4250 2725 4106 2815 
Q 3963 2906 3769 2906 
Q 3419 2906 3187 2673 
Q 2956 2441 2956 1928 
L 2956 0 
L 2394 0 
L 2394 2156 
Q 2394 2531 2256 2718 
Q 2119 2906 1806 2906 
Q 1569 2906 1367 2781 
Q 1166 2656 1075 2415 
Q 984 2175 984 1722 
L 984 0 
L 422 0 
z
" transform="scale(0.015625)"/>
      </defs>
      <use xlink:href="#ArialMT-43"/>
      <use xlink:href="#ArialMT-6f" x="72.216797"/>
      <use xlink:href="#ArialMT-6e" x="127.832031"/>
      <use xlink:href="#ArialMT-74" x="183.447266"/>
      <use xlink:href="#ArialMT-72" x="211.230469"/>
      <use xlink:href="#ArialMT-61" x="244.53125"/>
      <use xlink:href="#ArialMT-73" x="300.146484"/>
      <use xlink:href="#ArialMT-74" x="350.146484"/>
      <use xlink:href="#ArialMT-69" x="377.929688"/>
      <use xlink:href="#ArialMT-76" x="400.146484"/>
      <use xlink:href="#ArialMT-65" x="450.146484"/>
      <use xlink:href="#ArialMT-20" x="505.761719"/>
      <use xlink:href="#ArialMT-54" x="531.794922"/>
      <use xlink:href="#ArialMT-72" x="589.128906"/>
      <use xlink:href="#ArialMT-61" x="622.429688"/>
      <use xlink:href="#ArialMT-6e" x="678.044922"/>
      <use xlink:href="#ArialMT-73" x="733.660156"/>
      <use xlink:href="#ArialMT-66" x="783.660156"/>
      <use xlink:href="#ArialMT-6f" x="811.443359"/>
      <use xlink:href="#ArialMT-72" x="867.058594"/>
      <use xlink:href="#ArialMT-6d" x="900.359375"/>
      <use xlink:href="#ArialMT-65" x="983.660156"/>
      <use xlink:href="#ArialMT-72" x="1039.275391"/>
     </g>
    </g>
    <g id="line2d_6">
     <path d="M 453.1 361.763125 
L 481.1 361.763125 
L 509.1 361.763125 
" style="fill: none; stroke: #fc8d62; stroke-width: 1.75; stroke-linecap: round"/>
    </g>
    <g id="text_10">
     <!-- Cosine Similarity -->
     <g style="fill: #262626" transform="translate(531.5 371.563125) scale(0.28 -0.28)">
      <defs>
       <path id="ArialMT-53" d="M 288 1472 
L 859 1522 
Q 900 1178 1048 958 
Q 1197 738 1509 602 
Q 1822 466 2213 466 
Q 2559 466 2825 569 
Q 3091 672 3220 851 
Q 3350 1031 3350 1244 
Q 3350 1459 3225 1620 
Q 3100 1781 2813 1891 
Q 2628 1963 1997 2114 
Q 1366 2266 1113 2400 
Q 784 2572 623 2826 
Q 463 3081 463 3397 
Q 463 3744 659 4045 
Q 856 4347 1234 4503 
Q 1613 4659 2075 4659 
Q 2584 4659 2973 4495 
Q 3363 4331 3572 4012 
Q 3781 3694 3797 3291 
L 3216 3247 
Q 3169 3681 2898 3903 
Q 2628 4125 2100 4125 
Q 1550 4125 1298 3923 
Q 1047 3722 1047 3438 
Q 1047 3191 1225 3031 
Q 1400 2872 2139 2705 
Q 2878 2538 3153 2413 
Q 3553 2228 3743 1945 
Q 3934 1663 3934 1294 
Q 3934 928 3725 604 
Q 3516 281 3123 101 
Q 2731 -78 2241 -78 
Q 1619 -78 1198 103 
Q 778 284 539 648 
Q 300 1013 288 1472 
z
" transform="scale(0.015625)"/>
      </defs>
      <use xlink:href="#ArialMT-43"/>
      <use xlink:href="#ArialMT-6f" x="72.216797"/>
      <use xlink:href="#ArialMT-73" x="127.832031"/>
      <use xlink:href="#ArialMT-69" x="177.832031"/>
      <use xlink:href="#ArialMT-6e" x="200.048828"/>
      <use xlink:href="#ArialMT-65" x="255.664062"/>
      <use xlink:href="#ArialMT-20" x="311.279297"/>
      <use xlink:href="#ArialMT-53" x="339.0625"/>
      <use xlink:href="#ArialMT-69" x="405.761719"/>
      <use xlink:href="#ArialMT-6d" x="427.978516"/>
      <use xlink:href="#ArialMT-69" x="511.279297"/>
      <use xlink:href="#ArialMT-6c" x="533.496094"/>
      <use xlink:href="#ArialMT-61" x="555.712891"/>
      <use xlink:href="#ArialMT-72" x="611.328125"/>
      <use xlink:href="#ArialMT-69" x="644.628906"/>
      <use xlink:href="#ArialMT-74" x="666.845703"/>
      <use xlink:href="#ArialMT-79" x="694.628906"/>
     </g>
    </g>
    <g id="line2d_7">
     <path d="M 795.990625 361.763125 
L 823.990625 361.763125 
L 851.990625 361.763125 
" style="fill: none; stroke: #a6d854; stroke-width: 1.75; stroke-linecap: round"/>
    </g>
    <g id="text_11">
     <!-- MALDI Transformer -->
     <g style="fill: #262626" transform="translate(874.390625 371.563125) scale(0.28 -0.28)">
      <defs>
       <path id="ArialMT-4d" d="M 475 0 
L 475 4581 
L 1388 4581 
L 2472 1338 
Q 2622 884 2691 659 
Q 2769 909 2934 1394 
L 4031 4581 
L 4847 4581 
L 4847 0 
L 4263 0 
L 4263 3834 
L 2931 0 
L 2384 0 
L 1059 3900 
L 1059 0 
L 475 0 
z
" transform="scale(0.015625)"/>
       <path id="ArialMT-41" d="M -9 0 
L 1750 4581 
L 2403 4581 
L 4278 0 
L 3588 0 
L 3053 1388 
L 1138 1388 
L 634 0 
L -9 0 
z
M 1313 1881 
L 2866 1881 
L 2388 3150 
Q 2169 3728 2063 4100 
Q 1975 3659 1816 3225 
L 1313 1881 
z
" transform="scale(0.015625)"/>
       <path id="ArialMT-4c" d="M 469 0 
L 469 4581 
L 1075 4581 
L 1075 541 
L 3331 541 
L 3331 0 
L 469 0 
z
" transform="scale(0.015625)"/>
       <path id="ArialMT-49" d="M 597 0 
L 597 4581 
L 1203 4581 
L 1203 0 
L 597 0 
z
" transform="scale(0.015625)"/>
      </defs>
      <use xlink:href="#ArialMT-4d"/>
      <use xlink:href="#ArialMT-41" x="83.300781"/>
      <use xlink:href="#ArialMT-4c" x="150"/>
      <use xlink:href="#ArialMT-44" x="205.615234"/>
      <use xlink:href="#ArialMT-49" x="277.832031"/>
      <use xlink:href="#ArialMT-20" x="305.615234"/>
      <use xlink:href="#ArialMT-54" x="331.648438"/>
      <use xlink:href="#ArialMT-72" x="388.982422"/>
      <use xlink:href="#ArialMT-61" x="422.283203"/>
      <use xlink:href="#ArialMT-6e" x="477.898438"/>
      <use xlink:href="#ArialMT-73" x="533.513672"/>
      <use xlink:href="#ArialMT-66" x="583.513672"/>
      <use xlink:href="#ArialMT-6f" x="611.296875"/>
      <use xlink:href="#ArialMT-72" x="666.912109"/>
      <use xlink:href="#ArialMT-6d" x="700.212891"/>
      <use xlink:href="#ArialMT-65" x="783.513672"/>
      <use xlink:href="#ArialMT-72" x="839.128906"/>
     </g>
    </g>
    <g id="line2d_8">
     <path d="M 1174.655625 361.763125 
L 1202.655625 361.763125 
L 1230.655625 361.763125 
" style="fill: none; stroke: #e78ac3; stroke-width: 1.75; stroke-linecap: round"/>
    </g>
    <g id="text_12">
     <!-- Cosine Similarity (Int. Agn.) -->
     <g style="fill: #262626" transform="translate(1253.055625 371.563125) scale(0.28 -0.28)">
      <defs>
       <path id="ArialMT-28" d="M 1497 -1347 
Q 1031 -759 709 28 
Q 388 816 388 1659 
Q 388 2403 628 3084 
Q 909 3875 1497 4659 
L 1900 4659 
Q 1522 4009 1400 3731 
Q 1209 3300 1100 2831 
Q 966 2247 966 1656 
Q 966 153 1900 -1347 
L 1497 -1347 
z
" transform="scale(0.015625)"/>
       <path id="ArialMT-67" d="M 319 -275 
L 866 -356 
Q 900 -609 1056 -725 
Q 1266 -881 1628 -881 
Q 2019 -881 2231 -725 
Q 2444 -569 2519 -288 
Q 2563 -116 2559 434 
Q 2191 0 1641 0 
Q 956 0 581 494 
Q 206 988 206 1678 
Q 206 2153 378 2554 
Q 550 2956 876 3175 
Q 1203 3394 1644 3394 
Q 2231 3394 2613 2919 
L 2613 3319 
L 3131 3319 
L 3131 450 
Q 3131 -325 2973 -648 
Q 2816 -972 2473 -1159 
Q 2131 -1347 1631 -1347 
Q 1038 -1347 672 -1080 
Q 306 -813 319 -275 
z
M 784 1719 
Q 784 1066 1043 766 
Q 1303 466 1694 466 
Q 2081 466 2343 764 
Q 2606 1063 2606 1700 
Q 2606 2309 2336 2618 
Q 2066 2928 1684 2928 
Q 1309 2928 1046 2623 
Q 784 2319 784 1719 
z
" transform="scale(0.015625)"/>
       <path id="ArialMT-29" d="M 791 -1347 
L 388 -1347 
Q 1322 153 1322 1656 
Q 1322 2244 1188 2822 
Q 1081 3291 891 3722 
Q 769 4003 388 4659 
L 791 4659 
Q 1378 3875 1659 3084 
Q 1900 2403 1900 1659 
Q 1900 816 1576 28 
Q 1253 -759 791 -1347 
z
" transform="scale(0.015625)"/>
      </defs>
      <use xlink:href="#ArialMT-43"/>
      <use xlink:href="#ArialMT-6f" x="72.216797"/>
      <use xlink:href="#ArialMT-73" x="127.832031"/>
      <use xlink:href="#ArialMT-69" x="177.832031"/>
      <use xlink:href="#ArialMT-6e" x="200.048828"/>
      <use xlink:href="#ArialMT-65" x="255.664062"/>
      <use xlink:href="#ArialMT-20" x="311.279297"/>
      <use xlink:href="#ArialMT-53" x="339.0625"/>
      <use xlink:href="#ArialMT-69" x="405.761719"/>
      <use xlink:href="#ArialMT-6d" x="427.978516"/>
      <use xlink:href="#ArialMT-69" x="511.279297"/>
      <use xlink:href="#ArialMT-6c" x="533.496094"/>
      <use xlink:href="#ArialMT-61" x="555.712891"/>
      <use xlink:href="#ArialMT-72" x="611.328125"/>
      <use xlink:href="#ArialMT-69" x="644.628906"/>
      <use xlink:href="#ArialMT-74" x="666.845703"/>
      <use xlink:href="#ArialMT-79" x="694.628906"/>
      <use xlink:href="#ArialMT-20" x="744.628906"/>
      <use xlink:href="#ArialMT-28" x="772.412109"/>
      <use xlink:href="#ArialMT-49" x="805.712891"/>
      <use xlink:href="#ArialMT-6e" x="833.496094"/>
      <use xlink:href="#ArialMT-74" x="889.111328"/>
      <use xlink:href="#ArialMT-2e" x="916.894531"/>
      <use xlink:href="#ArialMT-20" x="944.677734"/>
      <use xlink:href="#ArialMT-41" x="966.960938"/>
      <use xlink:href="#ArialMT-67" x="1033.660156"/>
      <use xlink:href="#ArialMT-6e" x="1089.275391"/>
      <use xlink:href="#ArialMT-2e" x="1144.890625"/>
      <use xlink:href="#ArialMT-29" x="1172.673828"/>
     </g>
    </g>
   </g>
  </g>
 </g>
 <defs>
  <clipPath id="p72aab18b81">
   <rect x="609.256875" y="7.2" width="390.6" height="277.2"/>
  </clipPath>
 </defs>
</svg>
