<?xml version="1.0" encoding="utf-8" standalone="no"?>
<!DOCTYPE svg PUBLIC "-//W3C//DTD SVG 1.1//EN"
  "http://www.w3.org/Graphics/SVG/1.1/DTD/svg11.dtd">
<svg xmlns:xlink="http://www.w3.org/1999/xlink" width="478.73233pt" height="350.31375pt" viewBox="0 0 478.73233 350.31375" xmlns="http://www.w3.org/2000/svg" version="1.1">
 <metadata>
  <rdf:RDF xmlns:dc="http://purl.org/dc/elements/1.1/" xmlns:cc="http://creativecommons.org/ns#" xmlns:rdf="http://www.w3.org/1999/02/22-rdf-syntax-ns#">
   <cc:Work>
    <dc:type rdf:resource="http://purl.org/dc/dcmitype/StillImage"/>
    <dc:date>2026-08-17T15:11:22.178935</dc:date>
    <dc:format>image/svg+xml</dc:format>
    <dc:creator>
     <cc:Agent>
      <dc:title>Matplotlib v3.9.2, https://matplotlib.org/</dc:title>
     </cc:Agent>
    </dc:creator>
   </cc:Work>
  </rdf:RDF>
 </metadata>
 <defs>
  <style type="text/css">*{stroke-linejoin: round; stroke-linecap: butt}</style>
 </defs>
 <g id="figure_1">
  <g id="patch_1">
   <path d="M -0 350.31375 
L 478.73233 350.31375 
L 478.73233 0 
L -0 0 
z
" style="fill: #ffffff"/>
  </g>
  <g id="axes_1">
   <g id="patch_2">
    <path d="M 79.226875 284.4 
L 469.826875 284.4 
L 469.826875 7.2 
L 79.226875 7.2 
z
" style="fill: #ffffff"/>
   </g>
   <g id="matplotlib.axis_1">
    <g id="xtick_1">
     <g id="text_1">
      <!-- 0.0 -->
      <g style="fill: #262626" transform="translate(77.52142 307.941875) scale(0.28 -0.28)">
       <defs>
        <path id="ArialMT-30" d="M 266 2259 
Q 266 3072 433 3567 
Q 600 4063 929 4331 
Q 1259 4600 1759 4600 
Q 2128 4600 2406 4451 
Q 2684 4303 2865 4023 
Q 3047 3744 3150 3342 
Q 3253 2941 3253 2259 
Q 3253 1453 3087 958 
Q 2922 463 2592 192 
Q 2263 -78 1759 -78 
Q 1097 -78 719 397 
Q 266 969 266 2259 
z
M 844 2259 
Q 844 1131 1108 757 
Q 1372 384 1759 384 
Q 2147 384 2411 759 
Q 2675 1134 2675 2259 
Q 2675 3391 2411 3762 
Q 2147 4134 1753 4134 
Q 1366 4134 1134 3806 
Q 844 3388 844 2259 
z
" transform="scale(0.015625)"/>
        <path id="ArialMT-2e" d="M 581 0 
L 581 641 
L 1222 641 
L 1222 0 
L 581 0 
z
" transform="scale(0.015625)"/>
       </defs>
       <use xlink:href="#ArialMT-30"/>
       <use xlink:href="#ArialMT-2e" x="55.615234"/>
       <use xlink:href="#ArialMT-30" x="83.398438"/>
      </g>
     </g>
    </g>
    <g id="xtick_2">
     <g id="text_2">
      <!-- 0.5 -->
      <g style="fill: #262626" transform="translate(255.066875 307.941875) scale(0.28 -0.28)">
       <defs>
        <path id="ArialMT-35" d="M 266 1200 
L 856 1250 
Q 922 819 1161 601 
Q 1400 384 1738 384 
Q 2144 384 2425 690 
Q 2706 997 2706 1503 
Q 2706 1984 2436 2262 
Q 2166 2541 1728 2541 
Q 1456 2541 1237 2417 
Q 1019 2294 894 2097 
L 366 2166 
L 809 4519 
L 3088 4519 
L 3088 3981 
L 1259 3981 
L 1013 2750 
Q 1425 3038 1878 3038 
Q 2478 3038 2890 2622 
Q 3303 2206 3303 1553 
Q 3303 931 2941 478 
Q 2500 -78 1738 -78 
Q 1113 -78 717 272 
Q 322 622 266 1200 
z
" transform="scale(0.015625)"/>
       </defs>
       <use xlink:href="#ArialMT-30"/>
       <use xlink:href="#ArialMT-2e" x="55.615234"/>
       <use xlink:href="#ArialMT-35" x="83.398438"/>
      </g>
     </g>
    </g>
    <g id="xtick_3">
     <g id="text_3">
      <!-- 1.0 -->
      <g style="fill: #262626" transform="translate(432.61233 307.941875) scale(0.28 -0.28)">
       <defs>
        <path id="ArialMT-31" d="M 2384 0 
L 1822 0 
L 1822 3584 
Q 1619 3391 1289 3197 
Q 959 3003 697 2906 
L 697 3450 
Q 1169 3672 1522 3987 
Q 1875 4303 2022 4600 
L 2384 4600 
L 2384 0 
z
" transform="scale(0.015625)"/>
       </defs>
       <use xlink:href="#ArialMT-31"/>
       <use xlink:href="#ArialMT-2e" x="55.615234"/>
       <use xlink:href="#ArialMT-30" x="83.398438"/>
      </g>
     </g>
    </g>
    <g id="text_4">
     <!-- Recall -->
     <g style="fill: #262626" transform="translate(235.624375 337.54875) scale(0.28 -0.28)">
      <defs>
       <path id="ArialMT-52" d="M 503 0 
L 503 4581 
L 2534 4581 
Q 3147 4581 3465 4457 
Q 3784 4334 3975 4021 
Q 4166 3709 4166 3331 
Q 4166 2844 3850 2509 
Q 3534 2175 2875 2084 
Q 3116 1969 3241 1856 
Q 3506 1613 3744 1247 
L 4541 0 
L 3778 0 
L 3172 953 
Q 2906 1366 2734 1584 
Q 2563 1803 2427 1890 
Q 2291 1978 2150 2013 
Q 2047 2034 1813 2034 
L 1109 2034 
L 1109 0 
L 503 0 
z
M 1109 2559 
L 2413 2559 
Q 2828 2559 3062 2645 
Q 3297 2731 3419 2920 
Q 3541 3109 3541 3331 
Q 3541 3656 3305 3865 
Q 3069 4075 2559 4075 
L 1109 4075 
L 1109 2559 
z
" transform="scale(0.015625)"/>
       <path id="ArialMT-65" d="M 2694 1069 
L 3275 997 
Q 3138 488 2766 206 
Q 2394 -75 1816 -75 
Q 1088 -75 661 373 
Q 234 822 234 1631 
Q 234 2469 665 2931 
Q 1097 3394 1784 3394 
Q 2450 3394 2872 2941 
Q 3294 2488 3294 1666 
Q 3294 1616 3291 1516 
L 816 1516 
Q 847 969 1125 678 
Q 1403 388 1819 388 
Q 2128 388 2347 550 
Q 2566 713 2694 1069 
z
M 847 1978 
L 2700 1978 
Q 2663 2397 2488 2606 
Q 2219 2931 1791 2931 
Q 1403 2931 1139 2672 
Q 875 2413 847 1978 
z
" transform="scale(0.015625)"/>
       <path id="ArialMT-63" d="M 2588 1216 
L 3141 1144 
Q 3050 572 2676 248 
Q 2303 -75 1759 -75 
Q 1078 -75 664 370 
Q 250 816 250 1647 
Q 250 2184 428 2587 
Q 606 2991 970 3192 
Q 1334 3394 1763 3394 
Q 2303 3394 2647 3120 
Q 2991 2847 3088 2344 
L 2541 2259 
Q 2463 2594 2264 2762 
Q 2066 2931 1784 2931 
Q 1359 2931 1093 2626 
Q 828 2322 828 1663 
Q 828 994 1084 691 
Q 1341 388 1753 388 
Q 2084 388 2306 591 
Q 2528 794 2588 1216 
z
" transform="scale(0.015625)"/>
       <path id="ArialMT-61" d="M 2588 409 
Q 2275 144 1986 34 
Q 1697 -75 1366 -75 
Q 819 -75 525 192 
Q 231 459 231 875 
Q 231 1119 342 1320 
Q 453 1522 633 1644 
Q 813 1766 1038 1828 
Q 1203 1872 1538 1913 
Q 2219 1994 2541 2106 
Q 2544 2222 2544 2253 
Q 2544 2597 2384 2738 
Q 2169 2928 1744 2928 
Q 1347 2928 1158 2789 
Q 969 2650 878 2297 
L 328 2372 
Q 403 2725 575 2942 
Q 747 3159 1072 3276 
Q 1397 3394 1825 3394 
Q 2250 3394 2515 3294 
Q 2781 3194 2906 3042 
Q 3031 2891 3081 2659 
Q 3109 2516 3109 2141 
L 3109 1391 
Q 3109 606 3145 398 
Q 3181 191 3288 0 
L 2700 0 
Q 2613 175 2588 409 
z
M 2541 1666 
Q 2234 1541 1622 1453 
Q 1275 1403 1131 1340 
Q 988 1278 909 1158 
Q 831 1038 831 891 
Q 831 666 1001 516 
Q 1172 366 1500 366 
Q 1825 366 2078 508 
Q 2331 650 2450 897 
Q 2541 1088 2541 1459 
L 2541 1666 
z
" transform="scale(0.015625)"/>
       <path id="ArialMT-6c" d="M 409 0 
L 409 4581 
L 972 4581 
L 972 0 
L 409 0 
z
" transform="scale(0.015625)"/>
      </defs>
      <use xlink:href="#ArialMT-52"/>
      <use xlink:href="#ArialMT-65" x="72.216797"/>
      <use xlink:href="#ArialMT-63" x="127.832031"/>
      <use xlink:href="#ArialMT-61" x="177.832031"/>
      <use xlink:href="#ArialMT-6c" x="233.447266"/>
      <use xlink:href="#ArialMT-6c" x="255.664062"/>
     </g>
    </g>
   </g>
   <g id="matplotlib.axis_2">
    <g id="ytick_1">
     <g id="text_5">
      <!-- 0.0 -->
      <g style="fill: #262626" transform="translate(36.806875 281.820937) scale(0.28 -0.28)">
       <use xlink:href="#ArialMT-30"/>
       <use xlink:href="#ArialMT-2e" x="55.615234"/>
       <use xlink:href="#ArialMT-30" x="83.398438"/>
      </g>
     </g>
    </g>
    <g id="ytick_2">
     <g id="text_6">
      <!-- 0.5 -->
      <g style="fill: #262626" transform="translate(36.806875 155.820937) scale(0.28 -0.28)">
       <use xlink:href="#ArialMT-30"/>
       <use xlink:href="#ArialMT-2e" x="55.615234"/>
       <use xlink:href="#ArialMT-35" x="83.398438"/>
      </g>
     </g>
    </g>
    <g id="ytick_3">
     <g id="text_7">
      <!-- 1.0 -->
      <g style="fill: #262626" transform="translate(36.806875 29.820937) scale(0.28 -0.28)">
       <use xlink:href="#ArialMT-31"/>
       <use xlink:href="#ArialMT-2e" x="55.615234"/>
       <use xlink:href="#ArialMT-30" x="83.398438"/>
      </g>
     </g>
    </g>
    <g id="text_8">
     <!-- Micro Precision -->
     <g style="fill: #262626" transform="translate(27.241875 241.485625) rotate(-90) scale(0.28 -0.28)">
      <defs>
       <path id="ArialMT-4d" d="M 475 0 
L 475 4581 
L 1388 4581 
L 2472 1338 
Q 2622 884 2691 659 
Q 2769 909 2934 1394 
L 4031 4581 
L 4847 4581 
L 4847 0 
L 4263 0 
L 4263 3834 
L 2931 0 
L 2384 0 
L 1059 3900 
L 1059 0 
L 475 0 
z
" transform="scale(0.015625)"/>
       <path id="ArialMT-69" d="M 425 3934 
L 425 4581 
L 988 4581 
L 988 3934 
L 425 3934 
z
M 425 0 
L 425 3319 
L 988 3319 
L 988 0 
L 425 0 
z
" transform="scale(0.015625)"/>
       <path id="ArialMT-72" d="M 416 0 
L 416 3319 
L 922 3319 
L 922 2816 
Q 1116 3169 1280 3281 
Q 1444 3394 1641 3394 
Q 1925 3394 2219 3213 
L 2025 2691 
Q 1819 2813 1613 2813 
Q 1428 2813 1281 2702 
Q 1134 2591 1072 2394 
Q 978 2094 978 1738 
L 978 0 
L 416 0 
z
" transform="scale(0.015625)"/>
       <path id="ArialMT-6f" d="M 213 1659 
Q 213 2581 725 3025 
Q 1153 3394 1769 3394 
Q 2453 3394 2887 2945 
Q 3322 2497 3322 1706 
Q 3322 1066 3130 698 
Q 2938 331 2570 128 
Q 2203 -75 1769 -75 
Q 1072 -75 642 372 
Q 213 819 213 1659 
z
M 791 1659 
Q 791 1022 1069 705 
Q 1347 388 1769 388 
Q 2188 388 2466 706 
Q 2744 1025 2744 1678 
Q 2744 2294 2464 2611 
Q 2184 2928 1769 2928 
Q 1347 2928 1069 2612 
Q 791 2297 791 1659 
z
" transform="scale(0.015625)"/>
       <path id="ArialMT-20" transform="scale(0.015625)"/>
       <path id="ArialMT-50" d="M 494 0 
L 494 4581 
L 2222 4581 
Q 2678 4581 2919 4538 
Q 3256 4481 3484 4323 
Q 3713 4166 3852 3881 
Q 3991 3597 3991 3256 
Q 3991 2672 3619 2267 
Q 3247 1863 2275 1863 
L 1100 1863 
L 1100 0 
L 494 0 
z
M 1100 2403 
L 2284 2403 
Q 2872 2403 3119 2622 
Q 3366 2841 3366 3238 
Q 3366 3525 3220 3729 
Q 3075 3934 2838 4000 
Q 2684 4041 2272 4041 
L 1100 4041 
L 1100 2403 
z
" transform="scale(0.015625)"/>
       <path id="ArialMT-73" d="M 197 991 
L 753 1078 
Q 800 744 1014 566 
Q 1228 388 1613 388 
Q 2000 388 2187 545 
Q 2375 703 2375 916 
Q 2375 1106 2209 1216 
Q 2094 1291 1634 1406 
Q 1016 1563 777 1677 
Q 538 1791 414 1992 
Q 291 2194 291 2438 
Q 291 2659 392 2848 
Q 494 3038 669 3163 
Q 800 3259 1026 3326 
Q 1253 3394 1513 3394 
Q 1903 3394 2198 3281 
Q 2494 3169 2634 2976 
Q 2775 2784 2828 2463 
L 2278 2388 
Q 2241 2644 2061 2787 
Q 1881 2931 1553 2931 
Q 1166 2931 1000 2803 
Q 834 2675 834 2503 
Q 834 2394 903 2306 
Q 972 2216 1119 2156 
Q 1203 2125 1616 2013 
Q 2213 1853 2448 1751 
Q 2684 1650 2818 1456 
Q 2953 1263 2953 975 
Q 2953 694 2789 445 
Q 2625 197 2315 61 
Q 2006 -75 1616 -75 
Q 969 -75 630 194 
Q 291 463 197 991 
z
" transform="scale(0.015625)"/>
       <path id="ArialMT-6e" d="M 422 0 
L 422 3319 
L 928 3319 
L 928 2847 
Q 1294 3394 1984 3394 
Q 2284 3394 2536 3286 
Q 2788 3178 2913 3003 
Q 3038 2828 3088 2588 
Q 3119 2431 3119 2041 
L 3119 0 
L 2556 0 
L 2556 2019 
Q 2556 2363 2490 2533 
Q 2425 2703 2258 2804 
Q 2091 2906 1866 2906 
Q 1506 2906 1245 2678 
Q 984 2450 984 1813 
L 984 0 
L 422 0 
z
" transform="scale(0.015625)"/>
      </defs>
      <use xlink:href="#ArialMT-4d"/>
      <use xlink:href="#ArialMT-69" x="83.300781"/>
      <use xlink:href="#ArialMT-63" x="105.517578"/>
      <use xlink:href="#ArialMT-72" x="155.517578"/>
      <use xlink:href="#ArialMT-6f" x="188.818359"/>
      <use xlink:href="#ArialMT-20" x="244.433594"/>
      <use xlink:href="#ArialMT-50" x="272.216797"/>
      <use xlink:href="#ArialMT-72" x="338.916016"/>
      <use xlink:href="#ArialMT-65" x="372.216797"/>
      <use xlink:href="#ArialMT-63" x="427.832031"/>
      <use xlink:href="#ArialMT-69" x="477.832031"/>
      <use xlink:href="#ArialMT-73" x="500.048828"/>
      <use xlink:href="#ArialMT-69" x="550.048828"/>
      <use xlink:href="#ArialMT-6f" x="572.265625"/>
      <use xlink:href="#ArialMT-6e" x="627.880859"/>
     </g>
    </g>
   </g>
   <g id="PolyCollection_1">
    <defs>
     <path id="m91481e1dce" d="M 96.98142 -330.513498 
L 96.98142 -330.513498 
L 100.568197 -330.495781 
L 104.154974 -330.398416 
L 107.741751 -330.09091 
L 111.328528 -329.819949 
L 114.915305 -329.675833 
L 118.502082 -329.530742 
L 122.088858 -329.464398 
L 125.675635 -329.294268 
L 129.262412 -329.130901 
L 132.849189 -329.047822 
L 136.435966 -328.958135 
L 140.022743 -328.858049 
L 143.60952 -328.669894 
L 147.196296 -328.644831 
L 150.783073 -328.563934 
L 154.36985 -328.422745 
L 157.956627 -328.236434 
L 161.543404 -328.005577 
L 165.130181 -327.899077 
L 168.716958 -327.677105 
L 172.303735 -327.421796 
L 175.890511 -327.147689 
L 179.477288 -326.984527 
L 183.064065 -326.736352 
L 186.650842 -326.382848 
L 190.237619 -325.977866 
L 193.824396 -325.66407 
L 197.411173 -325.259241 
L 200.997949 -324.752774 
L 204.584726 -324.305249 
L 208.171503 -323.785424 
L 211.75828 -323.29603 
L 215.345057 -322.662966 
L 218.931834 -321.945387 
L 222.518611 -321.340706 
L 226.105387 -320.618233 
L 229.692164 -319.702432 
L 233.278941 -318.508773 
L 236.865718 -317.21691 
L 240.452495 -315.854798 
L 244.039272 -315.001969 
L 247.626049 -314.059433 
L 251.212825 -313.290595 
L 254.799602 -312.456213 
L 258.386379 -311.657936 
L 261.973156 -310.800741 
L 265.559933 -310.074967 
L 269.14671 -309.28715 
L 272.733487 -308.630176 
L 276.320263 -308.00308 
L 279.90704 -307.442263 
L 283.493817 -307.287163 
L 287.080594 -306.666685 
L 290.667371 -306.569491 
L 294.254148 -306.154719 
L 297.840925 -305.94769 
L 301.427701 -305.852109 
L 305.014478 -305.667597 
L 308.601255 -305.78377 
L 312.188032 -305.995224 
L 315.774809 -306.171867 
L 319.361586 -306.462593 
L 322.948363 -306.561554 
L 326.535139 -306.79582 
L 330.121916 -306.933833 
L 333.708693 -306.943082 
L 337.29547 -306.918058 
L 340.882247 -306.851206 
L 344.469024 -306.861409 
L 348.055801 -306.80875 
L 351.642577 -306.680299 
L 355.229354 -306.552086 
L 358.816131 -306.356865 
L 362.402908 -305.974452 
L 365.989685 -305.229534 
L 369.576462 -304.305256 
L 373.163239 -303.377434 
L 376.750015 -302.158553 
L 380.336792 -300.677982 
L 383.923569 -298.447982 
L 387.510346 -295.628992 
L 391.097123 -292.171562 
L 394.6839 -287.496933 
L 398.270677 -280.554646 
L 401.857454 -270.798904 
L 405.44423 -257.590962 
L 409.031007 -243.420426 
L 412.617784 -229.213856 
L 416.204561 -214.316195 
L 419.791338 -200.748285 
L 423.378115 -188.217507 
L 426.964892 -176.052869 
L 430.551668 -164.912397 
L 434.138445 -154.736959 
L 437.725222 -143.927618 
L 441.311999 -130.857638 
L 444.898776 -114.415375 
L 448.485553 -95.273147 
L 452.07233 -79.406807 
L 452.07233 -97.704429 
L 452.07233 -97.704429 
L 448.485553 -308.069893 
L 444.898776 -320.447361 
L 441.311999 -324.00279 
L 437.725222 -325.637679 
L 434.138445 -326.682642 
L 430.551668 -327.414787 
L 426.964892 -327.877213 
L 423.378115 -328.167755 
L 419.791338 -328.353558 
L 416.204561 -328.475114 
L 412.617784 -328.558748 
L 409.031007 -328.631033 
L 405.44423 -328.694529 
L 401.857454 -328.760664 
L 398.270677 -328.856564 
L 394.6839 -328.977504 
L 391.097123 -329.113427 
L 387.510346 -329.252977 
L 383.923569 -329.389082 
L 380.336792 -329.517028 
L 376.750015 -329.63487 
L 373.163239 -329.74611 
L 369.576462 -329.843338 
L 365.989685 -329.934426 
L 362.402908 -330.01673 
L 358.816131 -330.087348 
L 355.229354 -330.144925 
L 351.642577 -330.196828 
L 348.055801 -330.243879 
L 344.469024 -330.283459 
L 340.882247 -330.317696 
L 337.29547 -330.348421 
L 333.708693 -330.374746 
L 330.121916 -330.396618 
L 326.535139 -330.412859 
L 322.948363 -330.426966 
L 319.361586 -330.438632 
L 315.774809 -330.449674 
L 312.188032 -330.457266 
L 308.601255 -330.464288 
L 305.014478 -330.470917 
L 301.427701 -330.476284 
L 297.840925 -330.480147 
L 294.254148 -330.484103 
L 290.667371 -330.487109 
L 287.080594 -330.490248 
L 283.493817 -330.492234 
L 279.90704 -330.494867 
L 276.320263 -330.496764 
L 272.733487 -330.498699 
L 269.14671 -330.500277 
L 265.559933 -330.501595 
L 261.973156 -330.502667 
L 258.386379 -330.503542 
L 254.799602 -330.504586 
L 251.212825 -330.505423 
L 247.626049 -330.506502 
L 244.039272 -330.507092 
L 240.452495 -330.507783 
L 236.865718 -330.508387 
L 233.278941 -330.508717 
L 229.692164 -330.509066 
L 226.105387 -330.509336 
L 222.518611 -330.509594 
L 218.931834 -330.509765 
L 215.345057 -330.510015 
L 211.75828 -330.51029 
L 208.171503 -330.510475 
L 204.584726 -330.510649 
L 200.997949 -330.51082 
L 197.411173 -330.511063 
L 193.824396 -330.511222 
L 190.237619 -330.511374 
L 186.650842 -330.511593 
L 183.064065 -330.511809 
L 179.477288 -330.511837 
L 175.890511 -330.511872 
L 172.303735 -330.512066 
L 168.716958 -330.512261 
L 165.130181 -330.512488 
L 161.543404 -330.512602 
L 157.956627 -330.512794 
L 154.36985 -330.512972 
L 150.783073 -330.513081 
L 147.196296 -330.513053 
L 143.60952 -330.513482 
L 140.022743 -330.513524 
L 136.435966 -330.513519 
L 132.849189 -330.51351 
L 129.262412 -330.513501 
L 125.675635 -330.513495 
L 122.088858 -330.513489 
L 118.502082 -330.513475 
L 114.915305 -330.513452 
L 111.328528 -330.513427 
L 107.741751 -330.513411 
L 104.154974 -330.513612 
L 100.568197 -330.51366 
L 96.98142 -330.513498 
z
" style="stroke: #66c2a5; stroke-opacity: 0.3"/>
    </defs>
    <g clip-path="url(#p5146ca2c58)">
     <use xlink:href="#m91481e1dce" x="0" y="350.31375" style="fill: #66c2a5; fill-opacity: 0.3; stroke: #66c2a5; stroke-opacity: 0.3"/>
    </g>
   </g>
   <g id="PolyCollection_2">
    <defs>
     <path id="m9828bc3893" d="M 96.98142 -313.533621 
L 96.98142 -78.51375 
L 100.568197 -86.261363 
L 104.154974 -89.763127 
L 107.741751 -91.996628 
L 111.328528 -92.741303 
L 114.915305 -92.658406 
L 118.502082 -92.234287 
L 122.088858 -91.802849 
L 125.675635 -91.471135 
L 129.262412 -91.200643 
L 132.849189 -90.983915 
L 136.435966 -90.811934 
L 140.022743 -90.644979 
L 143.60952 -90.489542 
L 147.196296 -90.342165 
L 150.783073 -90.195664 
L 154.36985 -90.031984 
L 157.956627 -89.866285 
L 161.543404 -89.709462 
L 165.130181 -89.548264 
L 168.716958 -89.371742 
L 172.303735 -89.18191 
L 175.890511 -88.987907 
L 179.477288 -88.792801 
L 183.064065 -88.580454 
L 186.650842 -88.369975 
L 190.237619 -88.149303 
L 193.824396 -87.928157 
L 197.411173 -87.69985 
L 200.997949 -87.46342 
L 204.584726 -87.246762 
L 208.171503 -87.029438 
L 211.75828 -86.810071 
L 215.345057 -86.59305 
L 218.931834 -86.378471 
L 222.518611 -86.16849 
L 226.105387 -85.96295 
L 229.692164 -85.758333 
L 233.278941 -85.555038 
L 236.865718 -85.354036 
L 240.452495 -85.157255 
L 244.039272 -84.964057 
L 247.626049 -84.767929 
L 251.212825 -84.575334 
L 254.799602 -84.390026 
L 258.386379 -84.205848 
L 261.973156 -84.026805 
L 265.559933 -83.851302 
L 269.14671 -83.676078 
L 272.733487 -83.510629 
L 276.320263 -83.348532 
L 279.90704 -83.191518 
L 283.493817 -83.041328 
L 287.080594 -82.899893 
L 290.667371 -82.762867 
L 294.254148 -82.633346 
L 297.840925 -82.511968 
L 301.427701 -82.398483 
L 305.014478 -82.292924 
L 308.601255 -82.192895 
L 312.188032 -82.099514 
L 315.774809 -82.013797 
L 319.361586 -81.931966 
L 322.948363 -81.850662 
L 326.535139 -81.772935 
L 330.121916 -81.699108 
L 333.708693 -81.626869 
L 337.29547 -81.556233 
L 340.882247 -81.488434 
L 344.469024 -81.421032 
L 348.055801 -81.354051 
L 351.642577 -81.290445 
L 355.229354 -81.228373 
L 358.816131 -81.16813 
L 362.402908 -81.107432 
L 365.989685 -81.0483 
L 369.576462 -80.990939 
L 373.163239 -80.934897 
L 376.750015 -80.879795 
L 380.336792 -80.825847 
L 383.923569 -80.771911 
L 387.510346 -80.719574 
L 391.097123 -80.667435 
L 394.6839 -80.616462 
L 398.270677 -80.564918 
L 401.857454 -80.514675 
L 405.44423 -80.464166 
L 409.031007 -80.412015 
L 412.617784 -80.360271 
L 416.204561 -80.306727 
L 419.791338 -80.25383 
L 423.378115 -80.198609 
L 426.964892 -80.140237 
L 430.551668 -80.079246 
L 434.138445 -80.014191 
L 437.725222 -79.945471 
L 441.311999 -79.864778 
L 444.898776 -79.76823 
L 448.485553 -79.64419 
L 452.07233 -79.406807 
L 452.07233 -97.704429 
L 452.07233 -97.704429 
L 448.485553 -102.733248 
L 444.898776 -106.207911 
L 441.311999 -109.470971 
L 437.725222 -112.62877 
L 434.138445 -115.670233 
L 430.551668 -118.651787 
L 426.964892 -121.568554 
L 423.378115 -124.414031 
L 419.791338 -127.172448 
L 416.204561 -129.851118 
L 412.617784 -132.483601 
L 409.031007 -135.024558 
L 405.44423 -137.521428 
L 401.857454 -139.923815 
L 398.270677 -142.257381 
L 394.6839 -144.549593 
L 391.097123 -146.770181 
L 387.510346 -148.942707 
L 383.923569 -151.064645 
L 380.336792 -153.155998 
L 376.750015 -155.214152 
L 373.163239 -157.239921 
L 369.576462 -159.235459 
L 365.989685 -161.186342 
L 362.402908 -163.135592 
L 358.816131 -165.057611 
L 355.229354 -166.942278 
L 351.642577 -168.824245 
L 348.055801 -170.674734 
L 344.469024 -172.524354 
L 340.882247 -174.345142 
L 337.29547 -176.11546 
L 333.708693 -177.872925 
L 330.121916 -179.56553 
L 326.535139 -181.264086 
L 322.948363 -182.968625 
L 319.361586 -184.648999 
L 315.774809 -186.318296 
L 312.188032 -187.936567 
L 308.601255 -189.600955 
L 305.014478 -191.275961 
L 301.427701 -192.962994 
L 297.840925 -194.695881 
L 294.254148 -196.457474 
L 290.667371 -198.222262 
L 287.080594 -200.007065 
L 283.493817 -201.827329 
L 279.90704 -203.712832 
L 276.320263 -205.658709 
L 272.733487 -207.608205 
L 269.14671 -209.59432 
L 265.559933 -211.652846 
L 261.973156 -213.744154 
L 258.386379 -215.825454 
L 254.799602 -217.949592 
L 251.212825 -220.120426 
L 247.626049 -222.314793 
L 244.039272 -224.480132 
L 240.452495 -226.640778 
L 236.865718 -228.783826 
L 233.278941 -230.893055 
L 229.692164 -233.039925 
L 226.105387 -235.091705 
L 222.518611 -237.210129 
L 218.931834 -239.192252 
L 215.345057 -241.095067 
L 211.75828 -242.899765 
L 208.171503 -244.604627 
L 204.584726 -246.218019 
L 200.997949 -247.704154 
L 197.411173 -249.067721 
L 193.824396 -250.278382 
L 190.237619 -251.387546 
L 186.650842 -252.349027 
L 183.064065 -253.137167 
L 179.477288 -253.762319 
L 175.890511 -254.199081 
L 172.303735 -254.543448 
L 168.716958 -254.653429 
L 165.130181 -254.623633 
L 161.543404 -254.443478 
L 157.956627 -254.092547 
L 154.36985 -253.526086 
L 150.783073 -252.788371 
L 147.196296 -251.891534 
L 143.60952 -250.753595 
L 140.022743 -249.301116 
L 136.435966 -247.562209 
L 132.849189 -245.683597 
L 129.262412 -243.425582 
L 125.675635 -241.019276 
L 122.088858 -238.263021 
L 118.502082 -235.357095 
L 114.915305 -232.679715 
L 111.328528 -230.783923 
L 107.741751 -229.498429 
L 104.154974 -224.07792 
L 100.568197 -211.894328 
L 96.98142 -313.533621 
z
" style="stroke: #fc8d62; stroke-opacity: 0.3"/>
    </defs>
    <g clip-path="url(#p5146ca2c58)">
     <use xlink:href="#m9828bc3893" x="0" y="350.31375" style="fill: #fc8d62; fill-opacity: 0.3; stroke: #fc8d62; stroke-opacity: 0.3"/>
    </g>
   </g>
   <g id="PolyCollection_3">
    <defs>
     <path id="m92de0598ec" d="M 96.98142 -330.513498 
L 96.98142 -330.513498 
L 100.568197 -228.048091 
L 104.154974 -185.640417 
L 107.741751 -162.961626 
L 111.328528 -145.420064 
L 114.915305 -132.001142 
L 118.502082 -124.942841 
L 122.088858 -118.010068 
L 125.675635 -112.625854 
L 129.262412 -109.139652 
L 132.849189 -106.462694 
L 136.435966 -103.923785 
L 140.022743 -102.328423 
L 143.60952 -100.831459 
L 147.196296 -99.378676 
L 150.783073 -98.092622 
L 154.36985 -97.008685 
L 157.956627 -96.094052 
L 161.543404 -95.303017 
L 165.130181 -94.502851 
L 168.716958 -93.820697 
L 172.303735 -93.185887 
L 175.890511 -92.551056 
L 179.477288 -92.005551 
L 183.064065 -91.44861 
L 186.650842 -90.963353 
L 190.237619 -90.497453 
L 193.824396 -90.090324 
L 197.411173 -89.685353 
L 200.997949 -89.293303 
L 204.584726 -88.928028 
L 208.171503 -88.577295 
L 211.75828 -88.251925 
L 215.345057 -87.921856 
L 218.931834 -87.616509 
L 222.518611 -87.323157 
L 226.105387 -87.045823 
L 229.692164 -86.780321 
L 233.278941 -86.516711 
L 236.865718 -86.262503 
L 240.452495 -86.025381 
L 244.039272 -85.79031 
L 247.626049 -85.562277 
L 251.212825 -85.343551 
L 254.799602 -85.127493 
L 258.386379 -84.921802 
L 261.973156 -84.727202 
L 265.559933 -84.533952 
L 269.14671 -84.349805 
L 272.733487 -84.171356 
L 276.320263 -83.997618 
L 279.90704 -83.832059 
L 283.493817 -83.674009 
L 287.080594 -83.516077 
L 290.667371 -83.363488 
L 294.254148 -83.213694 
L 297.840925 -83.070865 
L 301.427701 -82.933033 
L 305.014478 -82.795873 
L 308.601255 -82.661509 
L 312.188032 -82.533938 
L 315.774809 -82.409308 
L 319.361586 -82.284528 
L 322.948363 -82.165815 
L 326.535139 -82.049941 
L 330.121916 -81.934914 
L 333.708693 -81.820718 
L 337.29547 -81.709145 
L 340.882247 -81.600046 
L 344.469024 -81.495983 
L 348.055801 -81.394229 
L 351.642577 -81.292985 
L 355.229354 -81.192711 
L 358.816131 -81.095003 
L 362.402908 -80.997464 
L 365.989685 -80.902608 
L 369.576462 -80.808311 
L 373.163239 -80.716753 
L 376.750015 -80.627224 
L 380.336792 -80.538175 
L 383.923569 -80.450505 
L 387.510346 -80.365374 
L 391.097123 -80.281852 
L 394.6839 -80.200085 
L 398.270677 -80.119463 
L 401.857454 -80.038794 
L 405.44423 -79.960031 
L 409.031007 -79.883043 
L 412.617784 -79.807554 
L 416.204561 -79.730114 
L 419.791338 -79.656384 
L 423.378115 -79.58303 
L 426.964892 -79.512497 
L 430.551668 -79.442547 
L 434.138445 -79.374168 
L 437.725222 -79.30657 
L 441.311999 -79.24079 
L 444.898776 -79.177022 
L 448.485553 -79.117445 
L 452.07233 -79.221544 
L 452.07233 -96.67799 
L 452.07233 -96.67799 
L 448.485553 -152.197133 
L 444.898776 -171.891513 
L 441.311999 -186.612154 
L 437.725222 -198.587151 
L 434.138445 -208.747631 
L 430.551668 -217.410006 
L 426.964892 -224.960386 
L 423.378115 -231.527743 
L 419.791338 -237.420616 
L 416.204561 -242.702925 
L 412.617784 -247.651751 
L 409.031007 -252.025174 
L 405.44423 -256.097297 
L 401.857454 -259.822919 
L 398.270677 -263.325679 
L 394.6839 -266.554555 
L 391.097123 -269.566309 
L 387.510346 -272.381893 
L 383.923569 -274.998199 
L 380.336792 -277.500959 
L 376.750015 -279.813275 
L 373.163239 -282.026009 
L 369.576462 -284.106783 
L 365.989685 -286.073269 
L 362.402908 -287.964207 
L 358.816131 -289.738035 
L 355.229354 -291.443983 
L 351.642577 -293.053983 
L 348.055801 -294.606155 
L 344.469024 -296.085081 
L 340.882247 -297.52585 
L 337.29547 -298.901699 
L 333.708693 -300.182729 
L 330.121916 -301.4434 
L 326.535139 -302.643586 
L 322.948363 -303.809036 
L 319.361586 -304.917489 
L 315.774809 -305.974403 
L 312.188032 -306.992922 
L 308.601255 -307.980681 
L 305.014478 -308.941415 
L 301.427701 -309.873682 
L 297.840925 -310.771193 
L 294.254148 -311.611996 
L 290.667371 -312.430332 
L 287.080594 -313.235143 
L 283.493817 -314.010258 
L 279.90704 -314.748723 
L 276.320263 -315.475692 
L 272.733487 -316.181962 
L 269.14671 -316.856698 
L 265.559933 -317.520586 
L 261.973156 -318.168803 
L 258.386379 -318.76752 
L 254.799602 -319.355705 
L 251.212825 -319.934898 
L 247.626049 -320.497885 
L 244.039272 -321.051767 
L 240.452495 -321.551689 
L 236.865718 -322.057523 
L 233.278941 -322.515331 
L 229.692164 -322.95298 
L 226.105387 -323.385561 
L 222.518611 -323.816566 
L 218.931834 -324.21062 
L 215.345057 -324.609203 
L 211.75828 -324.986979 
L 208.171503 -325.335491 
L 204.584726 -325.67998 
L 200.997949 -325.985416 
L 197.411173 -326.288378 
L 193.824396 -326.590963 
L 190.237619 -326.90942 
L 186.650842 -327.17588 
L 183.064065 -327.4498 
L 179.477288 -327.643234 
L 175.890511 -327.899464 
L 172.303735 -328.103154 
L 168.716958 -328.33204 
L 165.130181 -328.549215 
L 161.543404 -328.752336 
L 157.956627 -328.976124 
L 154.36985 -329.173123 
L 150.783073 -329.323149 
L 147.196296 -329.458631 
L 143.60952 -329.585516 
L 140.022743 -329.741613 
L 136.435966 -329.895927 
L 132.849189 -329.971879 
L 129.262412 -330.084232 
L 125.675635 -330.167205 
L 122.088858 -330.199298 
L 118.502082 -330.234876 
L 114.915305 -330.316575 
L 111.328528 -330.328017 
L 107.741751 -330.343947 
L 104.154974 -330.383586 
L 100.568197 -330.396559 
L 96.98142 -330.513498 
z
" style="stroke: #a6d854; stroke-opacity: 0.3"/>
    </defs>
    <g clip-path="url(#p5146ca2c58)">
     <use xlink:href="#m92de0598ec" x="0" y="350.31375" style="fill: #a6d854; fill-opacity: 0.3; stroke: #a6d854; stroke-opacity: 0.3"/>
    </g>
   </g>
   <g id="PolyCollection_4">
    <defs>
     <path id="m31c2d1a736" d="M 96.98142 -313.533621 
L 96.98142 -78.51375 
L 100.568197 -99.600454 
L 104.154974 -96.722383 
L 107.741751 -95.239973 
L 111.328528 -94.24914 
L 114.915305 -93.377659 
L 118.502082 -92.594735 
L 122.088858 -91.988138 
L 125.675635 -91.436127 
L 129.262412 -90.949465 
L 132.849189 -90.494374 
L 136.435966 -90.061195 
L 140.022743 -89.648144 
L 143.60952 -89.276277 
L 147.196296 -88.9063 
L 150.783073 -88.564536 
L 154.36985 -88.247962 
L 157.956627 -87.925435 
L 161.543404 -87.651366 
L 165.130181 -87.364426 
L 168.716958 -87.101147 
L 172.303735 -86.852424 
L 175.890511 -86.617646 
L 179.477288 -86.394142 
L 183.064065 -86.171909 
L 186.650842 -85.963482 
L 190.237619 -85.768232 
L 193.824396 -85.575694 
L 197.411173 -85.403656 
L 200.997949 -85.230426 
L 204.584726 -85.065096 
L 208.171503 -84.902084 
L 211.75828 -84.749742 
L 215.345057 -84.602692 
L 218.931834 -84.455896 
L 222.518611 -84.317155 
L 226.105387 -84.184857 
L 229.692164 -84.050799 
L 233.278941 -83.922521 
L 236.865718 -83.803169 
L 240.452495 -83.680501 
L 244.039272 -83.562044 
L 247.626049 -83.449842 
L 251.212825 -83.342002 
L 254.799602 -83.23454 
L 258.386379 -83.129491 
L 261.973156 -83.025828 
L 265.559933 -82.927526 
L 269.14671 -82.832269 
L 272.733487 -82.742747 
L 276.320263 -82.65132 
L 279.90704 -82.559855 
L 283.493817 -82.473743 
L 287.080594 -82.386089 
L 290.667371 -82.303999 
L 294.254148 -82.219769 
L 297.840925 -82.139631 
L 301.427701 -82.06379 
L 305.014478 -81.986911 
L 308.601255 -81.9121 
L 312.188032 -81.838168 
L 315.774809 -81.766227 
L 319.361586 -81.694385 
L 322.948363 -81.62645 
L 326.535139 -81.557466 
L 330.121916 -81.489361 
L 333.708693 -81.42474 
L 337.29547 -81.359032 
L 340.882247 -81.294684 
L 344.469024 -81.232369 
L 348.055801 -81.170153 
L 351.642577 -81.111792 
L 355.229354 -81.05117 
L 358.816131 -80.99178 
L 362.402908 -80.933055 
L 365.989685 -80.873093 
L 369.576462 -80.818015 
L 373.163239 -80.762072 
L 376.750015 -80.706777 
L 380.336792 -80.651226 
L 383.923569 -80.596047 
L 387.510346 -80.542919 
L 391.097123 -80.489939 
L 394.6839 -80.436251 
L 398.270677 -80.384618 
L 401.857454 -80.333662 
L 405.44423 -80.280343 
L 409.031007 -80.228188 
L 412.617784 -80.174652 
L 416.204561 -80.122414 
L 419.791338 -80.069449 
L 423.378115 -80.014587 
L 426.964892 -79.959386 
L 430.551668 -79.902964 
L 434.138445 -79.845768 
L 437.725222 -79.785185 
L 441.311999 -79.721532 
L 444.898776 -79.650107 
L 448.485553 -79.56521 
L 452.07233 -79.406807 
L 452.07233 -97.704429 
L 452.07233 -97.704429 
L 448.485553 -102.317261 
L 444.898776 -104.739133 
L 441.311999 -106.718182 
L 437.725222 -108.451716 
L 434.138445 -110.066599 
L 430.551668 -111.563682 
L 426.964892 -113.001152 
L 423.378115 -114.380176 
L 419.791338 -115.730061 
L 416.204561 -117.031838 
L 412.617784 -118.308748 
L 409.031007 -119.5512 
L 405.44423 -120.785466 
L 401.857454 -122.018717 
L 398.270677 -123.212 
L 394.6839 -124.409236 
L 391.097123 -125.585083 
L 387.510346 -126.770039 
L 383.923569 -127.944676 
L 380.336792 -129.151566 
L 376.750015 -130.318818 
L 373.163239 -131.484488 
L 369.576462 -132.653557 
L 365.989685 -133.818074 
L 362.402908 -135.008116 
L 358.816131 -136.215667 
L 355.229354 -137.38705 
L 351.642577 -138.576717 
L 348.055801 -139.768097 
L 344.469024 -140.923634 
L 340.882247 -142.081498 
L 337.29547 -143.304442 
L 333.708693 -144.501734 
L 330.121916 -145.680196 
L 326.535139 -146.907203 
L 322.948363 -148.140575 
L 319.361586 -149.377382 
L 315.774809 -150.604389 
L 312.188032 -151.842465 
L 308.601255 -153.084578 
L 305.014478 -154.331155 
L 301.427701 -155.573201 
L 297.840925 -156.872697 
L 294.254148 -158.16434 
L 290.667371 -159.439826 
L 287.080594 -160.727978 
L 283.493817 -162.054362 
L 279.90704 -163.34216 
L 276.320263 -164.694212 
L 272.733487 -166.033004 
L 269.14671 -167.30817 
L 265.559933 -168.663181 
L 261.973156 -170.001769 
L 258.386379 -171.385021 
L 254.799602 -172.744177 
L 251.212825 -174.153875 
L 247.626049 -175.50796 
L 244.039272 -176.955684 
L 240.452495 -178.306914 
L 236.865718 -179.766631 
L 233.278941 -181.198991 
L 229.692164 -182.583297 
L 226.105387 -184.038564 
L 222.518611 -185.479799 
L 218.931834 -186.941345 
L 215.345057 -188.411357 
L 211.75828 -189.797443 
L 208.171503 -191.243377 
L 204.584726 -192.731449 
L 200.997949 -194.19682 
L 197.411173 -195.673682 
L 193.824396 -197.159349 
L 190.237619 -198.61669 
L 186.650842 -199.939976 
L 183.064065 -201.393481 
L 179.477288 -202.896171 
L 175.890511 -204.291273 
L 172.303735 -205.690521 
L 168.716958 -207.045112 
L 165.130181 -208.595602 
L 161.543404 -209.943164 
L 157.956627 -211.296794 
L 154.36985 -212.798737 
L 150.783073 -214.159802 
L 147.196296 -215.580122 
L 143.60952 -216.831849 
L 140.022743 -217.964792 
L 136.435966 -219.334015 
L 132.849189 -220.465338 
L 129.262412 -221.64238 
L 125.675635 -222.46515 
L 122.088858 -223.108134 
L 118.502082 -223.302052 
L 114.915305 -223.321132 
L 111.328528 -222.311854 
L 107.741751 -220.456573 
L 104.154974 -216.508096 
L 100.568197 -209.33666 
L 96.98142 -313.533621 
z
" style="stroke: #e78ac3; stroke-opacity: 0.3"/>
    </defs>
    <g clip-path="url(#p5146ca2c58)">
     <use xlink:href="#m31c2d1a736" x="0" y="350.31375" style="fill: #e78ac3; fill-opacity: 0.3; stroke: #e78ac3; stroke-opacity: 0.3"/>
    </g>
   </g>
   <g id="line2d_1">
    <path d="M 96.98142 19.800252 
L 100.568197 19.80127 
L 104.154974 19.803985 
L 107.741751 19.811983 
L 111.328528 19.814984 
L 114.915305 19.815836 
L 118.502082 19.816464 
L 122.088858 19.816595 
L 125.675635 19.81768 
L 129.262412 19.818608 
L 132.849189 19.818806 
L 136.435966 19.819024 
L 140.022743 19.819386 
L 143.60952 19.822321 
L 147.196296 19.836215 
L 150.783073 19.83625 
L 154.36985 19.84049 
L 157.956627 19.846859 
L 161.543404 19.853922 
L 165.130181 19.857727 
L 168.716958 19.865334 
L 172.303735 19.872591 
L 175.890511 19.880025 
L 179.477288 19.882729 
L 183.064065 19.886237 
L 186.650842 19.895138 
L 190.237619 19.904717 
L 193.824396 19.911762 
L 197.411173 19.920033 
L 200.997949 19.931366 
L 204.584726 19.940423 
L 208.171503 19.950373 
L 211.75828 19.960236 
L 215.345057 19.973851 
L 218.931834 19.987858 
L 222.518611 19.998739 
L 226.105387 20.013055 
L 229.692164 20.029818 
L 233.278941 20.051626 
L 236.865718 20.074074 
L 240.452495 20.104377 
L 244.039272 20.131313 
L 247.626049 20.15671 
L 251.212825 20.191755 
L 254.799602 20.221493 
L 258.386379 20.255301 
L 261.973156 20.28593 
L 265.559933 20.318906 
L 269.14671 20.357609 
L 272.733487 20.399166 
L 276.320263 20.446329 
L 279.90704 20.490627 
L 283.493817 20.53979 
L 287.080594 20.584381 
L 290.667371 20.636828 
L 294.254148 20.69101 
L 297.840925 20.75282 
L 301.427701 20.808053 
L 305.014478 20.882003 
L 308.601255 20.959359 
L 312.188032 21.032701 
L 315.774809 21.107315 
L 319.361586 21.205583 
L 322.948363 21.30678 
L 326.535139 21.415189 
L 330.121916 21.533985 
L 333.708693 21.687467 
L 337.29547 21.858353 
L 340.882247 22.043448 
L 344.469024 22.229232 
L 348.055801 22.431022 
L 351.642577 22.65736 
L 355.229354 22.889059 
L 358.816131 23.133472 
L 362.402908 23.426589 
L 365.989685 23.775923 
L 369.576462 24.157542 
L 373.163239 24.547848 
L 376.750015 24.99885 
L 380.336792 25.488061 
L 383.923569 26.081952 
L 387.510346 26.764798 
L 391.097123 27.535065 
L 394.6839 28.446859 
L 398.270677 29.598997 
L 401.857454 31.030203 
L 405.44423 32.805161 
L 409.031007 34.746527 
L 412.617784 36.834023 
L 416.204561 39.228306 
L 419.791338 41.832532 
L 423.378115 44.855335 
L 426.964892 48.671856 
L 430.551668 53.519981 
L 434.138445 59.800122 
L 437.725222 68.120344 
L 441.311999 80.610524 
L 444.898776 103.849967 
L 448.485553 155.749592 
L 452.07233 267.557882 
" clip-path="url(#p5146ca2c58)" style="fill: none; stroke: #66c2a5; stroke-width: 1.75; stroke-linecap: round"/>
   </g>
   <g id="line2d_2">
    <path d="M 96.98142 271.774803 
L 100.568197 231.768313 
L 104.154974 220.950661 
L 107.741751 215.047011 
L 111.328528 213.309894 
L 114.915305 212.738142 
L 118.502082 212.449581 
L 122.088858 212.094637 
L 125.675635 211.620141 
L 129.262412 211.167137 
L 132.849189 210.66537 
L 136.435966 210.22524 
L 140.022743 209.827602 
L 143.60952 209.524002 
L 147.196296 209.337248 
L 150.783073 209.253603 
L 154.36985 209.277831 
L 157.956627 209.385013 
L 161.543404 209.571766 
L 165.130181 209.847311 
L 168.716958 210.227236 
L 172.303735 210.702856 
L 175.890511 211.294191 
L 179.477288 211.931126 
L 183.064065 212.690932 
L 186.650842 213.51617 
L 190.237619 214.436814 
L 193.824396 215.416359 
L 197.411173 216.44989 
L 200.997949 217.557872 
L 204.584726 218.656564 
L 208.171503 219.794842 
L 211.75828 220.960604 
L 215.345057 222.143786 
L 218.931834 223.341342 
L 222.518611 224.539426 
L 226.105387 225.754905 
L 229.692164 226.931315 
L 233.278941 228.118656 
L 236.865718 229.273995 
L 240.452495 230.414039 
L 244.039272 231.535774 
L 247.626049 232.653544 
L 251.212825 233.756845 
L 254.799602 234.821928 
L 258.386379 235.860884 
L 261.973156 236.864962 
L 265.559933 237.852086 
L 269.14671 238.821892 
L 272.733487 239.739551 
L 276.320263 240.632354 
L 279.90704 241.503058 
L 283.493817 242.334967 
L 287.080594 243.122213 
L 290.667371 243.884231 
L 294.254148 244.615224 
L 297.840925 245.316501 
L 301.427701 245.983907 
L 305.014478 246.614352 
L 308.601255 247.221509 
L 312.188032 247.802244 
L 315.774809 248.347312 
L 319.361586 248.885165 
L 322.948363 249.419143 
L 326.535139 249.941936 
L 330.121916 250.447536 
L 333.708693 250.943246 
L 337.29547 251.440229 
L 340.882247 251.926245 
L 344.469024 252.414611 
L 348.055801 252.901776 
L 351.642577 253.374338 
L 355.229354 253.842591 
L 358.816131 254.301418 
L 362.402908 254.762896 
L 365.989685 255.219244 
L 369.576462 255.666289 
L 373.163239 256.111392 
L 376.750015 256.55369 
L 380.336792 256.992797 
L 383.923569 257.432276 
L 387.510346 257.866966 
L 391.097123 258.303678 
L 394.6839 258.739145 
L 398.270677 259.181459 
L 401.857454 259.621225 
L 405.44423 260.066487 
L 409.031007 260.524279 
L 412.617784 260.982435 
L 416.204561 261.453026 
L 419.791338 261.923713 
L 423.378115 262.406872 
L 426.964892 262.905521 
L 430.551668 263.416281 
L 434.138445 263.94213 
L 437.725222 264.481428 
L 441.311999 265.061376 
L 444.898776 265.688781 
L 448.485553 266.402149 
L 452.07233 267.557882 
" clip-path="url(#p5146ca2c58)" style="fill: none; stroke: #fc8d62; stroke-width: 1.75; stroke-linecap: round"/>
   </g>
   <g id="line2d_3">
    <path d="M 96.98142 19.800252 
L 100.568197 24.220599 
L 104.154974 26.2904 
L 107.741751 28.69199 
L 111.328528 30.691289 
L 114.915305 32.690248 
L 118.502082 36.294196 
L 122.088858 38.895484 
L 125.675635 41.407711 
L 129.262412 44.995938 
L 132.849189 49.073697 
L 136.435966 52.295686 
L 140.022743 56.710796 
L 143.60952 60.931965 
L 147.196296 64.531999 
L 150.783073 68.144881 
L 154.36985 71.77724 
L 157.956627 75.860804 
L 161.543404 80.023041 
L 165.130181 83.817698 
L 168.716958 87.519556 
L 172.303735 91.187795 
L 175.890511 94.529219 
L 179.477288 98.164909 
L 183.064065 101.178284 
L 186.650842 104.715468 
L 190.237619 108.067393 
L 193.824396 111.60297 
L 197.411173 114.919442 
L 200.997949 118.132239 
L 204.584726 121.221836 
L 208.171503 124.44806 
L 211.75828 127.543338 
L 215.345057 130.746329 
L 218.931834 133.897373 
L 222.518611 136.90721 
L 226.105387 139.960155 
L 229.692164 142.898153 
L 233.278941 145.781531 
L 236.865718 148.643079 
L 240.452495 151.544692 
L 244.039272 154.342091 
L 247.626049 157.220072 
L 251.212825 160.00791 
L 254.799602 162.760106 
L 258.386379 165.419595 
L 261.973156 167.98778 
L 265.559933 170.610549 
L 269.14671 173.155966 
L 272.733487 175.630876 
L 276.320263 178.085694 
L 279.90704 180.474771 
L 283.493817 182.78275 
L 287.080594 185.097991 
L 290.667371 187.374098 
L 294.254148 189.597632 
L 297.840925 191.758621 
L 301.427701 193.91644 
L 305.014478 196.060233 
L 308.601255 198.166729 
L 312.188032 200.207607 
L 315.774809 202.211046 
L 319.361586 204.204921 
L 322.948363 206.159421 
L 326.535139 208.097011 
L 330.121916 210.006909 
L 333.708693 211.911282 
L 337.29547 213.761501 
L 340.882247 215.617345 
L 344.469024 217.430991 
L 348.055801 219.200528 
L 351.642577 220.962013 
L 355.229354 222.699772 
L 358.816131 224.422222 
L 362.402908 226.127766 
L 365.989685 227.820419 
L 369.576462 229.491366 
L 373.163239 231.139405 
L 376.750015 232.772864 
L 380.336792 234.386617 
L 383.923569 236.00411 
L 387.510346 237.582606 
L 391.097123 239.154224 
L 394.6839 240.710076 
L 398.270677 242.255069 
L 401.857454 243.807026 
L 405.44423 245.330375 
L 409.031007 246.847787 
L 412.617784 248.343483 
L 416.204561 249.888355 
L 419.791338 251.380092 
L 423.378115 252.882764 
L 426.964892 254.371177 
L 430.551668 255.887384 
L 434.138445 257.416253 
L 437.725222 258.980971 
L 441.311999 260.574795 
L 444.898776 262.244152 
L 448.485553 264.104281 
L 452.07233 268.126833 
" clip-path="url(#p5146ca2c58)" style="fill: none; stroke: #a6d854; stroke-width: 1.75; stroke-linecap: round"/>
   </g>
   <g id="line2d_4">
    <path d="M 96.98142 271.774803 
L 100.568197 211.582734 
L 104.154974 212.602377 
L 107.741751 213.229139 
L 111.328528 214.018464 
L 114.915305 214.998776 
L 118.502082 216.258419 
L 122.088858 217.327549 
L 125.675635 218.483473 
L 129.262412 219.604218 
L 132.849189 220.798062 
L 136.435966 221.944788 
L 140.022743 223.136676 
L 143.60952 224.181994 
L 147.196296 225.26448 
L 150.783073 226.346377 
L 154.36985 227.36238 
L 157.956627 228.430961 
L 161.543404 229.36041 
L 165.130181 230.313579 
L 168.716958 231.273318 
L 172.303735 232.148427 
L 175.890511 233.005053 
L 179.477288 233.835133 
L 183.064065 234.68771 
L 186.650842 235.495846 
L 190.237619 236.241345 
L 193.824396 237.011275 
L 197.411173 237.740106 
L 200.997949 238.466199 
L 204.584726 239.169013 
L 208.171503 239.868658 
L 211.75828 240.531849 
L 215.345057 241.167083 
L 218.931834 241.817086 
L 222.518611 242.443839 
L 226.105387 243.048526 
L 229.692164 243.657191 
L 233.278941 244.235242 
L 236.865718 244.799553 
L 240.452495 245.374117 
L 244.039272 245.914932 
L 247.626049 246.457156 
L 251.212825 246.968596 
L 254.799602 247.487142 
L 258.386379 247.988098 
L 261.973156 248.487829 
L 265.559933 248.964351 
L 269.14671 249.434288 
L 272.733487 249.874192 
L 276.320263 250.327772 
L 279.90704 250.781589 
L 283.493817 251.209419 
L 287.080594 251.645561 
L 290.667371 252.05983 
L 294.254148 252.475388 
L 297.840925 252.881789 
L 301.427701 253.277093 
L 305.014478 253.663976 
L 308.601255 254.044861 
L 312.188032 254.421262 
L 315.774809 254.790534 
L 319.361586 255.156313 
L 322.948363 255.512385 
L 326.535139 255.869012 
L 330.121916 256.22102 
L 333.708693 256.555767 
L 337.29547 256.89464 
L 340.882247 257.23248 
L 344.469024 257.554527 
L 348.055801 257.874769 
L 351.642577 258.189198 
L 355.229354 258.507764 
L 358.816131 258.819454 
L 362.402908 259.133234 
L 365.989685 259.446471 
L 369.576462 259.742773 
L 373.163239 260.040707 
L 376.750015 260.335415 
L 380.336792 260.629851 
L 383.923569 260.927429 
L 387.510346 261.21447 
L 391.097123 261.501367 
L 394.6839 261.787775 
L 398.270677 262.070647 
L 401.857454 262.350212 
L 405.44423 262.639658 
L 409.031007 262.925163 
L 412.617784 263.214023 
L 416.204561 263.50273 
L 419.791338 263.795127 
L 423.378115 264.096917 
L 426.964892 264.401797 
L 430.551668 264.715428 
L 434.138445 265.036707 
L 437.725222 265.37889 
L 441.311999 265.740997 
L 444.898776 266.14916 
L 448.485553 266.639582 
L 452.07233 267.557882 
" clip-path="url(#p5146ca2c58)" style="fill: none; stroke: #e78ac3; stroke-width: 1.75; stroke-linecap: round"/>
   </g>
   <g id="patch_3">
    <path d="M 79.226875 284.4 
L 79.226875 7.2 
" style="fill: none; stroke: #262626; stroke-width: 0.8; stroke-linejoin: miter; stroke-linecap: square"/>
   </g>
   <g id="patch_4">
    <path d="M 79.226875 284.4 
L 469.826875 284.4 
" style="fill: none; stroke: #262626; stroke-width: 0.8; stroke-linejoin: miter; stroke-linecap: square"/>
   </g>
  </g>
 </g>
 <defs>
  <clipPath id="p5146ca2c58">
   <rect x="79.226875" y="7.2" width="390.6" height="277.2"/>
  </clipPath>
 </defs>
</svg>
