<?xml version="1.0" encoding="utf-8" standalone="no"?>
<!DOCTYPE svg PUBLIC "-//W3C//DTD SVG 1.1//EN"
  "http://www.w3.org/Graphics/SVG/1.1/DTD/svg11.dtd">
<svg xmlns:xlink="http://www.w3.org/1999/xlink" width="1609.11375pt" height="395.85625pt" viewBox="0 0 1609.11375 395.85625" xmlns="http://www.w3.org/2000/svg" version="1.1">
 <metadata>
  <rdf:RDF xmlns:dc="http://purl.org/dc/elements/1.1/" xmlns:cc="http://creativecommons.org/ns#" xmlns:rdf="http://www.w3.org/1999/02/22-rdf-syntax-ns#">
   <cc:Work>
    <dc:type rdf:resource="http://purl.org/dc/dcmitype/StillImage"/>
    <dc:date>2026-08-17T17:46:40.471888</dc:date>
    <dc:format>image/svg+xml</dc:format>
    <dc:creator>
     <cc:Agent>
      <dc:title>Matplotlib v3.9.2, https://matplotlib.org/</dc:title>
     </cc:Agent>
    </dc:creator>
   </cc:Work>
  </rdf:RDF>
 </metadata>
 <defs>
  <style type="text/css">*{stroke-linejoin: round; stroke-linecap: butt}</style>
 </defs>
 <g id="figure_1">
  <g id="patch_1">
   <path d="M 0 395.85625 
L 1609.11375 395.85625 
L 1609.11375 0 
L 0 0 
z
" style="fill: #ffffff"/>
  </g>
  <g id="axes_1">
   <g id="patch_2">
    <path d="M 609.256875 284.4 
L 999.856875 284.4 
L 999.856875 7.2 
L 609.256875 7.2 
z
" style="fill: #ffffff"/>
   </g>
   <g id="matplotlib.axis_1">
    <g id="xtick_1">
     <g id="text_1">
      <!-- 0.0 -->
      <g style="fill: #262626" transform="translate(607.55142 307.941875) scale(0.28 -0.28)">
       <defs>
        <path id="ArialMT-30" d="M 266 2259 
Q 266 3072 433 3567 
Q 600 4063 929 4331 
Q 1259 4600 1759 4600 
Q 2128 4600 2406 4451 
Q 2684 4303 2865 4023 
Q 3047 3744 3150 3342 
Q 3253 2941 3253 2259 
Q 3253 1453 3087 958 
Q 2922 463 2592 192 
Q 2263 -78 1759 -78 
Q 1097 -78 719 397 
Q 266 969 266 2259 
z
M 844 2259 
Q 844 1131 1108 757 
Q 1372 384 1759 384 
Q 2147 384 2411 759 
Q 2675 1134 2675 2259 
Q 2675 3391 2411 3762 
Q 2147 4134 1753 4134 
Q 1366 4134 1134 3806 
Q 844 3388 844 2259 
z
" transform="scale(0.015625)"/>
        <path id="ArialMT-2e" d="M 581 0 
L 581 641 
L 1222 641 
L 1222 0 
L 581 0 
z
" transform="scale(0.015625)"/>
       </defs>
       <use xlink:href="#ArialMT-30"/>
       <use xlink:href="#ArialMT-2e" x="55.615234"/>
       <use xlink:href="#ArialMT-30" x="83.398438"/>
      </g>
     </g>
    </g>
    <g id="xtick_2">
     <g id="text_2">
      <!-- 0.5 -->
      <g style="fill: #262626" transform="translate(785.096875 307.941875) scale(0.28 -0.28)">
       <defs>
        <path id="ArialMT-35" d="M 266 1200 
L 856 1250 
Q 922 819 1161 601 
Q 1400 384 1738 384 
Q 2144 384 2425 690 
Q 2706 997 2706 1503 
Q 2706 1984 2436 2262 
Q 2166 2541 1728 2541 
Q 1456 2541 1237 2417 
Q 1019 2294 894 2097 
L 366 2166 
L 809 4519 
L 3088 4519 
L 3088 3981 
L 1259 3981 
L 1013 2750 
Q 1425 3038 1878 3038 
Q 2478 3038 2890 2622 
Q 3303 2206 3303 1553 
Q 3303 931 2941 478 
Q 2500 -78 1738 -78 
Q 1113 -78 717 272 
Q 322 622 266 1200 
z
" transform="scale(0.015625)"/>
       </defs>
       <use xlink:href="#ArialMT-30"/>
       <use xlink:href="#ArialMT-2e" x="55.615234"/>
       <use xlink:href="#ArialMT-35" x="83.398438"/>
      </g>
     </g>
    </g>
    <g id="xtick_3">
     <g id="text_3">
      <!-- 1.0 -->
      <g style="fill: #262626" transform="translate(962.64233 307.941875) scale(0.28 -0.28)">
       <defs>
        <path id="ArialMT-31" d="M 2384 0 
L 1822 0 
L 1822 3584 
Q 1619 3391 1289 3197 
Q 959 3003 697 2906 
L 697 3450 
Q 1169 3672 1522 3987 
Q 1875 4303 2022 4600 
L 2384 4600 
L 2384 0 
z
" transform="scale(0.015625)"/>
       </defs>
       <use xlink:href="#ArialMT-31"/>
       <use xlink:href="#ArialMT-2e" x="55.615234"/>
       <use xlink:href="#ArialMT-30" x="83.398438"/>
      </g>
     </g>
    </g>
    <g id="text_4">
     <!-- Recall -->
     <g style="fill: #262626" transform="translate(765.654375 337.54875) scale(0.28 -0.28)">
      <defs>
       <path id="ArialMT-52" d="M 503 0 
L 503 4581 
L 2534 4581 
Q 3147 4581 3465 4457 
Q 3784 4334 3975 4021 
Q 4166 3709 4166 3331 
Q 4166 2844 3850 2509 
Q 3534 2175 2875 2084 
Q 3116 1969 3241 1856 
Q 3506 1613 3744 1247 
L 4541 0 
L 3778 0 
L 3172 953 
Q 2906 1366 2734 1584 
Q 2563 1803 2427 1890 
Q 2291 1978 2150 2013 
Q 2047 2034 1813 2034 
L 1109 2034 
L 1109 0 
L 503 0 
z
M 1109 2559 
L 2413 2559 
Q 2828 2559 3062 2645 
Q 3297 2731 3419 2920 
Q 3541 3109 3541 3331 
Q 3541 3656 3305 3865 
Q 3069 4075 2559 4075 
L 1109 4075 
L 1109 2559 
z
" transform="scale(0.015625)"/>
       <path id="ArialMT-65" d="M 2694 1069 
L 3275 997 
Q 3138 488 2766 206 
Q 2394 -75 1816 -75 
Q 1088 -75 661 373 
Q 234 822 234 1631 
Q 234 2469 665 2931 
Q 1097 3394 1784 3394 
Q 2450 3394 2872 2941 
Q 3294 2488 3294 1666 
Q 3294 1616 3291 1516 
L 816 1516 
Q 847 969 1125 678 
Q 1403 388 1819 388 
Q 2128 388 2347 550 
Q 2566 713 2694 1069 
z
M 847 1978 
L 2700 1978 
Q 2663 2397 2488 2606 
Q 2219 2931 1791 2931 
Q 1403 2931 1139 2672 
Q 875 2413 847 1978 
z
" transform="scale(0.015625)"/>
       <path id="ArialMT-63" d="M 2588 1216 
L 3141 1144 
Q 3050 572 2676 248 
Q 2303 -75 1759 -75 
Q 1078 -75 664 370 
Q 250 816 250 1647 
Q 250 2184 428 2587 
Q 606 2991 970 3192 
Q 1334 3394 1763 3394 
Q 2303 3394 2647 3120 
Q 2991 2847 3088 2344 
L 2541 2259 
Q 2463 2594 2264 2762 
Q 2066 2931 1784 2931 
Q 1359 2931 1093 2626 
Q 828 2322 828 1663 
Q 828 994 1084 691 
Q 1341 388 1753 388 
Q 2084 388 2306 591 
Q 2528 794 2588 1216 
z
" transform="scale(0.015625)"/>
       <path id="ArialMT-61" d="M 2588 409 
Q 2275 144 1986 34 
Q 1697 -75 1366 -75 
Q 819 -75 525 192 
Q 231 459 231 875 
Q 231 1119 342 1320 
Q 453 1522 633 1644 
Q 813 1766 1038 1828 
Q 1203 1872 1538 1913 
Q 2219 1994 2541 2106 
Q 2544 2222 2544 2253 
Q 2544 2597 2384 2738 
Q 2169 2928 1744 2928 
Q 1347 2928 1158 2789 
Q 969 2650 878 2297 
L 328 2372 
Q 403 2725 575 2942 
Q 747 3159 1072 3276 
Q 1397 3394 1825 3394 
Q 2250 3394 2515 3294 
Q 2781 3194 2906 3042 
Q 3031 2891 3081 2659 
Q 3109 2516 3109 2141 
L 3109 1391 
Q 3109 606 3145 398 
Q 3181 191 3288 0 
L 2700 0 
Q 2613 175 2588 409 
z
M 2541 1666 
Q 2234 1541 1622 1453 
Q 1275 1403 1131 1340 
Q 988 1278 909 1158 
Q 831 1038 831 891 
Q 831 666 1001 516 
Q 1172 366 1500 366 
Q 1825 366 2078 508 
Q 2331 650 2450 897 
Q 2541 1088 2541 1459 
L 2541 1666 
z
" transform="scale(0.015625)"/>
       <path id="ArialMT-6c" d="M 409 0 
L 409 4581 
L 972 4581 
L 972 0 
L 409 0 
z
" transform="scale(0.015625)"/>
      </defs>
      <use xlink:href="#ArialMT-52"/>
      <use xlink:href="#ArialMT-65" x="72.216797"/>
      <use xlink:href="#ArialMT-63" x="127.832031"/>
      <use xlink:href="#ArialMT-61" x="177.832031"/>
      <use xlink:href="#ArialMT-6c" x="233.447266"/>
      <use xlink:href="#ArialMT-6c" x="255.664062"/>
     </g>
    </g>
   </g>
   <g id="matplotlib.axis_2">
    <g id="ytick_1">
     <g id="text_5">
      <!-- 0.0 -->
      <g style="fill: #262626" transform="translate(566.836875 281.820938) scale(0.28 -0.28)">
       <use xlink:href="#ArialMT-30"/>
       <use xlink:href="#ArialMT-2e" x="55.615234"/>
       <use xlink:href="#ArialMT-30" x="83.398438"/>
      </g>
     </g>
    </g>
    <g id="ytick_2">
     <g id="text_6">
      <!-- 0.5 -->
      <g style="fill: #262626" transform="translate(566.836875 155.820938) scale(0.28 -0.28)">
       <use xlink:href="#ArialMT-30"/>
       <use xlink:href="#ArialMT-2e" x="55.615234"/>
       <use xlink:href="#ArialMT-35" x="83.398438"/>
      </g>
     </g>
    </g>
    <g id="ytick_3">
     <g id="text_7">
      <!-- 1.0 -->
      <g style="fill: #262626" transform="translate(566.836875 29.820938) scale(0.28 -0.28)">
       <use xlink:href="#ArialMT-31"/>
       <use xlink:href="#ArialMT-2e" x="55.615234"/>
       <use xlink:href="#ArialMT-30" x="83.398438"/>
      </g>
     </g>
    </g>
    <g id="text_8">
     <!-- False Discovery Rate -->
     <g style="fill: #262626" transform="translate(556.94375 278.835) rotate(-90) scale(0.28 -0.28)">
      <defs>
       <path id="ArialMT-46" d="M 525 0 
L 525 4581 
L 3616 4581 
L 3616 4041 
L 1131 4041 
L 1131 2622 
L 3281 2622 
L 3281 2081 
L 1131 2081 
L 1131 0 
L 525 0 
z
" transform="scale(0.015625)"/>
       <path id="ArialMT-73" d="M 197 991 
L 753 1078 
Q 800 744 1014 566 
Q 1228 388 1613 388 
Q 2000 388 2187 545 
Q 2375 703 2375 916 
Q 2375 1106 2209 1216 
Q 2094 1291 1634 1406 
Q 1016 1563 777 1677 
Q 538 1791 414 1992 
Q 291 2194 291 2438 
Q 291 2659 392 2848 
Q 494 3038 669 3163 
Q 800 3259 1026 3326 
Q 1253 3394 1513 3394 
Q 1903 3394 2198 3281 
Q 2494 3169 2634 2976 
Q 2775 2784 2828 2463 
L 2278 2388 
Q 2241 2644 2061 2787 
Q 1881 2931 1553 2931 
Q 1166 2931 1000 2803 
Q 834 2675 834 2503 
Q 834 2394 903 2306 
Q 972 2216 1119 2156 
Q 1203 2125 1616 2013 
Q 2213 1853 2448 1751 
Q 2684 1650 2818 1456 
Q 2953 1263 2953 975 
Q 2953 694 2789 445 
Q 2625 197 2315 61 
Q 2006 -75 1616 -75 
Q 969 -75 630 194 
Q 291 463 197 991 
z
" transform="scale(0.015625)"/>
       <path id="ArialMT-20" transform="scale(0.015625)"/>
       <path id="ArialMT-44" d="M 494 0 
L 494 4581 
L 2072 4581 
Q 2606 4581 2888 4516 
Q 3281 4425 3559 4188 
Q 3922 3881 4101 3404 
Q 4281 2928 4281 2316 
Q 4281 1794 4159 1391 
Q 4038 988 3847 723 
Q 3656 459 3429 307 
Q 3203 156 2883 78 
Q 2563 0 2147 0 
L 494 0 
z
M 1100 541 
L 2078 541 
Q 2531 541 2789 625 
Q 3047 709 3200 863 
Q 3416 1078 3536 1442 
Q 3656 1806 3656 2325 
Q 3656 3044 3420 3430 
Q 3184 3816 2847 3947 
Q 2603 4041 2063 4041 
L 1100 4041 
L 1100 541 
z
" transform="scale(0.015625)"/>
       <path id="ArialMT-69" d="M 425 3934 
L 425 4581 
L 988 4581 
L 988 3934 
L 425 3934 
z
M 425 0 
L 425 3319 
L 988 3319 
L 988 0 
L 425 0 
z
" transform="scale(0.015625)"/>
       <path id="ArialMT-6f" d="M 213 1659 
Q 213 2581 725 3025 
Q 1153 3394 1769 3394 
Q 2453 3394 2887 2945 
Q 3322 2497 3322 1706 
Q 3322 1066 3130 698 
Q 2938 331 2570 128 
Q 2203 -75 1769 -75 
Q 1072 -75 642 372 
Q 213 819 213 1659 
z
M 791 1659 
Q 791 1022 1069 705 
Q 1347 388 1769 388 
Q 2188 388 2466 706 
Q 2744 1025 2744 1678 
Q 2744 2294 2464 2611 
Q 2184 2928 1769 2928 
Q 1347 2928 1069 2612 
Q 791 2297 791 1659 
z
" transform="scale(0.015625)"/>
       <path id="ArialMT-76" d="M 1344 0 
L 81 3319 
L 675 3319 
L 1388 1331 
Q 1503 1009 1600 663 
Q 1675 925 1809 1294 
L 2547 3319 
L 3125 3319 
L 1869 0 
L 1344 0 
z
" transform="scale(0.015625)"/>
       <path id="ArialMT-72" d="M 416 0 
L 416 3319 
L 922 3319 
L 922 2816 
Q 1116 3169 1280 3281 
Q 1444 3394 1641 3394 
Q 1925 3394 2219 3213 
L 2025 2691 
Q 1819 2813 1613 2813 
Q 1428 2813 1281 2702 
Q 1134 2591 1072 2394 
Q 978 2094 978 1738 
L 978 0 
L 416 0 
z
" transform="scale(0.015625)"/>
       <path id="ArialMT-79" d="M 397 -1278 
L 334 -750 
Q 519 -800 656 -800 
Q 844 -800 956 -737 
Q 1069 -675 1141 -563 
Q 1194 -478 1313 -144 
Q 1328 -97 1363 -6 
L 103 3319 
L 709 3319 
L 1400 1397 
Q 1534 1031 1641 628 
Q 1738 1016 1872 1384 
L 2581 3319 
L 3144 3319 
L 1881 -56 
Q 1678 -603 1566 -809 
Q 1416 -1088 1222 -1217 
Q 1028 -1347 759 -1347 
Q 597 -1347 397 -1278 
z
" transform="scale(0.015625)"/>
       <path id="ArialMT-74" d="M 1650 503 
L 1731 6 
Q 1494 -44 1306 -44 
Q 1000 -44 831 53 
Q 663 150 594 308 
Q 525 466 525 972 
L 525 2881 
L 113 2881 
L 113 3319 
L 525 3319 
L 525 4141 
L 1084 4478 
L 1084 3319 
L 1650 3319 
L 1650 2881 
L 1084 2881 
L 1084 941 
Q 1084 700 1114 631 
Q 1144 563 1211 522 
Q 1278 481 1403 481 
Q 1497 481 1650 503 
z
" transform="scale(0.015625)"/>
      </defs>
      <use xlink:href="#ArialMT-46"/>
      <use xlink:href="#ArialMT-61" x="61.083984"/>
      <use xlink:href="#ArialMT-6c" x="116.699219"/>
      <use xlink:href="#ArialMT-73" x="138.916016"/>
      <use xlink:href="#ArialMT-65" x="188.916016"/>
      <use xlink:href="#ArialMT-20" x="244.53125"/>
      <use xlink:href="#ArialMT-44" x="272.314453"/>
      <use xlink:href="#ArialMT-69" x="344.53125"/>
      <use xlink:href="#ArialMT-73" x="366.748047"/>
      <use xlink:href="#ArialMT-63" x="416.748047"/>
      <use xlink:href="#ArialMT-6f" x="466.748047"/>
      <use xlink:href="#ArialMT-76" x="522.363281"/>
      <use xlink:href="#ArialMT-65" x="572.363281"/>
      <use xlink:href="#ArialMT-72" x="627.978516"/>
      <use xlink:href="#ArialMT-79" x="661.279297"/>
      <use xlink:href="#ArialMT-20" x="711.279297"/>
      <use xlink:href="#ArialMT-52" x="739.0625"/>
      <use xlink:href="#ArialMT-61" x="811.279297"/>
      <use xlink:href="#ArialMT-74" x="866.894531"/>
      <use xlink:href="#ArialMT-65" x="894.677734"/>
     </g>
    </g>
   </g>
   <g id="PolyCollection_1">
    <defs>
     <path id="mc522b58c43" d="M 627.01142 -124.056502 
L 627.01142 -124.056502 
L 630.598197 -124.063052 
L 634.184974 -124.461011 
L 637.771751 -125.072669 
L 641.358528 -125.418948 
L 644.945305 -125.629048 
L 648.532082 -125.758765 
L 652.118858 -125.826487 
L 655.705635 -125.854222 
L 659.292412 -125.872411 
L 662.879189 -125.89936 
L 666.465966 -125.91389 
L 670.052743 -125.918896 
L 673.63952 -125.922894 
L 677.226296 -125.962876 
L 680.813073 -126.003987 
L 684.39985 -126.080835 
L 687.986627 -126.148412 
L 691.573404 -126.209008 
L 695.160181 -126.256553 
L 698.746958 -126.30774 
L 702.333735 -126.352178 
L 705.920511 -126.4025 
L 709.507288 -126.451199 
L 713.094065 -126.498592 
L 716.680842 -126.532454 
L 720.267619 -126.56221 
L 723.854396 -126.600243 
L 727.441173 -126.647689 
L 731.027949 -126.690562 
L 734.614726 -126.748276 
L 738.201503 -126.801421 
L 741.78828 -126.852047 
L 745.375057 -126.896401 
L 748.961834 -126.938118 
L 752.548611 -126.978038 
L 756.135387 -127.020371 
L 759.722164 -127.066005 
L 763.308941 -127.118021 
L 766.895718 -127.181105 
L 770.482495 -127.252178 
L 774.069272 -127.340727 
L 777.656049 -127.441904 
L 781.242825 -127.549992 
L 784.829602 -127.671303 
L 788.416379 -127.80083 
L 792.003156 -127.937476 
L 795.589933 -128.085403 
L 799.17671 -128.247139 
L 802.763487 -128.420869 
L 806.350263 -128.619963 
L 809.93704 -128.850804 
L 813.523817 -129.115856 
L 817.110594 -129.425849 
L 820.697371 -129.783816 
L 824.284148 -130.18226 
L 827.870925 -130.61951 
L 831.457701 -131.094624 
L 835.044478 -131.613363 
L 838.631255 -132.180278 
L 842.218032 -132.80555 
L 845.804809 -133.4855 
L 849.391586 -134.222748 
L 852.978363 -135.021522 
L 856.565139 -135.891238 
L 860.151916 -136.835653 
L 863.738693 -137.85605 
L 867.32547 -138.960454 
L 870.912247 -140.151273 
L 874.499024 -141.428228 
L 878.085801 -142.796138 
L 881.672577 -144.265966 
L 885.259354 -145.834452 
L 888.846131 -147.527648 
L 892.432908 -149.326671 
L 896.019685 -151.2458 
L 899.606462 -153.287376 
L 903.193239 -155.463375 
L 906.780015 -157.74748 
L 910.366792 -160.181738 
L 913.953569 -162.741411 
L 917.540346 -165.476673 
L 921.127123 -168.407848 
L 924.7139 -171.541726 
L 928.300677 -174.894666 
L 931.887454 -178.488476 
L 935.47423 -182.43204 
L 939.061007 -186.720533 
L 942.647784 -191.435337 
L 946.234561 -196.656586 
L 949.821338 -202.421741 
L 953.408115 -208.915039 
L 956.994892 -216.289014 
L 960.581668 -224.75229 
L 964.168445 -234.655083 
L 967.755222 -246.379866 
L 971.341999 -260.323761 
L 974.928776 -277.113607 
L 978.515553 -298.054225 
L 982.10233 -326.379522 
L 982.10233 -326.379522 
L 982.10233 -326.379522 
L 978.515553 -320.936213 
L 974.928776 -316.460948 
L 971.341999 -311.740344 
L 967.755222 -306.94614 
L 964.168445 -302.092 
L 960.581668 -297.183581 
L 956.994892 -292.291337 
L 953.408115 -287.385604 
L 949.821338 -282.449529 
L 946.234561 -277.46408 
L 942.647784 -272.439777 
L 939.061007 -267.364926 
L 935.47423 -262.21086 
L 931.887454 -256.993653 
L 928.300677 -251.653424 
L 924.7139 -246.261875 
L 921.127123 -240.825467 
L 917.540346 -235.343186 
L 913.953569 -229.888806 
L 910.366792 -224.464448 
L 906.780015 -219.184223 
L 903.193239 -214.035735 
L 899.606462 -209.04394 
L 896.019685 -204.258309 
L 892.432908 -199.729501 
L 888.846131 -195.402638 
L 885.259354 -191.287489 
L 881.672577 -187.394977 
L 878.085801 -183.702716 
L 874.499024 -180.228604 
L 870.912247 -176.976507 
L 867.32547 -173.910463 
L 863.738693 -171.031565 
L 860.151916 -168.337611 
L 856.565139 -165.796988 
L 852.978363 -163.411591 
L 849.391586 -161.178126 
L 845.804809 -159.080354 
L 842.218032 -157.129414 
L 838.631255 -155.30106 
L 835.044478 -153.592823 
L 831.457701 -151.992628 
L 827.870925 -150.48109 
L 824.284148 -149.043619 
L 820.697371 -147.700323 
L 817.110594 -146.434769 
L 813.523817 -145.245123 
L 809.93704 -144.129195 
L 806.350263 -143.071139 
L 802.763487 -142.077606 
L 799.17671 -141.150632 
L 795.589933 -140.287632 
L 792.003156 -139.495067 
L 788.416379 -138.750837 
L 784.829602 -138.062248 
L 781.242825 -137.417026 
L 777.656049 -136.819708 
L 774.069272 -136.264385 
L 770.482495 -135.757286 
L 766.895718 -135.275323 
L 763.308941 -134.831188 
L 759.722164 -134.411652 
L 756.135387 -134.039914 
L 752.548611 -133.69611 
L 748.961834 -133.37994 
L 745.375057 -133.093549 
L 741.78828 -132.817822 
L 738.201503 -132.575888 
L 734.614726 -132.347464 
L 731.027949 -132.138584 
L 727.441173 -131.931905 
L 723.854396 -131.763834 
L 720.267619 -131.619685 
L 716.680842 -131.508877 
L 713.094065 -131.430469 
L 709.507288 -131.388401 
L 705.920511 -131.379173 
L 702.333735 -131.374013 
L 698.746958 -131.413812 
L 695.160181 -131.462464 
L 691.573404 -131.544185 
L 687.986627 -131.655152 
L 684.39985 -131.744658 
L 680.813073 -131.79424 
L 677.226296 -131.788592 
L 673.63952 -131.7196 
L 670.052743 -131.445799 
L 666.465966 -131.122645 
L 662.879189 -130.803422 
L 659.292412 -130.645534 
L 655.705635 -130.647347 
L 652.118858 -130.689267 
L 648.532082 -130.853179 
L 644.945305 -131.12169 
L 641.358528 -131.133597 
L 637.771751 -128.775059 
L 634.184974 -125.370028 
L 630.598197 -124.268384 
L 627.01142 -124.056502 
z
" style="stroke: #66c2a5; stroke-opacity: 0.3"/>
    </defs>
    <g clip-path="url(#pa244787bba)">
     <use xlink:href="#mc522b58c43" x="0" y="395.85625" style="fill: #66c2a5; fill-opacity: 0.3; stroke: #66c2a5; stroke-opacity: 0.3"/>
    </g>
   </g>
   <g id="PolyCollection_2"/>
   <g id="PolyCollection_3">
    <defs>
     <path id="me7930e54b6" d="M 627.01142 -124.056502 
L 627.01142 -124.056502 
L 630.598197 -124.098049 
L 634.184974 -124.465699 
L 637.771751 -125.658268 
L 641.358528 -128.35883 
L 644.945305 -132.946421 
L 648.532082 -138.738487 
L 652.118858 -144.850857 
L 655.705635 -151.082773 
L 659.292412 -157.456056 
L 662.879189 -163.86199 
L 666.465966 -170.032201 
L 670.052743 -176.022719 
L 673.63952 -181.740607 
L 677.226296 -187.192307 
L 680.813073 -192.269972 
L 684.39985 -197.094337 
L 687.986627 -201.569874 
L 691.573404 -205.852942 
L 695.160181 -209.828715 
L 698.746958 -213.589416 
L 702.333735 -217.151387 
L 705.920511 -220.492721 
L 709.507288 -223.671676 
L 713.094065 -226.729527 
L 716.680842 -229.620339 
L 720.267619 -232.411847 
L 723.854396 -235.074007 
L 727.441173 -237.629357 
L 731.027949 -240.096741 
L 734.614726 -242.463286 
L 738.201503 -244.758073 
L 741.78828 -246.966847 
L 745.375057 -249.114907 
L 748.961834 -251.170065 
L 752.548611 -253.181819 
L 756.135387 -255.121865 
L 759.722164 -257.015221 
L 763.308941 -258.85541 
L 766.895718 -260.636059 
L 770.482495 -262.37802 
L 774.069272 -264.07146 
L 777.656049 -265.729881 
L 781.242825 -267.316099 
L 784.829602 -268.876417 
L 788.416379 -270.395576 
L 792.003156 -271.874397 
L 795.589933 -273.31864 
L 799.17671 -274.717487 
L 802.763487 -276.079346 
L 806.350263 -277.419774 
L 809.93704 -278.72011 
L 813.523817 -280.008165 
L 817.110594 -281.249339 
L 820.697371 -282.4763 
L 824.284148 -283.681152 
L 827.870925 -284.856271 
L 831.457701 -285.996854 
L 835.044478 -287.125376 
L 838.631255 -288.222225 
L 842.218032 -289.304984 
L 845.804809 -290.368981 
L 849.391586 -291.417931 
L 852.978363 -292.430651 
L 856.565139 -293.423343 
L 860.151916 -294.416539 
L 863.738693 -295.382006 
L 867.32547 -296.332011 
L 870.912247 -297.259084 
L 874.499024 -298.179247 
L 878.085801 -299.08481 
L 881.672577 -299.97609 
L 885.259354 -300.844558 
L 888.846131 -301.715527 
L 892.432908 -302.56323 
L 896.019685 -303.397928 
L 899.606462 -304.227912 
L 903.193239 -305.049043 
L 906.780015 -305.864664 
L 910.366792 -306.671581 
L 913.953569 -307.464627 
L 917.540346 -308.252789 
L 921.127123 -309.033241 
L 924.7139 -309.811355 
L 928.300677 -310.579711 
L 931.887454 -311.351147 
L 935.47423 -312.118876 
L 939.061007 -312.902734 
L 942.647784 -313.681341 
L 946.234561 -314.471513 
L 949.821338 -315.277963 
L 953.408115 -316.089232 
L 956.994892 -316.926365 
L 960.581668 -317.788013 
L 964.168445 -318.693579 
L 967.755222 -319.655792 
L 971.341999 -320.716828 
L 974.928776 -321.935164 
L 978.515553 -323.486616 
L 982.10233 -326.379522 
L 982.10233 -326.379522 
L 982.10233 -326.379522 
L 978.515553 -325.374634 
L 974.928776 -324.834215 
L 971.341999 -324.401079 
L 967.755222 -324.039093 
L 964.168445 -323.719576 
L 960.581668 -323.437387 
L 956.994892 -323.177187 
L 953.408115 -322.942205 
L 949.821338 -322.716981 
L 946.234561 -322.502174 
L 942.647784 -322.294533 
L 939.061007 -322.092513 
L 935.47423 -321.896362 
L 931.887454 -321.70102 
L 928.300677 -321.505044 
L 924.7139 -321.306785 
L 921.127123 -321.110269 
L 917.540346 -320.912379 
L 913.953569 -320.710207 
L 910.366792 -320.508636 
L 906.780015 -320.309691 
L 903.193239 -320.101257 
L 899.606462 -319.889959 
L 896.019685 -319.672041 
L 892.432908 -319.446628 
L 888.846131 -319.219474 
L 885.259354 -318.985173 
L 881.672577 -318.744539 
L 878.085801 -318.499113 
L 874.499024 -318.243796 
L 870.912247 -317.980398 
L 867.32547 -317.706796 
L 863.738693 -317.420176 
L 860.151916 -317.122723 
L 856.565139 -316.820227 
L 852.978363 -316.493386 
L 849.391586 -316.145881 
L 845.804809 -315.788381 
L 842.218032 -315.409992 
L 838.631255 -315.015571 
L 835.044478 -314.601196 
L 831.457701 -314.16852 
L 827.870925 -313.712043 
L 824.284148 -313.229388 
L 820.697371 -312.724208 
L 817.110594 -312.197946 
L 813.523817 -311.644158 
L 809.93704 -311.065109 
L 806.350263 -310.451281 
L 802.763487 -309.809935 
L 799.17671 -309.131042 
L 795.589933 -308.417983 
L 792.003156 -307.671274 
L 788.416379 -306.887008 
L 784.829602 -306.047232 
L 781.242825 -305.164627 
L 777.656049 -304.238523 
L 774.069272 -303.257185 
L 770.482495 -302.223191 
L 766.895718 -301.119923 
L 763.308941 -299.944276 
L 759.722164 -298.711783 
L 756.135387 -297.398911 
L 752.548611 -295.986979 
L 748.961834 -294.498991 
L 745.375057 -292.894965 
L 741.78828 -291.173246 
L 738.201503 -289.357154 
L 734.614726 -287.391594 
L 731.027949 -285.293598 
L 727.441173 -283.051702 
L 723.854396 -280.609397 
L 720.267619 -277.987638 
L 716.680842 -275.119226 
L 713.094065 -272.047458 
L 709.507288 -268.714246 
L 705.920511 -265.099756 
L 702.333735 -261.189738 
L 698.746958 -256.933389 
L 695.160181 -252.351089 
L 691.573404 -247.307416 
L 687.986627 -241.944913 
L 684.39985 -236.080066 
L 680.813073 -229.800608 
L 677.226296 -222.962881 
L 673.63952 -215.587971 
L 670.052743 -207.664291 
L 666.465966 -199.146854 
L 662.879189 -189.970329 
L 659.292412 -180.34699 
L 655.705635 -170.360672 
L 652.118858 -160.345773 
L 648.532082 -151.001899 
L 644.945305 -143.049248 
L 641.358528 -136.627888 
L 637.771751 -131.289844 
L 634.184974 -127.049916 
L 630.598197 -124.785149 
L 627.01142 -124.056502 
z
" style="stroke: #a6d854; stroke-opacity: 0.3"/>
    </defs>
    <g clip-path="url(#pa244787bba)">
     <use xlink:href="#me7930e54b6" x="0" y="395.85625" style="fill: #a6d854; fill-opacity: 0.3; stroke: #a6d854; stroke-opacity: 0.3"/>
    </g>
   </g>
   <g id="PolyCollection_4"/>
   <g id="line2d_1">
    <path d="M 627.01142 271.799748 
L 630.598197 271.762002 
L 634.184974 271.0704 
L 637.771751 269.603993 
L 641.358528 268.680475 
L 644.945305 268.453165 
L 648.532082 268.386591 
L 652.118858 268.362605 
L 655.705635 268.347065 
L 659.292412 268.330243 
L 662.879189 268.262599 
L 666.465966 268.164605 
L 670.052743 268.076233 
L 673.63952 268.002773 
L 677.226296 267.945128 
L 680.813073 267.902669 
L 684.39985 267.840071 
L 687.986627 267.798883 
L 691.573404 267.77196 
L 695.160181 267.750644 
L 698.746958 267.717818 
L 702.333735 267.689335 
L 705.920511 267.643373 
L 709.507288 267.598091 
L 713.094065 267.544711 
L 716.680842 267.492519 
L 720.267619 267.434396 
L 723.854396 267.359371 
L 727.441173 267.269211 
L 731.027949 267.171799 
L 734.614726 267.060851 
L 738.201503 266.948243 
L 741.78828 266.833999 
L 745.375057 266.715714 
L 748.961834 266.596992 
L 752.548611 266.471797 
L 756.135387 266.337116 
L 759.722164 266.192152 
L 763.308941 266.028678 
L 766.895718 265.848688 
L 770.482495 265.651367 
L 774.069272 265.430985 
L 777.656049 265.185789 
L 781.242825 264.922896 
L 784.829602 264.634583 
L 788.416379 264.326851 
L 792.003156 263.997546 
L 795.589933 263.644433 
L 799.17671 263.25916 
L 802.763487 262.845128 
L 806.350263 262.388049 
L 809.93704 261.881708 
L 813.523817 261.325095 
L 817.110594 260.703154 
L 820.697371 260.012344 
L 824.284148 259.259911 
L 827.870925 258.443281 
L 831.457701 257.568804 
L 835.044478 256.627008 
L 838.631255 255.608254 
L 842.218032 254.499445 
L 845.804809 253.303462 
L 849.391586 252.01078 
L 852.978363 250.620359 
L 856.565139 249.118555 
L 860.151916 247.500733 
L 863.738693 245.766037 
L 867.32547 243.897217 
L 870.912247 241.890773 
L 874.499024 239.746461 
L 878.085801 237.447441 
L 881.672577 234.984061 
L 885.259354 232.363546 
L 888.846131 229.555091 
L 892.432908 226.576393 
L 896.019685 223.417199 
L 899.606462 220.053649 
L 903.193239 216.491619 
L 906.780015 212.767791 
L 910.366792 208.857193 
L 913.953569 204.772486 
L 917.540346 200.520877 
L 921.127123 196.091077 
L 924.7139 191.513765 
L 928.300677 186.783601 
L 931.887454 181.896107 
L 935.47423 176.822135 
L 939.061007 171.553213 
L 942.647784 166.061863 
L 946.234561 160.305366 
L 949.821338 154.279252 
L 953.408115 147.910637 
L 956.994892 141.141839 
L 960.581668 133.896841 
L 964.168445 126.034176 
L 967.755222 117.475564 
L 971.341999 108.108575 
L 974.928776 97.702992 
L 978.515553 85.721942 
L 982.10233 69.476728 
" clip-path="url(#pa244787bba)" style="fill: none; stroke: #66c2a5; stroke-width: 1.75; stroke-linecap: round"/>
   </g>
   <g id="line2d_2">
    <path d="M 627.01142 271.799748 
L 630.598197 271.339725 
L 634.184974 270.59584 
L 637.771751 270.277451 
L 641.358528 269.535634 
L 644.945305 268.508536 
L 648.532082 266.89787 
L 652.118858 264.59 
L 655.705635 261.640768 
L 659.292412 257.619578 
L 662.879189 252.373609 
L 666.465966 245.480179 
L 670.052743 235.753822 
L 673.63952 224.59782 
L 677.226296 212.22594 
L 680.813073 199.667782 
L 684.39985 188.275009 
L 687.986627 178.621032 
L 691.573404 170.190913 
L 695.160181 162.946267 
L 698.746958 156.663959 
L 702.333735 151.346519 
L 705.920511 146.738987 
L 709.507288 142.642793 
L 713.094065 139.009841 
L 716.680842 135.70698 
L 720.267619 132.736458 
L 723.854396 130.006951 
L 727.441173 127.521193 
L 731.027949 125.265383 
L 734.614726 123.18167 
L 738.201503 121.266153 
L 741.78828 119.464181 
L 745.375057 117.792905 
L 748.961834 116.213113 
L 752.548611 114.712008 
L 756.135387 113.268687 
L 759.722164 111.906109 
L 763.308941 110.624663 
L 766.895718 109.384962 
L 770.482495 108.183563 
L 774.069272 107.04683 
L 777.656049 105.958679 
L 781.242825 104.902763 
L 784.829602 103.894288 
L 788.416379 102.915814 
L 792.003156 101.975562 
L 795.589933 101.064074 
L 799.17671 100.179761 
L 802.763487 99.32971 
L 806.350263 98.513078 
L 809.93704 97.734445 
L 813.523817 96.980001 
L 817.110594 96.235013 
L 820.697371 95.522052 
L 824.284148 94.812401 
L 827.870925 94.121459 
L 831.457701 93.453662 
L 835.044478 92.78562 
L 838.631255 92.131756 
L 842.218032 91.49228 
L 845.804809 90.855817 
L 849.391586 90.220573 
L 852.978363 89.600481 
L 856.565139 88.994388 
L 860.151916 88.382021 
L 863.738693 87.784922 
L 867.32547 87.191999 
L 870.912247 86.609872 
L 874.499024 86.035152 
L 878.085801 85.452546 
L 881.672577 84.877361 
L 885.259354 84.321921 
L 888.846131 83.755718 
L 892.432908 83.203582 
L 896.019685 82.650343 
L 899.606462 82.103189 
L 903.193239 81.57224 
L 906.780015 81.037101 
L 910.366792 80.5218 
L 913.953569 79.998103 
L 917.540346 79.482855 
L 921.127123 78.969581 
L 924.7139 78.468426 
L 928.300677 77.966814 
L 931.887454 77.471684 
L 935.47423 76.984403 
L 939.061007 76.491146 
L 942.647784 76.00448 
L 946.234561 75.50545 
L 949.821338 75.009737 
L 953.408115 74.505089 
L 956.994892 74.006053 
L 960.581668 73.48728 
L 964.168445 72.957756 
L 967.755222 72.396614 
L 971.341999 71.79633 
L 974.928776 71.144552 
L 978.515553 70.39968 
L 982.10233 69.476728 
" clip-path="url(#pa244787bba)" style="fill: none; stroke: #fc8d62; stroke-width: 1.75; stroke-linecap: round"/>
   </g>
   <g id="line2d_3">
    <path d="M 627.01142 271.799748 
L 630.598197 271.625306 
L 634.184974 270.69023 
L 637.771751 268.381867 
L 641.358528 264.412615 
L 644.945305 258.753915 
L 648.532082 251.830098 
L 652.118858 244.197444 
L 655.705635 236.211582 
L 659.292412 228.127663 
L 662.879189 220.154028 
L 666.465966 212.494699 
L 670.052743 205.210261 
L 673.63952 198.333892 
L 677.226296 191.845611 
L 680.813073 185.805053 
L 684.39985 180.155507 
L 687.986627 174.886328 
L 691.573404 169.953907 
L 695.160181 165.335887 
L 698.746958 161.052586 
L 702.333735 157.031349 
L 705.920511 153.295684 
L 709.507288 149.790915 
L 713.094065 146.490075 
L 716.680842 143.40848 
L 720.267619 140.48227 
L 723.854396 137.750688 
L 727.441173 135.167897 
L 731.027949 132.736444 
L 734.614726 130.433225 
L 738.201503 128.238015 
L 741.78828 126.167506 
L 745.375057 124.179599 
L 748.961834 122.302829 
L 752.548611 120.512568 
L 756.135387 118.800505 
L 759.722164 117.167462 
L 763.308941 115.606241 
L 766.895718 114.106674 
L 770.482495 112.667552 
L 774.069272 111.291764 
L 777.656049 109.963588 
L 781.242825 108.701737 
L 784.829602 107.477888 
L 788.416379 106.298683 
L 792.003156 105.170821 
L 795.589933 104.081382 
L 799.17671 103.033032 
L 802.763487 102.022073 
L 806.350263 101.043191 
L 809.93704 100.099166 
L 813.523817 99.18129 
L 817.110594 98.299908 
L 820.697371 97.441279 
L 824.284148 96.605282 
L 827.870925 95.796137 
L 831.457701 95.018012 
L 835.044478 94.259237 
L 838.631255 93.525568 
L 842.218032 92.809855 
L 845.804809 92.111949 
L 849.391586 91.43282 
L 852.978363 90.775949 
L 856.565139 90.139878 
L 860.151916 89.517209 
L 863.738693 88.909989 
L 867.32547 88.315809 
L 870.912247 87.73926 
L 874.499024 87.171396 
L 878.085801 86.614521 
L 881.672577 86.069456 
L 885.259354 85.537281 
L 888.846131 85.007172 
L 892.432908 84.491417 
L 896.019685 83.982311 
L 899.606462 83.479146 
L 903.193239 82.983322 
L 906.780015 82.491216 
L 910.366792 82.007876 
L 913.953569 81.529135 
L 917.540346 81.051901 
L 921.127123 80.580111 
L 924.7139 80.109662 
L 928.300677 79.642361 
L 931.887454 79.174303 
L 935.47423 78.707777 
L 939.061007 78.232597 
L 942.647784 77.756172 
L 946.234561 77.270636 
L 949.821338 76.772878 
L 953.408115 76.266626 
L 956.994892 75.742104 
L 960.581668 75.191837 
L 964.168445 74.608085 
L 967.755222 73.976625 
L 971.341999 73.274117 
L 974.928776 72.456881 
L 978.515553 71.419217 
L 982.10233 69.476728 
" clip-path="url(#pa244787bba)" style="fill: none; stroke: #a6d854; stroke-width: 1.75; stroke-linecap: round"/>
   </g>
   <g id="line2d_4">
    <path d="M 627.01142 271.799748 
L 630.598197 271.784236 
L 634.184974 271.671977 
L 637.771751 271.358051 
L 641.358528 270.609504 
L 644.945305 268.952335 
L 648.532082 266.195929 
L 652.118858 261.695227 
L 655.705635 254.849598 
L 659.292412 245.305411 
L 662.879189 233.831637 
L 666.465966 221.495963 
L 670.052743 209.521856 
L 673.63952 198.45264 
L 677.226296 188.585188 
L 680.813073 179.857957 
L 684.39985 172.252129 
L 687.986627 165.661792 
L 691.573404 159.809982 
L 695.160181 154.66698 
L 698.746958 150.024369 
L 702.333735 146.040739 
L 705.920511 142.406253 
L 709.507288 139.048894 
L 713.094065 136.089046 
L 716.680842 133.291897 
L 720.267619 130.8065 
L 723.854396 128.479744 
L 727.441173 126.329123 
L 731.027949 124.339988 
L 734.614726 122.476736 
L 738.201503 120.762033 
L 741.78828 119.147945 
L 745.375057 117.634454 
L 748.961834 116.216336 
L 752.548611 114.87055 
L 756.135387 113.617719 
L 759.722164 112.436721 
L 763.308941 111.304846 
L 766.895718 110.217166 
L 770.482495 109.19503 
L 774.069272 108.239559 
L 777.656049 107.299586 
L 781.242825 106.394688 
L 784.829602 105.554557 
L 788.416379 104.737207 
L 792.003156 103.953137 
L 795.589933 103.178131 
L 799.17671 102.436382 
L 802.763487 101.720663 
L 806.350263 101.044036 
L 809.93704 100.35466 
L 813.523817 99.682316 
L 817.110594 99.06941 
L 820.697371 98.460824 
L 824.284148 97.857704 
L 827.870925 97.273057 
L 831.457701 96.700305 
L 835.044478 96.130089 
L 838.631255 95.567878 
L 842.218032 95.013829 
L 845.804809 94.481406 
L 849.391586 93.942828 
L 852.978363 93.39699 
L 856.565139 92.891731 
L 860.151916 92.372828 
L 863.738693 91.864106 
L 867.32547 91.355477 
L 870.912247 90.845965 
L 874.499024 90.340655 
L 878.085801 89.839667 
L 881.672577 89.347089 
L 885.259354 88.848193 
L 888.846131 88.345931 
L 892.432908 87.842514 
L 896.019685 87.331103 
L 899.606462 86.821191 
L 903.193239 86.302116 
L 906.780015 85.773315 
L 910.366792 85.246161 
L 913.953569 84.731899 
L 917.540346 84.200652 
L 921.127123 83.65626 
L 924.7139 83.10613 
L 928.300677 82.552904 
L 931.887454 81.981271 
L 935.47423 81.397339 
L 939.061007 80.797888 
L 942.647784 80.184043 
L 946.234561 79.556966 
L 949.821338 78.900506 
L 953.408115 78.222626 
L 956.994892 77.515205 
L 960.581668 76.758422 
L 964.168445 75.973275 
L 967.755222 75.117499 
L 971.341999 74.181565 
L 974.928776 73.11959 
L 978.515553 71.835929 
L 982.10233 69.476728 
" clip-path="url(#pa244787bba)" style="fill: none; stroke: #e78ac3; stroke-width: 1.75; stroke-linecap: round"/>
   </g>
   <g id="patch_3">
    <path d="M 609.256875 284.4 
L 609.256875 7.2 
" style="fill: none; stroke: #262626; stroke-width: 0.8; stroke-linejoin: miter; stroke-linecap: square"/>
   </g>
   <g id="patch_4">
    <path d="M 609.256875 284.4 
L 999.856875 284.4 
" style="fill: none; stroke: #262626; stroke-width: 0.8; stroke-linejoin: miter; stroke-linecap: square"/>
   </g>
   <g id="legend_1">
    <g id="line2d_5">
     <path d="M 18.4 361.763125 
L 46.4 361.763125 
L 74.4 361.763125 
" style="fill: none; stroke: #66c2a5; stroke-width: 1.75; stroke-linecap: round"/>
    </g>
    <g id="text_9">
     <!-- Contrastive Transformer -->
     <g style="fill: #262626" transform="translate(96.8 371.563125) scale(0.28 -0.28)">
      <defs>
       <path id="ArialMT-43" d="M 3763 1606 
L 4369 1453 
Q 4178 706 3683 314 
Q 3188 -78 2472 -78 
Q 1731 -78 1267 223 
Q 803 525 561 1097 
Q 319 1669 319 2325 
Q 319 3041 592 3573 
Q 866 4106 1370 4382 
Q 1875 4659 2481 4659 
Q 3169 4659 3637 4309 
Q 4106 3959 4291 3325 
L 3694 3184 
Q 3534 3684 3231 3912 
Q 2928 4141 2469 4141 
Q 1941 4141 1586 3887 
Q 1231 3634 1087 3207 
Q 944 2781 944 2328 
Q 944 1744 1114 1308 
Q 1284 872 1643 656 
Q 2003 441 2422 441 
Q 2931 441 3284 734 
Q 3638 1028 3763 1606 
z
" transform="scale(0.015625)"/>
       <path id="ArialMT-6e" d="M 422 0 
L 422 3319 
L 928 3319 
L 928 2847 
Q 1294 3394 1984 3394 
Q 2284 3394 2536 3286 
Q 2788 3178 2913 3003 
Q 3038 2828 3088 2588 
Q 3119 2431 3119 2041 
L 3119 0 
L 2556 0 
L 2556 2019 
Q 2556 2363 2490 2533 
Q 2425 2703 2258 2804 
Q 2091 2906 1866 2906 
Q 1506 2906 1245 2678 
Q 984 2450 984 1813 
L 984 0 
L 422 0 
z
" transform="scale(0.015625)"/>
       <path id="ArialMT-54" d="M 1659 0 
L 1659 4041 
L 150 4041 
L 150 4581 
L 3781 4581 
L 3781 4041 
L 2266 4041 
L 2266 0 
L 1659 0 
z
" transform="scale(0.015625)"/>
       <path id="ArialMT-66" d="M 556 0 
L 556 2881 
L 59 2881 
L 59 3319 
L 556 3319 
L 556 3672 
Q 556 4006 616 4169 
Q 697 4388 901 4523 
Q 1106 4659 1475 4659 
Q 1713 4659 2000 4603 
L 1916 4113 
Q 1741 4144 1584 4144 
Q 1328 4144 1222 4034 
Q 1116 3925 1116 3625 
L 1116 3319 
L 1763 3319 
L 1763 2881 
L 1116 2881 
L 1116 0 
L 556 0 
z
" transform="scale(0.015625)"/>
       <path id="ArialMT-6d" d="M 422 0 
L 422 3319 
L 925 3319 
L 925 2853 
Q 1081 3097 1340 3245 
Q 1600 3394 1931 3394 
Q 2300 3394 2536 3241 
Q 2772 3088 2869 2813 
Q 3263 3394 3894 3394 
Q 4388 3394 4653 3120 
Q 4919 2847 4919 2278 
L 4919 0 
L 4359 0 
L 4359 2091 
Q 4359 2428 4304 2576 
Q 4250 2725 4106 2815 
Q 3963 2906 3769 2906 
Q 3419 2906 3187 2673 
Q 2956 2441 2956 1928 
L 2956 0 
L 2394 0 
L 2394 2156 
Q 2394 2531 2256 2718 
Q 2119 2906 1806 2906 
Q 1569 2906 1367 2781 
Q 1166 2656 1075 2415 
Q 984 2175 984 1722 
L 984 0 
L 422 0 
z
" transform="scale(0.015625)"/>
      </defs>
      <use xlink:href="#ArialMT-43"/>
      <use xlink:href="#ArialMT-6f" x="72.216797"/>
      <use xlink:href="#ArialMT-6e" x="127.832031"/>
      <use xlink:href="#ArialMT-74" x="183.447266"/>
      <use xlink:href="#ArialMT-72" x="211.230469"/>
      <use xlink:href="#ArialMT-61" x="244.53125"/>
      <use xlink:href="#ArialMT-73" x="300.146484"/>
      <use xlink:href="#ArialMT-74" x="350.146484"/>
      <use xlink:href="#ArialMT-69" x="377.929688"/>
      <use xlink:href="#ArialMT-76" x="400.146484"/>
      <use xlink:href="#ArialMT-65" x="450.146484"/>
      <use xlink:href="#ArialMT-20" x="505.761719"/>
      <use xlink:href="#ArialMT-54" x="531.794922"/>
      <use xlink:href="#ArialMT-72" x="589.128906"/>
      <use xlink:href="#ArialMT-61" x="622.429688"/>
      <use xlink:href="#ArialMT-6e" x="678.044922"/>
      <use xlink:href="#ArialMT-73" x="733.660156"/>
      <use xlink:href="#ArialMT-66" x="783.660156"/>
      <use xlink:href="#ArialMT-6f" x="811.443359"/>
      <use xlink:href="#ArialMT-72" x="867.058594"/>
      <use xlink:href="#ArialMT-6d" x="900.359375"/>
      <use xlink:href="#ArialMT-65" x="983.660156"/>
      <use xlink:href="#ArialMT-72" x="1039.275391"/>
     </g>
    </g>
    <g id="line2d_6">
     <path d="M 453.1 361.763125 
L 481.1 361.763125 
L 509.1 361.763125 
" style="fill: none; stroke: #fc8d62; stroke-width: 1.75; stroke-linecap: round"/>
    </g>
    <g id="text_10">
     <!-- Cosine Similarity -->
     <g style="fill: #262626" transform="translate(531.5 371.563125) scale(0.28 -0.28)">
      <defs>
       <path id="ArialMT-53" d="M 288 1472 
L 859 1522 
Q 900 1178 1048 958 
Q 1197 738 1509 602 
Q 1822 466 2213 466 
Q 2559 466 2825 569 
Q 3091 672 3220 851 
Q 3350 1031 3350 1244 
Q 3350 1459 3225 1620 
Q 3100 1781 2813 1891 
Q 2628 1963 1997 2114 
Q 1366 2266 1113 2400 
Q 784 2572 623 2826 
Q 463 3081 463 3397 
Q 463 3744 659 4045 
Q 856 4347 1234 4503 
Q 1613 4659 2075 4659 
Q 2584 4659 2973 4495 
Q 3363 4331 3572 4012 
Q 3781 3694 3797 3291 
L 3216 3247 
Q 3169 3681 2898 3903 
Q 2628 4125 2100 4125 
Q 1550 4125 1298 3923 
Q 1047 3722 1047 3438 
Q 1047 3191 1225 3031 
Q 1400 2872 2139 2705 
Q 2878 2538 3153 2413 
Q 3553 2228 3743 1945 
Q 3934 1663 3934 1294 
Q 3934 928 3725 604 
Q 3516 281 3123 101 
Q 2731 -78 2241 -78 
Q 1619 -78 1198 103 
Q 778 284 539 648 
Q 300 1013 288 1472 
z
" transform="scale(0.015625)"/>
      </defs>
      <use xlink:href="#ArialMT-43"/>
      <use xlink:href="#ArialMT-6f" x="72.216797"/>
      <use xlink:href="#ArialMT-73" x="127.832031"/>
      <use xlink:href="#ArialMT-69" x="177.832031"/>
      <use xlink:href="#ArialMT-6e" x="200.048828"/>
      <use xlink:href="#ArialMT-65" x="255.664062"/>
      <use xlink:href="#ArialMT-20" x="311.279297"/>
      <use xlink:href="#ArialMT-53" x="339.0625"/>
      <use xlink:href="#ArialMT-69" x="405.761719"/>
      <use xlink:href="#ArialMT-6d" x="427.978516"/>
      <use xlink:href="#ArialMT-69" x="511.279297"/>
      <use xlink:href="#ArialMT-6c" x="533.496094"/>
      <use xlink:href="#ArialMT-61" x="555.712891"/>
      <use xlink:href="#ArialMT-72" x="611.328125"/>
      <use xlink:href="#ArialMT-69" x="644.628906"/>
      <use xlink:href="#ArialMT-74" x="666.845703"/>
      <use xlink:href="#ArialMT-79" x="694.628906"/>
     </g>
    </g>
    <g id="line2d_7">
     <path d="M 795.990625 361.763125 
L 823.990625 361.763125 
L 851.990625 361.763125 
" style="fill: none; stroke: #a6d854; stroke-width: 1.75; stroke-linecap: round"/>
    </g>
    <g id="text_11">
     <!-- MALDI Transformer -->
     <g style="fill: #262626" transform="translate(874.390625 371.563125) scale(0.28 -0.28)">
      <defs>
       <path id="ArialMT-4d" d="M 475 0 
L 475 4581 
L 1388 4581 
L 2472 1338 
Q 2622 884 2691 659 
Q 2769 909 2934 1394 
L 4031 4581 
L 4847 4581 
L 4847 0 
L 4263 0 
L 4263 3834 
L 2931 0 
L 2384 0 
L 1059 3900 
L 1059 0 
L 475 0 
z
" transform="scale(0.015625)"/>
       <path id="ArialMT-41" d="M -9 0 
L 1750 4581 
L 2403 4581 
L 4278 0 
L 3588 0 
L 3053 1388 
L 1138 1388 
L 634 0 
L -9 0 
z
M 1313 1881 
L 2866 1881 
L 2388 3150 
Q 2169 3728 2063 4100 
Q 1975 3659 1816 3225 
L 1313 1881 
z
" transform="scale(0.015625)"/>
       <path id="ArialMT-4c" d="M 469 0 
L 469 4581 
L 1075 4581 
L 1075 541 
L 3331 541 
L 3331 0 
L 469 0 
z
" transform="scale(0.015625)"/>
       <path id="ArialMT-49" d="M 597 0 
L 597 4581 
L 1203 4581 
L 1203 0 
L 597 0 
z
" transform="scale(0.015625)"/>
      </defs>
      <use xlink:href="#ArialMT-4d"/>
      <use xlink:href="#ArialMT-41" x="83.300781"/>
      <use xlink:href="#ArialMT-4c" x="150"/>
      <use xlink:href="#ArialMT-44" x="205.615234"/>
      <use xlink:href="#ArialMT-49" x="277.832031"/>
      <use xlink:href="#ArialMT-20" x="305.615234"/>
      <use xlink:href="#ArialMT-54" x="331.648438"/>
      <use xlink:href="#ArialMT-72" x="388.982422"/>
      <use xlink:href="#ArialMT-61" x="422.283203"/>
      <use xlink:href="#ArialMT-6e" x="477.898438"/>
      <use xlink:href="#ArialMT-73" x="533.513672"/>
      <use xlink:href="#ArialMT-66" x="583.513672"/>
      <use xlink:href="#ArialMT-6f" x="611.296875"/>
      <use xlink:href="#ArialMT-72" x="666.912109"/>
      <use xlink:href="#ArialMT-6d" x="700.212891"/>
      <use xlink:href="#ArialMT-65" x="783.513672"/>
      <use xlink:href="#ArialMT-72" x="839.128906"/>
     </g>
    </g>
    <g id="line2d_8">
     <path d="M 1174.655625 361.763125 
L 1202.655625 361.763125 
L 1230.655625 361.763125 
" style="fill: none; stroke: #e78ac3; stroke-width: 1.75; stroke-linecap: round"/>
    </g>
    <g id="text_12">
     <!-- Cosine Similarity (Int. Agn.) -->
     <g style="fill: #262626" transform="translate(1253.055625 371.563125) scale(0.28 -0.28)">
      <defs>
       <path id="ArialMT-28" d="M 1497 -1347 
Q 1031 -759 709 28 
Q 388 816 388 1659 
Q 388 2403 628 3084 
Q 909 3875 1497 4659 
L 1900 4659 
Q 1522 4009 1400 3731 
Q 1209 3300 1100 2831 
Q 966 2247 966 1656 
Q 966 153 1900 -1347 
L 1497 -1347 
z
" transform="scale(0.015625)"/>
       <path id="ArialMT-67" d="M 319 -275 
L 866 -356 
Q 900 -609 1056 -725 
Q 1266 -881 1628 -881 
Q 2019 -881 2231 -725 
Q 2444 -569 2519 -288 
Q 2563 -116 2559 434 
Q 2191 0 1641 0 
Q 956 0 581 494 
Q 206 988 206 1678 
Q 206 2153 378 2554 
Q 550 2956 876 3175 
Q 1203 3394 1644 3394 
Q 2231 3394 2613 2919 
L 2613 3319 
L 3131 3319 
L 3131 450 
Q 3131 -325 2973 -648 
Q 2816 -972 2473 -1159 
Q 2131 -1347 1631 -1347 
Q 1038 -1347 672 -1080 
Q 306 -813 319 -275 
z
M 784 1719 
Q 784 1066 1043 766 
Q 1303 466 1694 466 
Q 2081 466 2343 764 
Q 2606 1063 2606 1700 
Q 2606 2309 2336 2618 
Q 2066 2928 1684 2928 
Q 1309 2928 1046 2623 
Q 784 2319 784 1719 
z
" transform="scale(0.015625)"/>
       <path id="ArialMT-29" d="M 791 -1347 
L 388 -1347 
Q 1322 153 1322 1656 
Q 1322 2244 1188 2822 
Q 1081 3291 891 3722 
Q 769 4003 388 4659 
L 791 4659 
Q 1378 3875 1659 3084 
Q 1900 2403 1900 1659 
Q 1900 816 1576 28 
Q 1253 -759 791 -1347 
z
" transform="scale(0.015625)"/>
      </defs>
      <use xlink:href="#ArialMT-43"/>
      <use xlink:href="#ArialMT-6f" x="72.216797"/>
      <use xlink:href="#ArialMT-73" x="127.832031"/>
      <use xlink:href="#ArialMT-69" x="177.832031"/>
      <use xlink:href="#ArialMT-6e" x="200.048828"/>
      <use xlink:href="#ArialMT-65" x="255.664062"/>
      <use xlink:href="#ArialMT-20" x="311.279297"/>
      <use xlink:href="#ArialMT-53" x="339.0625"/>
      <use xlink:href="#ArialMT-69" x="405.761719"/>
      <use xlink:href="#ArialMT-6d" x="427.978516"/>
      <use xlink:href="#ArialMT-69" x="511.279297"/>
      <use xlink:href="#ArialMT-6c" x="533.496094"/>
      <use xlink:href="#ArialMT-61" x="555.712891"/>
      <use xlink:href="#ArialMT-72" x="611.328125"/>
      <use xlink:href="#ArialMT-69" x="644.628906"/>
      <use xlink:href="#ArialMT-74" x="666.845703"/>
      <use xlink:href="#ArialMT-79" x="694.628906"/>
      <use xlink:href="#ArialMT-20" x="744.628906"/>
      <use xlink:href="#ArialMT-28" x="772.412109"/>
      <use xlink:href="#ArialMT-49" x="805.712891"/>
      <use xlink:href="#ArialMT-6e" x="833.496094"/>
      <use xlink:href="#ArialMT-74" x="889.111328"/>
      <use xlink:href="#ArialMT-2e" x="916.894531"/>
      <use xlink:href="#ArialMT-20" x="944.677734"/>
      <use xlink:href="#ArialMT-41" x="966.960938"/>
      <use xlink:href="#ArialMT-67" x="1033.660156"/>
      <use xlink:href="#ArialMT-6e" x="1089.275391"/>
      <use xlink:href="#ArialMT-2e" x="1144.890625"/>
      <use xlink:href="#ArialMT-29" x="1172.673828"/>
     </g>
    </g>
   </g>
  </g>
 </g>
 <defs>
  <clipPath id="pa244787bba">
   <rect x="609.256875" y="7.2" width="390.6" height="277.2"/>
  </clipPath>
 </defs>
</svg>
