<?xml version="1.0" encoding="utf-8" standalone="no"?>
<!DOCTYPE svg PUBLIC "-//W3C//DTD SVG 1.1//EN"
  "http://www.w3.org/Graphics/SVG/1.1/DTD/svg11.dtd">
<svg xmlns:xlink="http://www.w3.org/1999/xlink" width="478.73233pt" height="350.31375pt" viewBox="0 0 478.73233 350.31375" xmlns="http://www.w3.org/2000/svg" version="1.1">
 <metadata>
  <rdf:RDF xmlns:dc="http://purl.org/dc/elements/1.1/" xmlns:cc="http://creativecommons.org/ns#" xmlns:rdf="http://www.w3.org/1999/02/22-rdf-syntax-ns#">
   <cc:Work>
    <dc:type rdf:resource="http://purl.org/dc/dcmitype/StillImage"/>
    <dc:date>2026-07-28T19:02:09.665388</dc:date>
    <dc:format>image/svg+xml</dc:format>
    <dc:creator>
     <cc:Agent>
      <dc:title>Matplotlib v3.9.2, https://matplotlib.org/</dc:title>
     </cc:Agent>
    </dc:creator>
   </cc:Work>
  </rdf:RDF>
 </metadata>
 <defs>
  <style type="text/css">*{stroke-linejoin: round; stroke-linecap: butt}</style>
 </defs>
 <g id="figure_1">
  <g id="patch_1">
   <path d="M -0 350.31375 
L 478.73233 350.31375 
L 478.73233 0 
L -0 0 
z
" style="fill: #ffffff"/>
  </g>
  <g id="axes_1">
   <g id="patch_2">
    <path d="M 79.226875 284.4 
L 469.826875 284.4 
L 469.826875 7.2 
L 79.226875 7.2 
z
" style="fill: #ffffff"/>
   </g>
   <g id="matplotlib.axis_1">
    <g id="xtick_1">
     <g id="text_1">
      <!-- 0.0 -->
      <g style="fill: #262626" transform="translate(77.52142 307.941875) scale(0.28 -0.28)">
       <defs>
        <path id="ArialMT-30" d="M 266 2259 
Q 266 3072 433 3567 
Q 600 4063 929 4331 
Q 1259 4600 1759 4600 
Q 2128 4600 2406 4451 
Q 2684 4303 2865 4023 
Q 3047 3744 3150 3342 
Q 3253 2941 3253 2259 
Q 3253 1453 3087 958 
Q 2922 463 2592 192 
Q 2263 -78 1759 -78 
Q 1097 -78 719 397 
Q 266 969 266 2259 
z
M 844 2259 
Q 844 1131 1108 757 
Q 1372 384 1759 384 
Q 2147 384 2411 759 
Q 2675 1134 2675 2259 
Q 2675 3391 2411 3762 
Q 2147 4134 1753 4134 
Q 1366 4134 1134 3806 
Q 844 3388 844 2259 
z
" transform="scale(0.015625)"/>
        <path id="ArialMT-2e" d="M 581 0 
L 581 641 
L 1222 641 
L 1222 0 
L 581 0 
z
" transform="scale(0.015625)"/>
       </defs>
       <use xlink:href="#ArialMT-30"/>
       <use xlink:href="#ArialMT-2e" x="55.615234"/>
       <use xlink:href="#ArialMT-30" x="83.398438"/>
      </g>
     </g>
    </g>
    <g id="xtick_2">
     <g id="text_2">
      <!-- 0.5 -->
      <g style="fill: #262626" transform="translate(255.066875 307.941875) scale(0.28 -0.28)">
       <defs>
        <path id="ArialMT-35" d="M 266 1200 
L 856 1250 
Q 922 819 1161 601 
Q 1400 384 1738 384 
Q 2144 384 2425 690 
Q 2706 997 2706 1503 
Q 2706 1984 2436 2262 
Q 2166 2541 1728 2541 
Q 1456 2541 1237 2417 
Q 1019 2294 894 2097 
L 366 2166 
L 809 4519 
L 3088 4519 
L 3088 3981 
L 1259 3981 
L 1013 2750 
Q 1425 3038 1878 3038 
Q 2478 3038 2890 2622 
Q 3303 2206 3303 1553 
Q 3303 931 2941 478 
Q 2500 -78 1738 -78 
Q 1113 -78 717 272 
Q 322 622 266 1200 
z
" transform="scale(0.015625)"/>
       </defs>
       <use xlink:href="#ArialMT-30"/>
       <use xlink:href="#ArialMT-2e" x="55.615234"/>
       <use xlink:href="#ArialMT-35" x="83.398438"/>
      </g>
     </g>
    </g>
    <g id="xtick_3">
     <g id="text_3">
      <!-- 1.0 -->
      <g style="fill: #262626" transform="translate(432.61233 307.941875) scale(0.28 -0.28)">
       <defs>
        <path id="ArialMT-31" d="M 2384 0 
L 1822 0 
L 1822 3584 
Q 1619 3391 1289 3197 
Q 959 3003 697 2906 
L 697 3450 
Q 1169 3672 1522 3987 
Q 1875 4303 2022 4600 
L 2384 4600 
L 2384 0 
z
" transform="scale(0.015625)"/>
       </defs>
       <use xlink:href="#ArialMT-31"/>
       <use xlink:href="#ArialMT-2e" x="55.615234"/>
       <use xlink:href="#ArialMT-30" x="83.398438"/>
      </g>
     </g>
    </g>
    <g id="text_4">
     <!-- False Positive Rate -->
     <g style="fill: #262626" transform="translate(153.925625 337.54875) scale(0.28 -0.28)">
      <defs>
       <path id="ArialMT-46" d="M 525 0 
L 525 4581 
L 3616 4581 
L 3616 4041 
L 1131 4041 
L 1131 2622 
L 3281 2622 
L 3281 2081 
L 1131 2081 
L 1131 0 
L 525 0 
z
" transform="scale(0.015625)"/>
       <path id="ArialMT-61" d="M 2588 409 
Q 2275 144 1986 34 
Q 1697 -75 1366 -75 
Q 819 -75 525 192 
Q 231 459 231 875 
Q 231 1119 342 1320 
Q 453 1522 633 1644 
Q 813 1766 1038 1828 
Q 1203 1872 1538 1913 
Q 2219 1994 2541 2106 
Q 2544 2222 2544 2253 
Q 2544 2597 2384 2738 
Q 2169 2928 1744 2928 
Q 1347 2928 1158 2789 
Q 969 2650 878 2297 
L 328 2372 
Q 403 2725 575 2942 
Q 747 3159 1072 3276 
Q 1397 3394 1825 3394 
Q 2250 3394 2515 3294 
Q 2781 3194 2906 3042 
Q 3031 2891 3081 2659 
Q 3109 2516 3109 2141 
L 3109 1391 
Q 3109 606 3145 398 
Q 3181 191 3288 0 
L 2700 0 
Q 2613 175 2588 409 
z
M 2541 1666 
Q 2234 1541 1622 1453 
Q 1275 1403 1131 1340 
Q 988 1278 909 1158 
Q 831 1038 831 891 
Q 831 666 1001 516 
Q 1172 366 1500 366 
Q 1825 366 2078 508 
Q 2331 650 2450 897 
Q 2541 1088 2541 1459 
L 2541 1666 
z
" transform="scale(0.015625)"/>
       <path id="ArialMT-6c" d="M 409 0 
L 409 4581 
L 972 4581 
L 972 0 
L 409 0 
z
" transform="scale(0.015625)"/>
       <path id="ArialMT-73" d="M 197 991 
L 753 1078 
Q 800 744 1014 566 
Q 1228 388 1613 388 
Q 2000 388 2187 545 
Q 2375 703 2375 916 
Q 2375 1106 2209 1216 
Q 2094 1291 1634 1406 
Q 1016 1563 777 1677 
Q 538 1791 414 1992 
Q 291 2194 291 2438 
Q 291 2659 392 2848 
Q 494 3038 669 3163 
Q 800 3259 1026 3326 
Q 1253 3394 1513 3394 
Q 1903 3394 2198 3281 
Q 2494 3169 2634 2976 
Q 2775 2784 2828 2463 
L 2278 2388 
Q 2241 2644 2061 2787 
Q 1881 2931 1553 2931 
Q 1166 2931 1000 2803 
Q 834 2675 834 2503 
Q 834 2394 903 2306 
Q 972 2216 1119 2156 
Q 1203 2125 1616 2013 
Q 2213 1853 2448 1751 
Q 2684 1650 2818 1456 
Q 2953 1263 2953 975 
Q 2953 694 2789 445 
Q 2625 197 2315 61 
Q 2006 -75 1616 -75 
Q 969 -75 630 194 
Q 291 463 197 991 
z
" transform="scale(0.015625)"/>
       <path id="ArialMT-65" d="M 2694 1069 
L 3275 997 
Q 3138 488 2766 206 
Q 2394 -75 1816 -75 
Q 1088 -75 661 373 
Q 234 822 234 1631 
Q 234 2469 665 2931 
Q 1097 3394 1784 3394 
Q 2450 3394 2872 2941 
Q 3294 2488 3294 1666 
Q 3294 1616 3291 1516 
L 816 1516 
Q 847 969 1125 678 
Q 1403 388 1819 388 
Q 2128 388 2347 550 
Q 2566 713 2694 1069 
z
M 847 1978 
L 2700 1978 
Q 2663 2397 2488 2606 
Q 2219 2931 1791 2931 
Q 1403 2931 1139 2672 
Q 875 2413 847 1978 
z
" transform="scale(0.015625)"/>
       <path id="ArialMT-20" transform="scale(0.015625)"/>
       <path id="ArialMT-50" d="M 494 0 
L 494 4581 
L 2222 4581 
Q 2678 4581 2919 4538 
Q 3256 4481 3484 4323 
Q 3713 4166 3852 3881 
Q 3991 3597 3991 3256 
Q 3991 2672 3619 2267 
Q 3247 1863 2275 1863 
L 1100 1863 
L 1100 0 
L 494 0 
z
M 1100 2403 
L 2284 2403 
Q 2872 2403 3119 2622 
Q 3366 2841 3366 3238 
Q 3366 3525 3220 3729 
Q 3075 3934 2838 4000 
Q 2684 4041 2272 4041 
L 1100 4041 
L 1100 2403 
z
" transform="scale(0.015625)"/>
       <path id="ArialMT-6f" d="M 213 1659 
Q 213 2581 725 3025 
Q 1153 3394 1769 3394 
Q 2453 3394 2887 2945 
Q 3322 2497 3322 1706 
Q 3322 1066 3130 698 
Q 2938 331 2570 128 
Q 2203 -75 1769 -75 
Q 1072 -75 642 372 
Q 213 819 213 1659 
z
M 791 1659 
Q 791 1022 1069 705 
Q 1347 388 1769 388 
Q 2188 388 2466 706 
Q 2744 1025 2744 1678 
Q 2744 2294 2464 2611 
Q 2184 2928 1769 2928 
Q 1347 2928 1069 2612 
Q 791 2297 791 1659 
z
" transform="scale(0.015625)"/>
       <path id="ArialMT-69" d="M 425 3934 
L 425 4581 
L 988 4581 
L 988 3934 
L 425 3934 
z
M 425 0 
L 425 3319 
L 988 3319 
L 988 0 
L 425 0 
z
" transform="scale(0.015625)"/>
       <path id="ArialMT-74" d="M 1650 503 
L 1731 6 
Q 1494 -44 1306 -44 
Q 1000 -44 831 53 
Q 663 150 594 308 
Q 525 466 525 972 
L 525 2881 
L 113 2881 
L 113 3319 
L 525 3319 
L 525 4141 
L 1084 4478 
L 1084 3319 
L 1650 3319 
L 1650 2881 
L 1084 2881 
L 1084 941 
Q 1084 700 1114 631 
Q 1144 563 1211 522 
Q 1278 481 1403 481 
Q 1497 481 1650 503 
z
" transform="scale(0.015625)"/>
       <path id="ArialMT-76" d="M 1344 0 
L 81 3319 
L 675 3319 
L 1388 1331 
Q 1503 1009 1600 663 
Q 1675 925 1809 1294 
L 2547 3319 
L 3125 3319 
L 1869 0 
L 1344 0 
z
" transform="scale(0.015625)"/>
       <path id="ArialMT-52" d="M 503 0 
L 503 4581 
L 2534 4581 
Q 3147 4581 3465 4457 
Q 3784 4334 3975 4021 
Q 4166 3709 4166 3331 
Q 4166 2844 3850 2509 
Q 3534 2175 2875 2084 
Q 3116 1969 3241 1856 
Q 3506 1613 3744 1247 
L 4541 0 
L 3778 0 
L 3172 953 
Q 2906 1366 2734 1584 
Q 2563 1803 2427 1890 
Q 2291 1978 2150 2013 
Q 2047 2034 1813 2034 
L 1109 2034 
L 1109 0 
L 503 0 
z
M 1109 2559 
L 2413 2559 
Q 2828 2559 3062 2645 
Q 3297 2731 3419 2920 
Q 3541 3109 3541 3331 
Q 3541 3656 3305 3865 
Q 3069 4075 2559 4075 
L 1109 4075 
L 1109 2559 
z
" transform="scale(0.015625)"/>
      </defs>
      <use xlink:href="#ArialMT-46"/>
      <use xlink:href="#ArialMT-61" x="61.083984"/>
      <use xlink:href="#ArialMT-6c" x="116.699219"/>
      <use xlink:href="#ArialMT-73" x="138.916016"/>
      <use xlink:href="#ArialMT-65" x="188.916016"/>
      <use xlink:href="#ArialMT-20" x="244.53125"/>
      <use xlink:href="#ArialMT-50" x="272.314453"/>
      <use xlink:href="#ArialMT-6f" x="339.013672"/>
      <use xlink:href="#ArialMT-73" x="394.628906"/>
      <use xlink:href="#ArialMT-69" x="444.628906"/>
      <use xlink:href="#ArialMT-74" x="466.845703"/>
      <use xlink:href="#ArialMT-69" x="494.628906"/>
      <use xlink:href="#ArialMT-76" x="516.845703"/>
      <use xlink:href="#ArialMT-65" x="566.845703"/>
      <use xlink:href="#ArialMT-20" x="622.460938"/>
      <use xlink:href="#ArialMT-52" x="650.244141"/>
      <use xlink:href="#ArialMT-61" x="722.460938"/>
      <use xlink:href="#ArialMT-74" x="778.076172"/>
      <use xlink:href="#ArialMT-65" x="805.859375"/>
     </g>
    </g>
   </g>
   <g id="matplotlib.axis_2">
    <g id="ytick_1">
     <g id="text_5">
      <!-- 0.0 -->
      <g style="fill: #262626" transform="translate(36.806875 281.820937) scale(0.28 -0.28)">
       <use xlink:href="#ArialMT-30"/>
       <use xlink:href="#ArialMT-2e" x="55.615234"/>
       <use xlink:href="#ArialMT-30" x="83.398438"/>
      </g>
     </g>
    </g>
    <g id="ytick_2">
     <g id="text_6">
      <!-- 0.5 -->
      <g style="fill: #262626" transform="translate(36.806875 155.820937) scale(0.28 -0.28)">
       <use xlink:href="#ArialMT-30"/>
       <use xlink:href="#ArialMT-2e" x="55.615234"/>
       <use xlink:href="#ArialMT-35" x="83.398438"/>
      </g>
     </g>
    </g>
    <g id="ytick_3">
     <g id="text_7">
      <!-- 1.0 -->
      <g style="fill: #262626" transform="translate(36.806875 29.820937) scale(0.28 -0.28)">
       <use xlink:href="#ArialMT-31"/>
       <use xlink:href="#ArialMT-2e" x="55.615234"/>
       <use xlink:href="#ArialMT-30" x="83.398438"/>
      </g>
     </g>
    </g>
    <g id="text_8">
     <!-- True Positive Rate -->
     <g style="fill: #262626" transform="translate(27.241875 260.427187) rotate(-90) scale(0.28 -0.28)">
      <defs>
       <path id="ArialMT-54" d="M 1659 0 
L 1659 4041 
L 150 4041 
L 150 4581 
L 3781 4581 
L 3781 4041 
L 2266 4041 
L 2266 0 
L 1659 0 
z
" transform="scale(0.015625)"/>
       <path id="ArialMT-72" d="M 416 0 
L 416 3319 
L 922 3319 
L 922 2816 
Q 1116 3169 1280 3281 
Q 1444 3394 1641 3394 
Q 1925 3394 2219 3213 
L 2025 2691 
Q 1819 2813 1613 2813 
Q 1428 2813 1281 2702 
Q 1134 2591 1072 2394 
Q 978 2094 978 1738 
L 978 0 
L 416 0 
z
" transform="scale(0.015625)"/>
       <path id="ArialMT-75" d="M 2597 0 
L 2597 488 
Q 2209 -75 1544 -75 
Q 1250 -75 995 37 
Q 741 150 617 320 
Q 494 491 444 738 
Q 409 903 409 1263 
L 409 3319 
L 972 3319 
L 972 1478 
Q 972 1038 1006 884 
Q 1059 663 1231 536 
Q 1403 409 1656 409 
Q 1909 409 2131 539 
Q 2353 669 2445 892 
Q 2538 1116 2538 1541 
L 2538 3319 
L 3100 3319 
L 3100 0 
L 2597 0 
z
" transform="scale(0.015625)"/>
      </defs>
      <use xlink:href="#ArialMT-54"/>
      <use xlink:href="#ArialMT-72" x="57.333984"/>
      <use xlink:href="#ArialMT-75" x="90.634766"/>
      <use xlink:href="#ArialMT-65" x="146.25"/>
      <use xlink:href="#ArialMT-20" x="201.865234"/>
      <use xlink:href="#ArialMT-50" x="229.648438"/>
      <use xlink:href="#ArialMT-6f" x="296.347656"/>
      <use xlink:href="#ArialMT-73" x="351.962891"/>
      <use xlink:href="#ArialMT-69" x="401.962891"/>
      <use xlink:href="#ArialMT-74" x="424.179688"/>
      <use xlink:href="#ArialMT-69" x="451.962891"/>
      <use xlink:href="#ArialMT-76" x="474.179688"/>
      <use xlink:href="#ArialMT-65" x="524.179688"/>
      <use xlink:href="#ArialMT-20" x="579.794922"/>
      <use xlink:href="#ArialMT-52" x="607.578125"/>
      <use xlink:href="#ArialMT-61" x="679.794922"/>
      <use xlink:href="#ArialMT-74" x="735.410156"/>
      <use xlink:href="#ArialMT-65" x="763.193359"/>
     </g>
    </g>
   </g>
   <g id="PolyCollection_1">
    <defs>
     <path id="m7ba6f083a0" d="M 96.98142 -81.283979 
L 96.98142 -79.121234 
L 100.568197 -211.44689 
L 104.154974 -231.142544 
L 107.741751 -241.748276 
L 111.328528 -249.026735 
L 114.915305 -254.658346 
L 118.502082 -259.281119 
L 122.088858 -263.236652 
L 125.675635 -266.70964 
L 129.262412 -269.817206 
L 132.849189 -272.613325 
L 136.435966 -275.178541 
L 140.022743 -277.541752 
L 143.60952 -279.733667 
L 147.196296 -281.783995 
L 150.783073 -283.709753 
L 154.36985 -285.512821 
L 157.956627 -287.218458 
L 161.543404 -288.847703 
L 165.130181 -290.385395 
L 168.716958 -291.844304 
L 172.303735 -293.234569 
L 175.890511 -294.567426 
L 179.477288 -295.837709 
L 183.064065 -297.051425 
L 186.650842 -298.211843 
L 190.237619 -299.328694 
L 193.824396 -300.403107 
L 197.411173 -301.432939 
L 200.997949 -302.424131 
L 204.584726 -303.371615 
L 208.171503 -304.289201 
L 211.75828 -305.174037 
L 215.345057 -306.029149 
L 218.931834 -306.85928 
L 222.518611 -307.654313 
L 226.105387 -308.426885 
L 229.692164 -309.173854 
L 233.278941 -309.900512 
L 236.865718 -310.60186 
L 240.452495 -311.274154 
L 244.039272 -311.927201 
L 247.626049 -312.568374 
L 251.212825 -313.183003 
L 254.799602 -313.775692 
L 258.386379 -314.347108 
L 261.973156 -314.90679 
L 265.559933 -315.454989 
L 269.14671 -315.985256 
L 272.733487 -316.501683 
L 276.320263 -317.0003 
L 279.90704 -317.488727 
L 283.493817 -317.96354 
L 287.080594 -318.424139 
L 290.667371 -318.868649 
L 294.254148 -319.306113 
L 297.840925 -319.731456 
L 301.427701 -320.145629 
L 305.014478 -320.543242 
L 308.601255 -320.934837 
L 312.188032 -321.316256 
L 315.774809 -321.690907 
L 319.361586 -322.052187 
L 322.948363 -322.407002 
L 326.535139 -322.746673 
L 330.121916 -323.080054 
L 333.708693 -323.402316 
L 337.29547 -323.722029 
L 340.882247 -324.035771 
L 344.469024 -324.338159 
L 348.055801 -324.632847 
L 351.642577 -324.922828 
L 355.229354 -325.198823 
L 358.816131 -325.47619 
L 362.402908 -325.741715 
L 365.989685 -326.000499 
L 369.576462 -326.255472 
L 373.163239 -326.497287 
L 376.750015 -326.738497 
L 380.336792 -326.966297 
L 383.923569 -327.189008 
L 387.510346 -327.414106 
L 391.097123 -327.629802 
L 394.6839 -327.840469 
L 398.270677 -328.041058 
L 401.857454 -328.241432 
L 405.44423 -328.430118 
L 409.031007 -328.615886 
L 412.617784 -328.797762 
L 416.204561 -328.974432 
L 419.791338 -329.14893 
L 423.378115 -329.326192 
L 426.964892 -329.492188 
L 430.551668 -329.657474 
L 434.138445 -329.821406 
L 437.725222 -329.982456 
L 441.311999 -330.136172 
L 444.898776 -330.2781 
L 448.485553 -330.413097 
L 452.07233 -330.513498 
L 452.07233 -330.513498 
L 452.07233 -330.513498 
L 448.485553 -330.5013 
L 444.898776 -330.48771 
L 441.311999 -330.473375 
L 437.725222 -330.457918 
L 434.138445 -330.441463 
L 430.551668 -330.423397 
L 426.964892 -330.40431 
L 423.378115 -330.381501 
L 419.791338 -330.358345 
L 416.204561 -330.33194 
L 412.617784 -330.303235 
L 409.031007 -330.272017 
L 405.44423 -330.240639 
L 401.857454 -330.206227 
L 398.270677 -330.17135 
L 394.6839 -330.13434 
L 391.097123 -330.095892 
L 387.510346 -330.054077 
L 383.923569 -330.010931 
L 380.336792 -329.965704 
L 376.750015 -329.917738 
L 373.163239 -329.869825 
L 369.576462 -329.820268 
L 365.989685 -329.76719 
L 362.402908 -329.713166 
L 358.816131 -329.657546 
L 355.229354 -329.599894 
L 351.642577 -329.53941 
L 348.055801 -329.476647 
L 344.469024 -329.411971 
L 340.882247 -329.345131 
L 337.29547 -329.277134 
L 333.708693 -329.206291 
L 330.121916 -329.133117 
L 326.535139 -329.057238 
L 322.948363 -328.977883 
L 319.361586 -328.899562 
L 315.774809 -328.817905 
L 312.188032 -328.735369 
L 308.601255 -328.650323 
L 305.014478 -328.561591 
L 301.427701 -328.469979 
L 297.840925 -328.376331 
L 294.254148 -328.280578 
L 290.667371 -328.183605 
L 287.080594 -328.080035 
L 283.493817 -327.97773 
L 279.90704 -327.870849 
L 276.320263 -327.761473 
L 272.733487 -327.645816 
L 269.14671 -327.529517 
L 265.559933 -327.409019 
L 261.973156 -327.282406 
L 258.386379 -327.153368 
L 254.799602 -327.019339 
L 251.212825 -326.876343 
L 247.626049 -326.727951 
L 244.039272 -326.577741 
L 240.452495 -326.418141 
L 236.865718 -326.25273 
L 233.278941 -326.083694 
L 229.692164 -325.902224 
L 226.105387 -325.713586 
L 222.518611 -325.516671 
L 218.931834 -325.31109 
L 215.345057 -325.095187 
L 211.75828 -324.864581 
L 208.171503 -324.623247 
L 204.584726 -324.36738 
L 200.997949 -324.094724 
L 197.411173 -323.803353 
L 193.824396 -323.499268 
L 190.237619 -323.17006 
L 186.650842 -322.819171 
L 183.064065 -322.450491 
L 179.477288 -322.04538 
L 175.890511 -321.615273 
L 172.303735 -321.15348 
L 168.716958 -320.650385 
L 165.130181 -320.105783 
L 161.543404 -319.513343 
L 157.956627 -318.865785 
L 154.36985 -318.14462 
L 150.783073 -317.349557 
L 147.196296 -316.46817 
L 143.60952 -315.474957 
L 140.022743 -314.357495 
L 136.435966 -313.082627 
L 132.849189 -311.616147 
L 129.262412 -309.888098 
L 125.675635 -307.832155 
L 122.088858 -305.364057 
L 118.502082 -302.293817 
L 114.915305 -298.383847 
L 111.328528 -293.181238 
L 107.741751 -285.812505 
L 104.154974 -274.495299 
L 100.568197 -253.836979 
L 96.98142 -81.283979 
z
" style="stroke: #66c2a5; stroke-opacity: 0.3"/>
    </defs>
    <g clip-path="url(#pf08c39d55c)">
     <use xlink:href="#m7ba6f083a0" x="0" y="350.31375" style="fill: #66c2a5; fill-opacity: 0.3; stroke: #66c2a5; stroke-opacity: 0.3"/>
    </g>
   </g>
   <g id="PolyCollection_2"/>
   <g id="PolyCollection_3">
    <defs>
     <path id="m9f123ce81c" d="M 96.98142 -80.085106 
L 96.98142 -78.769638 
L 100.568197 -105.805851 
L 104.154974 -113.089501 
L 107.741751 -118.619154 
L 111.328528 -123.329104 
L 114.915305 -127.527061 
L 118.502082 -131.382452 
L 122.088858 -134.985793 
L 125.675635 -138.399291 
L 129.262412 -141.672553 
L 132.849189 -144.828713 
L 136.435966 -147.869308 
L 140.022743 -150.830258 
L 143.60952 -153.695667 
L 147.196296 -156.502461 
L 150.783073 -159.231557 
L 154.36985 -161.919222 
L 157.956627 -164.579709 
L 161.543404 -167.185017 
L 165.130181 -169.754735 
L 168.716958 -172.283873 
L 172.303735 -174.779235 
L 175.890511 -177.267067 
L 179.477288 -179.705335 
L 183.064065 -182.132805 
L 186.650842 -184.523948 
L 190.237619 -186.907984 
L 193.824396 -189.283907 
L 197.411173 -191.646095 
L 200.997949 -193.983428 
L 204.584726 -196.31811 
L 208.171503 -198.635296 
L 211.75828 -200.940493 
L 215.345057 -203.220487 
L 218.931834 -205.496775 
L 222.518611 -207.77229 
L 226.105387 -210.043436 
L 229.692164 -212.297541 
L 233.278941 -214.541307 
L 236.865718 -216.77532 
L 240.452495 -219.003468 
L 244.039272 -221.240326 
L 247.626049 -223.47724 
L 251.212825 -225.718427 
L 254.799602 -227.957279 
L 258.386379 -230.183476 
L 261.973156 -232.412457 
L 265.559933 -234.62922 
L 269.14671 -236.856502 
L 272.733487 -239.082944 
L 276.320263 -241.316101 
L 279.90704 -243.537556 
L 283.493817 -245.75214 
L 287.080594 -247.963839 
L 290.667371 -250.182235 
L 294.254148 -252.399344 
L 297.840925 -254.612711 
L 301.427701 -256.820027 
L 305.014478 -259.027023 
L 308.601255 -261.226784 
L 312.188032 -263.417187 
L 315.774809 -265.602124 
L 319.361586 -267.775684 
L 322.948363 -269.944911 
L 326.535139 -272.1151 
L 330.121916 -274.272932 
L 333.708693 -276.41712 
L 337.29547 -278.564012 
L 340.882247 -280.677349 
L 344.469024 -282.786002 
L 348.055801 -284.888397 
L 351.642577 -286.970426 
L 355.229354 -289.029139 
L 358.816131 -291.068823 
L 362.402908 -293.094432 
L 365.989685 -295.107243 
L 369.576462 -297.088905 
L 373.163239 -299.051789 
L 376.750015 -300.989411 
L 380.336792 -302.901446 
L 383.923569 -304.775442 
L 387.510346 -306.613788 
L 391.097123 -308.416536 
L 394.6839 -310.197004 
L 398.270677 -311.930796 
L 401.857454 -313.633887 
L 405.44423 -315.279283 
L 409.031007 -316.862081 
L 412.617784 -318.392532 
L 416.204561 -319.866298 
L 419.791338 -321.288215 
L 423.378115 -322.647923 
L 426.964892 -323.934719 
L 430.551668 -325.152495 
L 434.138445 -326.306475 
L 437.725222 -327.386584 
L 441.311999 -328.362034 
L 444.898776 -329.211802 
L 448.485553 -329.991706 
L 452.07233 -330.513498 
L 452.07233 -330.513498 
L 452.07233 -330.513498 
L 448.485553 -330.460819 
L 444.898776 -330.305596 
L 441.311999 -330.010996 
L 437.725222 -329.644402 
L 434.138445 -329.260837 
L 430.551668 -328.845579 
L 426.964892 -328.382563 
L 423.378115 -327.878703 
L 419.791338 -327.319215 
L 416.204561 -326.707328 
L 412.617784 -326.055092 
L 409.031007 -325.360362 
L 405.44423 -324.614769 
L 401.857454 -323.833631 
L 398.270677 -323.013863 
L 394.6839 -322.146841 
L 391.097123 -321.241423 
L 387.510346 -320.298216 
L 383.923569 -319.32493 
L 380.336792 -318.324552 
L 376.750015 -317.286207 
L 373.163239 -316.205253 
L 369.576462 -315.091365 
L 365.989685 -313.964098 
L 362.402908 -312.809096 
L 358.816131 -311.618483 
L 355.229354 -310.398299 
L 351.642577 -309.165404 
L 348.055801 -307.90032 
L 344.469024 -306.613167 
L 340.882247 -305.300645 
L 337.29547 -303.967943 
L 333.708693 -302.616037 
L 330.121916 -301.221656 
L 326.535139 -299.82087 
L 322.948363 -298.409788 
L 319.361586 -296.963887 
L 315.774809 -295.499666 
L 312.188032 -294.00273 
L 308.601255 -292.480364 
L 305.014478 -290.944192 
L 301.427701 -289.383411 
L 297.840925 -287.795096 
L 294.254148 -286.179094 
L 290.667371 -284.537384 
L 287.080594 -282.880179 
L 283.493817 -281.188837 
L 279.90704 -279.47453 
L 276.320263 -277.737512 
L 272.733487 -275.97003 
L 269.14671 -274.171322 
L 265.559933 -272.354639 
L 261.973156 -270.516021 
L 258.386379 -268.647218 
L 254.799602 -266.747358 
L 251.212825 -264.824343 
L 247.626049 -262.86834 
L 244.039272 -260.888981 
L 240.452495 -258.863463 
L 236.865718 -256.810128 
L 233.278941 -254.720211 
L 229.692164 -252.590257 
L 226.105387 -250.43531 
L 222.518611 -248.256443 
L 218.931834 -246.029614 
L 215.345057 -243.760506 
L 211.75828 -241.449341 
L 208.171503 -239.105658 
L 204.584726 -236.711486 
L 200.997949 -234.271738 
L 197.411173 -231.791856 
L 193.824396 -229.267584 
L 190.237619 -226.680977 
L 186.650842 -224.02489 
L 183.064065 -221.322454 
L 179.477288 -218.567029 
L 175.890511 -215.741507 
L 172.303735 -212.837759 
L 168.716958 -209.852823 
L 165.130181 -206.79504 
L 161.543404 -203.649449 
L 157.956627 -200.405194 
L 154.36985 -197.055818 
L 150.783073 -193.610312 
L 147.196296 -190.031321 
L 143.60952 -186.298216 
L 140.022743 -182.425224 
L 136.435966 -178.383295 
L 132.849189 -174.140282 
L 129.262412 -169.6893 
L 125.675635 -164.973992 
L 122.088858 -159.953971 
L 118.502082 -154.535723 
L 114.915305 -148.615988 
L 111.328528 -142.093561 
L 107.741751 -134.706565 
L 104.154974 -125.976823 
L 100.568197 -114.682318 
L 96.98142 -80.085106 
z
" style="stroke: #a6d854; stroke-opacity: 0.3"/>
    </defs>
    <g clip-path="url(#pf08c39d55c)">
     <use xlink:href="#m9f123ce81c" x="0" y="350.31375" style="fill: #a6d854; fill-opacity: 0.3; stroke: #a6d854; stroke-opacity: 0.3"/>
    </g>
   </g>
   <g id="PolyCollection_4"/>
   <g id="line2d_1">
    <path d="M 96.98142 270.500714 
L 100.568197 116.807001 
L 104.154974 95.747343 
L 107.741751 84.081342 
L 111.328528 76.191502 
L 114.915305 70.338494 
L 118.502082 65.735629 
L 122.088858 61.964655 
L 125.675635 58.803917 
L 129.262412 56.079281 
L 132.849189 53.714496 
L 136.435966 51.635537 
L 140.022743 49.779071 
L 143.60952 48.109178 
L 147.196296 46.589896 
L 150.783073 45.20687 
L 154.36985 43.937767 
L 157.956627 42.764555 
L 161.543404 41.681828 
L 165.130181 40.677264 
L 168.716958 39.740629 
L 172.303735 38.863266 
L 175.890511 38.042173 
L 179.477288 37.269576 
L 183.064065 36.537273 
L 186.650842 35.855945 
L 190.237619 35.204396 
L 193.824396 34.586288 
L 197.411173 34.005788 
L 200.997949 33.448677 
L 204.584726 32.922433 
L 208.171503 32.421551 
L 211.75828 31.944458 
L 215.345057 31.486415 
L 218.931834 31.050411 
L 222.518611 30.634385 
L 226.105387 30.233402 
L 229.692164 29.847825 
L 233.278941 29.475144 
L 236.865718 29.122222 
L 240.452495 28.780523 
L 244.039272 28.449959 
L 247.626049 28.132601 
L 251.212825 27.823814 
L 254.799602 27.526313 
L 258.386379 27.243808 
L 261.973156 26.969696 
L 265.559933 26.701116 
L 269.14671 26.44362 
L 272.733487 26.19414 
L 276.320263 25.949679 
L 279.90704 25.714641 
L 283.493817 25.485653 
L 287.080594 25.265148 
L 290.667371 25.047058 
L 294.254148 24.838015 
L 297.840925 24.633206 
L 301.427701 24.433382 
L 305.014478 24.239679 
L 308.601255 24.050627 
L 312.188032 23.868091 
L 315.774809 23.68997 
L 319.361586 23.515889 
L 322.948363 23.347085 
L 326.535139 23.180473 
L 330.121916 23.019235 
L 333.708693 22.863558 
L 337.29547 22.711133 
L 340.882247 22.563326 
L 344.469024 22.419316 
L 348.055801 22.279486 
L 351.642577 22.142899 
L 355.229354 22.011955 
L 358.816131 21.884088 
L 362.402908 21.761122 
L 365.989685 21.641453 
L 369.576462 21.523666 
L 373.163239 21.412856 
L 376.750015 21.304155 
L 380.336792 21.197984 
L 383.923569 21.096172 
L 387.510346 20.996458 
L 391.097123 20.90019 
L 394.6839 20.809199 
L 398.270677 20.721927 
L 401.857454 20.637452 
L 405.44423 20.555639 
L 409.031007 20.47839 
L 412.617784 20.401902 
L 416.204561 20.32972 
L 419.791338 20.261093 
L 423.378115 20.196715 
L 426.964892 20.134672 
L 430.551668 20.078366 
L 434.138445 20.023854 
L 437.725222 19.972314 
L 441.311999 19.923512 
L 444.898776 19.878351 
L 448.485553 19.835403 
L 452.07233 19.800252 
" clip-path="url(#pf08c39d55c)" style="fill: none; stroke: #66c2a5; stroke-width: 1.75; stroke-linecap: round"/>
   </g>
   <g id="line2d_2">
    <path d="M 96.98142 271.798965 
L 100.568197 236.356798 
L 104.154974 230.303985 
L 107.741751 225.157047 
L 111.328528 220.450288 
L 114.915305 215.92642 
L 118.502082 211.587649 
L 122.088858 207.427862 
L 125.675635 203.405926 
L 129.262412 199.495442 
L 132.849189 195.644965 
L 136.435966 191.882621 
L 140.022743 188.212969 
L 143.60952 184.632517 
L 147.196296 181.169383 
L 150.783073 177.766383 
L 154.36985 174.437138 
L 157.956627 171.183418 
L 161.543404 168.028097 
L 165.130181 164.90366 
L 168.716958 161.842082 
L 172.303735 158.850539 
L 175.890511 155.891709 
L 179.477288 153.003297 
L 183.064065 150.153898 
L 186.650842 147.348977 
L 190.237619 144.580335 
L 193.824396 141.825833 
L 197.411173 139.105926 
L 200.997949 136.432413 
L 204.584726 133.788744 
L 208.171503 131.193216 
L 211.75828 128.6292 
L 215.345057 126.106915 
L 218.931834 123.638522 
L 222.518611 121.194151 
L 226.105387 118.779279 
L 229.692164 116.415078 
L 233.278941 114.094404 
L 236.865718 111.79909 
L 240.452495 109.538546 
L 244.039272 107.321957 
L 247.626049 105.145513 
L 251.212825 102.992701 
L 254.799602 100.869598 
L 258.386379 98.777118 
L 261.973156 96.706865 
L 265.559933 94.686108 
L 269.14671 92.703576 
L 272.733487 90.723315 
L 276.320263 88.766521 
L 279.90704 86.853977 
L 283.493817 84.959279 
L 287.080594 83.090657 
L 290.667371 81.243371 
L 294.254148 79.431473 
L 297.840925 77.633595 
L 301.427701 75.839704 
L 305.014478 74.081741 
L 308.601255 72.344283 
L 312.188032 70.597051 
L 315.774809 68.897152 
L 319.361586 67.211371 
L 322.948363 65.555265 
L 326.535139 63.913312 
L 330.121916 62.281126 
L 333.708693 60.654681 
L 337.29547 59.058314 
L 340.882247 57.476617 
L 344.469024 55.907553 
L 348.055801 54.342215 
L 351.642577 52.809958 
L 355.229354 51.30272 
L 358.816131 49.805076 
L 362.402908 48.316918 
L 365.989685 46.858659 
L 369.576462 45.425437 
L 373.163239 44.006495 
L 376.750015 42.605462 
L 380.336792 41.239425 
L 383.923569 39.877165 
L 387.510346 38.523036 
L 391.097123 37.209758 
L 394.6839 35.917787 
L 398.270677 34.656886 
L 401.857454 33.403284 
L 405.44423 32.189481 
L 409.031007 31.003614 
L 412.617784 29.862357 
L 416.204561 28.75996 
L 419.791338 27.671573 
L 423.378115 26.629991 
L 426.964892 25.622342 
L 430.551668 24.646725 
L 434.138445 23.711735 
L 437.725222 22.834074 
L 441.311999 22.006743 
L 444.898776 21.226069 
L 448.485553 20.505369 
L 452.07233 19.800252 
" clip-path="url(#pf08c39d55c)" style="fill: none; stroke: #fc8d62; stroke-width: 1.75; stroke-linecap: round"/>
   </g>
   <g id="line2d_3">
    <path d="M 96.98142 271.165187 
L 100.568197 240.337066 
L 104.154974 231.191934 
L 107.741751 224.169631 
L 111.328528 218.19928 
L 114.915305 212.895585 
L 118.502082 208.047291 
L 122.088858 203.559377 
L 125.675635 199.351778 
L 129.262412 195.355509 
L 132.849189 191.540342 
L 136.435966 187.880461 
L 140.022743 184.353451 
L 143.60952 180.953906 
L 147.196296 177.648361 
L 150.783073 174.454603 
L 154.36985 171.343658 
L 157.956627 168.290485 
L 161.543404 165.314945 
L 165.130181 162.40378 
L 168.716958 159.554714 
L 172.303735 156.75703 
L 175.890511 154.001434 
L 179.477288 151.308822 
L 183.064065 148.655208 
L 186.650842 146.04536 
L 190.237619 143.460985 
L 193.824396 140.914842 
L 197.411173 138.406502 
L 200.997949 135.932438 
L 204.584726 133.47942 
L 208.171503 131.057918 
L 211.75828 128.668021 
L 215.345057 126.306729 
L 218.931834 123.968759 
L 222.518611 121.653077 
L 226.105387 119.364828 
L 229.692164 117.097024 
L 233.278941 114.847046 
L 236.865718 112.6231 
L 240.452495 110.421614 
L 244.039272 108.231036 
L 247.626049 106.066103 
L 251.212825 103.912095 
L 254.799602 101.777761 
L 258.386379 99.662216 
L 261.973156 97.563184 
L 265.559933 95.487064 
L 269.14671 93.418968 
L 272.733487 91.361717 
L 276.320263 89.320061 
L 279.90704 87.301805 
L 283.493817 85.300237 
L 287.080594 83.313872 
L 290.667371 81.345653 
L 294.254148 79.387662 
L 297.840925 77.447361 
L 301.427701 75.527092 
L 305.014478 73.624531 
L 308.601255 71.740837 
L 312.188032 69.870033 
L 315.774809 68.018008 
L 319.361586 66.192004 
L 322.948363 64.379957 
L 326.535139 62.590695 
L 330.121916 60.813498 
L 333.708693 59.046153 
L 337.29547 57.306392 
L 340.882247 55.592837 
L 344.469024 53.894962 
L 348.055801 52.217004 
L 351.642577 50.562116 
L 355.229354 48.938407 
L 358.816131 47.330729 
L 362.402908 45.749018 
L 365.989685 44.197262 
L 369.576462 42.676659 
L 373.163239 41.172369 
L 376.750015 39.700775 
L 380.336792 38.269242 
L 383.923569 36.878916 
L 387.510346 35.520906 
L 391.097123 34.197353 
L 394.6839 32.909697 
L 398.270677 31.666735 
L 401.857454 30.470286 
L 405.44423 29.32264 
L 409.031007 28.222797 
L 412.617784 27.179852 
L 416.204561 26.188642 
L 419.791338 25.246031 
L 423.378115 24.365565 
L 426.964892 23.553727 
L 430.551668 22.796882 
L 434.138445 22.099944 
L 437.725222 21.451123 
L 441.311999 20.84128 
L 444.898776 20.321068 
L 448.485553 19.966309 
L 452.07233 19.800252 
" clip-path="url(#pf08c39d55c)" style="fill: none; stroke: #a6d854; stroke-width: 1.75; stroke-linecap: round"/>
   </g>
   <g id="line2d_4">
    <path d="M 96.98142 270.444554 
L 100.568197 241.267237 
L 104.154974 234.63728 
L 107.741751 229.082368 
L 111.328528 224.041119 
L 114.915305 219.307132 
L 118.502082 214.767303 
L 122.088858 210.45103 
L 125.675635 206.289447 
L 129.262412 202.225843 
L 132.849189 198.299162 
L 136.435966 194.44214 
L 140.022743 190.657012 
L 143.60952 186.96157 
L 147.196296 183.327496 
L 150.783073 179.733191 
L 154.36985 176.206152 
L 157.956627 172.739577 
L 161.543404 169.301106 
L 165.130181 165.913329 
L 168.716958 162.602256 
L 172.303735 159.292261 
L 175.890511 156.029614 
L 179.477288 152.832685 
L 183.064065 149.677266 
L 186.650842 146.541108 
L 190.237619 143.43884 
L 193.824396 140.407594 
L 197.411173 137.393006 
L 200.997949 134.389636 
L 204.584726 131.449229 
L 208.171503 128.535966 
L 211.75828 125.656428 
L 215.345057 122.846521 
L 218.931834 120.058033 
L 222.518611 117.329735 
L 226.105387 114.616778 
L 229.692164 111.914897 
L 233.278941 109.287375 
L 236.865718 106.700047 
L 240.452495 104.143141 
L 244.039272 101.611319 
L 247.626049 99.146671 
L 251.212825 96.685625 
L 254.799602 94.28194 
L 258.386379 91.928825 
L 261.973156 89.569707 
L 265.559933 87.282153 
L 269.14671 85.028845 
L 272.733487 82.823166 
L 276.320263 80.676467 
L 279.90704 78.538172 
L 283.493817 76.462491 
L 287.080594 74.41778 
L 290.667371 72.390705 
L 294.254148 70.42973 
L 297.840925 68.465045 
L 301.427701 66.566468 
L 305.014478 64.704626 
L 308.601255 62.860636 
L 312.188032 61.069328 
L 315.774809 59.288551 
L 319.361586 57.580764 
L 322.948363 55.906625 
L 326.535139 54.243877 
L 330.121916 52.631386 
L 333.708693 51.050978 
L 337.29547 49.513499 
L 340.882247 48.015864 
L 344.469024 46.544206 
L 348.055801 45.08663 
L 351.642577 43.693742 
L 355.229354 42.320899 
L 358.816131 40.982288 
L 362.402908 39.700987 
L 365.989685 38.431312 
L 369.576462 37.207062 
L 373.163239 36.012032 
L 376.750015 34.865592 
L 380.336792 33.760247 
L 383.923569 32.659902 
L 387.510346 31.605877 
L 391.097123 30.598827 
L 394.6839 29.616842 
L 398.270677 28.671607 
L 401.857454 27.770469 
L 405.44423 26.910527 
L 409.031007 26.075942 
L 412.617784 25.279799 
L 416.204561 24.533512 
L 419.791338 23.820049 
L 423.378115 23.147482 
L 426.964892 22.524472 
L 430.551668 21.9477 
L 434.138445 21.422388 
L 437.725222 20.956951 
L 441.311999 20.551881 
L 444.898776 20.210997 
L 448.485553 19.948711 
L 452.07233 19.800252 
" clip-path="url(#pf08c39d55c)" style="fill: none; stroke: #e78ac3; stroke-width: 1.75; stroke-linecap: round"/>
   </g>
   <g id="line2d_5">
    <path d="M 96.98142 271.8 
L 452.07233 19.8 
" clip-path="url(#pf08c39d55c)" style="fill: none; stroke-dasharray: 6.475,2.8; stroke-dashoffset: 0; stroke: #1a1a1a; stroke-width: 1.75"/>
   </g>
   <g id="patch_3">
    <path d="M 79.226875 284.4 
L 79.226875 7.2 
" style="fill: none; stroke: #262626; stroke-width: 0.8; stroke-linejoin: miter; stroke-linecap: square"/>
   </g>
   <g id="patch_4">
    <path d="M 79.226875 284.4 
L 469.826875 284.4 
" style="fill: none; stroke: #262626; stroke-width: 0.8; stroke-linejoin: miter; stroke-linecap: square"/>
   </g>
  </g>
 </g>
 <defs>
  <clipPath id="pf08c39d55c">
   <rect x="79.226875" y="7.2" width="390.6" height="277.2"/>
  </clipPath>
 </defs>
</svg>
