<?xml version="1.0" encoding="utf-8" standalone="no"?>
<!DOCTYPE svg PUBLIC "-//W3C//DTD SVG 1.1//EN"
  "http://www.w3.org/Graphics/SVG/1.1/DTD/svg11.dtd">
<svg xmlns:xlink="http://www.w3.org/1999/xlink" width="478.73233pt" height="350.31375pt" viewBox="0 0 478.73233 350.31375" xmlns="http://www.w3.org/2000/svg" version="1.1">
 <metadata>
  <rdf:RDF xmlns:dc="http://purl.org/dc/elements/1.1/" xmlns:cc="http://creativecommons.org/ns#" xmlns:rdf="http://www.w3.org/1999/02/22-rdf-syntax-ns#">
   <cc:Work>
    <dc:type rdf:resource="http://purl.org/dc/dcmitype/StillImage"/>
    <dc:date>2026-07-29T13:20:16.332529</dc:date>
    <dc:format>image/svg+xml</dc:format>
    <dc:creator>
     <cc:Agent>
      <dc:title>Matplotlib v3.9.2, https://matplotlib.org/</dc:title>
     </cc:Agent>
    </dc:creator>
   </cc:Work>
  </rdf:RDF>
 </metadata>
 <defs>
  <style type="text/css">*{stroke-linejoin: round; stroke-linecap: butt}</style>
 </defs>
 <g id="figure_1">
  <g id="patch_1">
   <path d="M -0 350.31375 
L 478.73233 350.31375 
L 478.73233 0 
L -0 0 
z
" style="fill: #ffffff"/>
  </g>
  <g id="axes_1">
   <g id="patch_2">
    <path d="M 79.226875 284.4 
L 469.826875 284.4 
L 469.826875 7.2 
L 79.226875 7.2 
z
" style="fill: #ffffff"/>
   </g>
   <g id="matplotlib.axis_1">
    <g id="xtick_1">
     <g id="text_1">
      <!-- 0.0 -->
      <g style="fill: #262626" transform="translate(77.52142 307.941875) scale(0.28 -0.28)">
       <defs>
        <path id="ArialMT-30" d="M 266 2259 
Q 266 3072 433 3567 
Q 600 4063 929 4331 
Q 1259 4600 1759 4600 
Q 2128 4600 2406 4451 
Q 2684 4303 2865 4023 
Q 3047 3744 3150 3342 
Q 3253 2941 3253 2259 
Q 3253 1453 3087 958 
Q 2922 463 2592 192 
Q 2263 -78 1759 -78 
Q 1097 -78 719 397 
Q 266 969 266 2259 
z
M 844 2259 
Q 844 1131 1108 757 
Q 1372 384 1759 384 
Q 2147 384 2411 759 
Q 2675 1134 2675 2259 
Q 2675 3391 2411 3762 
Q 2147 4134 1753 4134 
Q 1366 4134 1134 3806 
Q 844 3388 844 2259 
z
" transform="scale(0.015625)"/>
        <path id="ArialMT-2e" d="M 581 0 
L 581 641 
L 1222 641 
L 1222 0 
L 581 0 
z
" transform="scale(0.015625)"/>
       </defs>
       <use xlink:href="#ArialMT-30"/>
       <use xlink:href="#ArialMT-2e" x="55.615234"/>
       <use xlink:href="#ArialMT-30" x="83.398438"/>
      </g>
     </g>
    </g>
    <g id="xtick_2">
     <g id="text_2">
      <!-- 0.5 -->
      <g style="fill: #262626" transform="translate(255.066875 307.941875) scale(0.28 -0.28)">
       <defs>
        <path id="ArialMT-35" d="M 266 1200 
L 856 1250 
Q 922 819 1161 601 
Q 1400 384 1738 384 
Q 2144 384 2425 690 
Q 2706 997 2706 1503 
Q 2706 1984 2436 2262 
Q 2166 2541 1728 2541 
Q 1456 2541 1237 2417 
Q 1019 2294 894 2097 
L 366 2166 
L 809 4519 
L 3088 4519 
L 3088 3981 
L 1259 3981 
L 1013 2750 
Q 1425 3038 1878 3038 
Q 2478 3038 2890 2622 
Q 3303 2206 3303 1553 
Q 3303 931 2941 478 
Q 2500 -78 1738 -78 
Q 1113 -78 717 272 
Q 322 622 266 1200 
z
" transform="scale(0.015625)"/>
       </defs>
       <use xlink:href="#ArialMT-30"/>
       <use xlink:href="#ArialMT-2e" x="55.615234"/>
       <use xlink:href="#ArialMT-35" x="83.398438"/>
      </g>
     </g>
    </g>
    <g id="xtick_3">
     <g id="text_3">
      <!-- 1.0 -->
      <g style="fill: #262626" transform="translate(432.61233 307.941875) scale(0.28 -0.28)">
       <defs>
        <path id="ArialMT-31" d="M 2384 0 
L 1822 0 
L 1822 3584 
Q 1619 3391 1289 3197 
Q 959 3003 697 2906 
L 697 3450 
Q 1169 3672 1522 3987 
Q 1875 4303 2022 4600 
L 2384 4600 
L 2384 0 
z
" transform="scale(0.015625)"/>
       </defs>
       <use xlink:href="#ArialMT-31"/>
       <use xlink:href="#ArialMT-2e" x="55.615234"/>
       <use xlink:href="#ArialMT-30" x="83.398438"/>
      </g>
     </g>
    </g>
    <g id="text_4">
     <!-- Recall -->
     <g style="fill: #262626" transform="translate(235.624375 337.54875) scale(0.28 -0.28)">
      <defs>
       <path id="ArialMT-52" d="M 503 0 
L 503 4581 
L 2534 4581 
Q 3147 4581 3465 4457 
Q 3784 4334 3975 4021 
Q 4166 3709 4166 3331 
Q 4166 2844 3850 2509 
Q 3534 2175 2875 2084 
Q 3116 1969 3241 1856 
Q 3506 1613 3744 1247 
L 4541 0 
L 3778 0 
L 3172 953 
Q 2906 1366 2734 1584 
Q 2563 1803 2427 1890 
Q 2291 1978 2150 2013 
Q 2047 2034 1813 2034 
L 1109 2034 
L 1109 0 
L 503 0 
z
M 1109 2559 
L 2413 2559 
Q 2828 2559 3062 2645 
Q 3297 2731 3419 2920 
Q 3541 3109 3541 3331 
Q 3541 3656 3305 3865 
Q 3069 4075 2559 4075 
L 1109 4075 
L 1109 2559 
z
" transform="scale(0.015625)"/>
       <path id="ArialMT-65" d="M 2694 1069 
L 3275 997 
Q 3138 488 2766 206 
Q 2394 -75 1816 -75 
Q 1088 -75 661 373 
Q 234 822 234 1631 
Q 234 2469 665 2931 
Q 1097 3394 1784 3394 
Q 2450 3394 2872 2941 
Q 3294 2488 3294 1666 
Q 3294 1616 3291 1516 
L 816 1516 
Q 847 969 1125 678 
Q 1403 388 1819 388 
Q 2128 388 2347 550 
Q 2566 713 2694 1069 
z
M 847 1978 
L 2700 1978 
Q 2663 2397 2488 2606 
Q 2219 2931 1791 2931 
Q 1403 2931 1139 2672 
Q 875 2413 847 1978 
z
" transform="scale(0.015625)"/>
       <path id="ArialMT-63" d="M 2588 1216 
L 3141 1144 
Q 3050 572 2676 248 
Q 2303 -75 1759 -75 
Q 1078 -75 664 370 
Q 250 816 250 1647 
Q 250 2184 428 2587 
Q 606 2991 970 3192 
Q 1334 3394 1763 3394 
Q 2303 3394 2647 3120 
Q 2991 2847 3088 2344 
L 2541 2259 
Q 2463 2594 2264 2762 
Q 2066 2931 1784 2931 
Q 1359 2931 1093 2626 
Q 828 2322 828 1663 
Q 828 994 1084 691 
Q 1341 388 1753 388 
Q 2084 388 2306 591 
Q 2528 794 2588 1216 
z
" transform="scale(0.015625)"/>
       <path id="ArialMT-61" d="M 2588 409 
Q 2275 144 1986 34 
Q 1697 -75 1366 -75 
Q 819 -75 525 192 
Q 231 459 231 875 
Q 231 1119 342 1320 
Q 453 1522 633 1644 
Q 813 1766 1038 1828 
Q 1203 1872 1538 1913 
Q 2219 1994 2541 2106 
Q 2544 2222 2544 2253 
Q 2544 2597 2384 2738 
Q 2169 2928 1744 2928 
Q 1347 2928 1158 2789 
Q 969 2650 878 2297 
L 328 2372 
Q 403 2725 575 2942 
Q 747 3159 1072 3276 
Q 1397 3394 1825 3394 
Q 2250 3394 2515 3294 
Q 2781 3194 2906 3042 
Q 3031 2891 3081 2659 
Q 3109 2516 3109 2141 
L 3109 1391 
Q 3109 606 3145 398 
Q 3181 191 3288 0 
L 2700 0 
Q 2613 175 2588 409 
z
M 2541 1666 
Q 2234 1541 1622 1453 
Q 1275 1403 1131 1340 
Q 988 1278 909 1158 
Q 831 1038 831 891 
Q 831 666 1001 516 
Q 1172 366 1500 366 
Q 1825 366 2078 508 
Q 2331 650 2450 897 
Q 2541 1088 2541 1459 
L 2541 1666 
z
" transform="scale(0.015625)"/>
       <path id="ArialMT-6c" d="M 409 0 
L 409 4581 
L 972 4581 
L 972 0 
L 409 0 
z
" transform="scale(0.015625)"/>
      </defs>
      <use xlink:href="#ArialMT-52"/>
      <use xlink:href="#ArialMT-65" x="72.216797"/>
      <use xlink:href="#ArialMT-63" x="127.832031"/>
      <use xlink:href="#ArialMT-61" x="177.832031"/>
      <use xlink:href="#ArialMT-6c" x="233.447266"/>
      <use xlink:href="#ArialMT-6c" x="255.664062"/>
     </g>
    </g>
   </g>
   <g id="matplotlib.axis_2">
    <g id="ytick_1">
     <g id="text_5">
      <!-- 0.0 -->
      <g style="fill: #262626" transform="translate(36.806875 281.820937) scale(0.28 -0.28)">
       <use xlink:href="#ArialMT-30"/>
       <use xlink:href="#ArialMT-2e" x="55.615234"/>
       <use xlink:href="#ArialMT-30" x="83.398438"/>
      </g>
     </g>
    </g>
    <g id="ytick_2">
     <g id="text_6">
      <!-- 0.5 -->
      <g style="fill: #262626" transform="translate(36.806875 155.820937) scale(0.28 -0.28)">
       <use xlink:href="#ArialMT-30"/>
       <use xlink:href="#ArialMT-2e" x="55.615234"/>
       <use xlink:href="#ArialMT-35" x="83.398438"/>
      </g>
     </g>
    </g>
    <g id="ytick_3">
     <g id="text_7">
      <!-- 1.0 -->
      <g style="fill: #262626" transform="translate(36.806875 29.820937) scale(0.28 -0.28)">
       <use xlink:href="#ArialMT-31"/>
       <use xlink:href="#ArialMT-2e" x="55.615234"/>
       <use xlink:href="#ArialMT-30" x="83.398438"/>
      </g>
     </g>
    </g>
    <g id="text_8">
     <!-- Macro Precision -->
     <g style="fill: #262626" transform="translate(27.241875 246.160312) rotate(-90) scale(0.28 -0.28)">
      <defs>
       <path id="ArialMT-4d" d="M 475 0 
L 475 4581 
L 1388 4581 
L 2472 1338 
Q 2622 884 2691 659 
Q 2769 909 2934 1394 
L 4031 4581 
L 4847 4581 
L 4847 0 
L 4263 0 
L 4263 3834 
L 2931 0 
L 2384 0 
L 1059 3900 
L 1059 0 
L 475 0 
z
" transform="scale(0.015625)"/>
       <path id="ArialMT-72" d="M 416 0 
L 416 3319 
L 922 3319 
L 922 2816 
Q 1116 3169 1280 3281 
Q 1444 3394 1641 3394 
Q 1925 3394 2219 3213 
L 2025 2691 
Q 1819 2813 1613 2813 
Q 1428 2813 1281 2702 
Q 1134 2591 1072 2394 
Q 978 2094 978 1738 
L 978 0 
L 416 0 
z
" transform="scale(0.015625)"/>
       <path id="ArialMT-6f" d="M 213 1659 
Q 213 2581 725 3025 
Q 1153 3394 1769 3394 
Q 2453 3394 2887 2945 
Q 3322 2497 3322 1706 
Q 3322 1066 3130 698 
Q 2938 331 2570 128 
Q 2203 -75 1769 -75 
Q 1072 -75 642 372 
Q 213 819 213 1659 
z
M 791 1659 
Q 791 1022 1069 705 
Q 1347 388 1769 388 
Q 2188 388 2466 706 
Q 2744 1025 2744 1678 
Q 2744 2294 2464 2611 
Q 2184 2928 1769 2928 
Q 1347 2928 1069 2612 
Q 791 2297 791 1659 
z
" transform="scale(0.015625)"/>
       <path id="ArialMT-20" transform="scale(0.015625)"/>
       <path id="ArialMT-50" d="M 494 0 
L 494 4581 
L 2222 4581 
Q 2678 4581 2919 4538 
Q 3256 4481 3484 4323 
Q 3713 4166 3852 3881 
Q 3991 3597 3991 3256 
Q 3991 2672 3619 2267 
Q 3247 1863 2275 1863 
L 1100 1863 
L 1100 0 
L 494 0 
z
M 1100 2403 
L 2284 2403 
Q 2872 2403 3119 2622 
Q 3366 2841 3366 3238 
Q 3366 3525 3220 3729 
Q 3075 3934 2838 4000 
Q 2684 4041 2272 4041 
L 1100 4041 
L 1100 2403 
z
" transform="scale(0.015625)"/>
       <path id="ArialMT-69" d="M 425 3934 
L 425 4581 
L 988 4581 
L 988 3934 
L 425 3934 
z
M 425 0 
L 425 3319 
L 988 3319 
L 988 0 
L 425 0 
z
" transform="scale(0.015625)"/>
       <path id="ArialMT-73" d="M 197 991 
L 753 1078 
Q 800 744 1014 566 
Q 1228 388 1613 388 
Q 2000 388 2187 545 
Q 2375 703 2375 916 
Q 2375 1106 2209 1216 
Q 2094 1291 1634 1406 
Q 1016 1563 777 1677 
Q 538 1791 414 1992 
Q 291 2194 291 2438 
Q 291 2659 392 2848 
Q 494 3038 669 3163 
Q 800 3259 1026 3326 
Q 1253 3394 1513 3394 
Q 1903 3394 2198 3281 
Q 2494 3169 2634 2976 
Q 2775 2784 2828 2463 
L 2278 2388 
Q 2241 2644 2061 2787 
Q 1881 2931 1553 2931 
Q 1166 2931 1000 2803 
Q 834 2675 834 2503 
Q 834 2394 903 2306 
Q 972 2216 1119 2156 
Q 1203 2125 1616 2013 
Q 2213 1853 2448 1751 
Q 2684 1650 2818 1456 
Q 2953 1263 2953 975 
Q 2953 694 2789 445 
Q 2625 197 2315 61 
Q 2006 -75 1616 -75 
Q 969 -75 630 194 
Q 291 463 197 991 
z
" transform="scale(0.015625)"/>
       <path id="ArialMT-6e" d="M 422 0 
L 422 3319 
L 928 3319 
L 928 2847 
Q 1294 3394 1984 3394 
Q 2284 3394 2536 3286 
Q 2788 3178 2913 3003 
Q 3038 2828 3088 2588 
Q 3119 2431 3119 2041 
L 3119 0 
L 2556 0 
L 2556 2019 
Q 2556 2363 2490 2533 
Q 2425 2703 2258 2804 
Q 2091 2906 1866 2906 
Q 1506 2906 1245 2678 
Q 984 2450 984 1813 
L 984 0 
L 422 0 
z
" transform="scale(0.015625)"/>
      </defs>
      <use xlink:href="#ArialMT-4d"/>
      <use xlink:href="#ArialMT-61" x="83.300781"/>
      <use xlink:href="#ArialMT-63" x="138.916016"/>
      <use xlink:href="#ArialMT-72" x="188.916016"/>
      <use xlink:href="#ArialMT-6f" x="222.216797"/>
      <use xlink:href="#ArialMT-20" x="277.832031"/>
      <use xlink:href="#ArialMT-50" x="305.615234"/>
      <use xlink:href="#ArialMT-72" x="372.314453"/>
      <use xlink:href="#ArialMT-65" x="405.615234"/>
      <use xlink:href="#ArialMT-63" x="461.230469"/>
      <use xlink:href="#ArialMT-69" x="511.230469"/>
      <use xlink:href="#ArialMT-73" x="533.447266"/>
      <use xlink:href="#ArialMT-69" x="583.447266"/>
      <use xlink:href="#ArialMT-6f" x="605.664062"/>
      <use xlink:href="#ArialMT-6e" x="661.279297"/>
     </g>
    </g>
   </g>
   <g id="PolyCollection_1">
    <defs>
     <path id="m61664996db" d="M 96.98142 -330.513498 
L 96.98142 -330.513498 
L 100.568197 -330.513498 
L 104.154974 -330.513498 
L 107.741751 -330.513498 
L 111.328528 -330.513498 
L 114.915305 -330.513498 
L 118.502082 -330.513498 
L 122.088858 -330.513498 
L 125.675635 -330.513498 
L 129.262412 -330.513498 
L 132.849189 -330.513498 
L 136.435966 -330.513498 
L 140.022743 -330.513498 
L 143.60952 -330.513498 
L 147.196296 -330.513498 
L 150.783073 -330.513498 
L 154.36985 -330.510838 
L 157.956627 -330.507213 
L 161.543404 -330.507531 
L 165.130181 -330.505425 
L 168.716958 -330.496488 
L 172.303735 -330.497355 
L 175.890511 -330.491464 
L 179.477288 -330.492508 
L 183.064065 -330.491177 
L 186.650842 -330.482564 
L 190.237619 -330.47245 
L 193.824396 -330.463415 
L 197.411173 -330.447945 
L 200.997949 -330.426834 
L 204.584726 -330.394356 
L 208.171503 -330.369303 
L 211.75828 -330.34125 
L 215.345057 -330.310467 
L 218.931834 -330.267 
L 222.518611 -330.227989 
L 226.105387 -330.172809 
L 229.692164 -330.157481 
L 233.278941 -330.012111 
L 236.865718 -329.91673 
L 240.452495 -329.813769 
L 244.039272 -329.782484 
L 247.626049 -329.758484 
L 251.212825 -329.810359 
L 254.799602 -329.692751 
L 258.386379 -329.287502 
L 261.973156 -328.837123 
L 265.559933 -328.5414 
L 269.14671 -328.079052 
L 272.733487 -327.726517 
L 276.320263 -327.425158 
L 279.90704 -327.290214 
L 283.493817 -326.686499 
L 287.080594 -328.996331 
L 290.667371 -329.025151 
L 294.254148 -328.775634 
L 297.840925 -328.780918 
L 301.427701 -328.754835 
L 305.014478 -328.700331 
L 308.601255 -328.477837 
L 312.188032 -328.33479 
L 315.774809 -328.059888 
L 319.361586 -327.997545 
L 322.948363 -327.598843 
L 326.535139 -327.246624 
L 330.121916 -327.028178 
L 333.708693 -327.009612 
L 337.29547 -326.893296 
L 340.882247 -326.498278 
L 344.469024 -326.245278 
L 348.055801 -326.008472 
L 351.642577 -325.495696 
L 355.229354 -325.183201 
L 358.816131 -325.144138 
L 362.402908 -325.043737 
L 365.989685 -324.911509 
L 369.576462 -324.88107 
L 373.163239 -324.856641 
L 376.750015 -324.788559 
L 380.336792 -324.681556 
L 383.923569 -324.407022 
L 387.510346 -324.397243 
L 391.097123 -324.196066 
L 394.6839 -324.187038 
L 398.270677 -323.908738 
L 401.857454 -323.669335 
L 405.44423 -323.04274 
L 409.031007 -322.524878 
L 412.617784 -321.231909 
L 416.204561 -320.113412 
L 419.791338 -315.986745 
L 423.378115 -311.770124 
L 426.964892 -309.18146 
L 430.551668 -303.514744 
L 434.138445 -293.383458 
L 437.725222 -276.405019 
L 441.311999 -250.660651 
L 444.898776 -216.338334 
L 448.485553 -181.302948 
L 452.07233 -83.530721 
L 452.07233 -83.530721 
L 452.07233 -83.530721 
L 448.485553 -255.890099 
L 444.898776 -295.800344 
L 441.311999 -305.649965 
L 437.725222 -312.097434 
L 434.138445 -313.647447 
L 430.551668 -315.267051 
L 426.964892 -319.122075 
L 423.378115 -321.754933 
L 419.791338 -322.917196 
L 416.204561 -323.587848 
L 412.617784 -324.185162 
L 409.031007 -324.838453 
L 405.44423 -325.900326 
L 401.857454 -326.816623 
L 398.270677 -327.483481 
L 394.6839 -328.277787 
L 391.097123 -328.852735 
L 387.510346 -329.017884 
L 383.923569 -329.207457 
L 380.336792 -329.392782 
L 376.750015 -329.543531 
L 373.163239 -329.630438 
L 369.576462 -329.684514 
L 365.989685 -329.720867 
L 362.402908 -329.810883 
L 358.816131 -329.837977 
L 355.229354 -329.87707 
L 351.642577 -329.909289 
L 348.055801 -329.924203 
L 344.469024 -329.937292 
L 340.882247 -329.957185 
L 337.29547 -329.983828 
L 333.708693 -329.996216 
L 330.121916 -330.011405 
L 326.535139 -330.03573 
L 322.948363 -330.059473 
L 319.361586 -330.093444 
L 315.774809 -330.099994 
L 312.188032 -330.087374 
L 308.601255 -330.094168 
L 305.014478 -330.18718 
L 301.427701 -330.219083 
L 297.840925 -330.251454 
L 294.254148 -330.265645 
L 290.667371 -330.265579 
L 287.080594 -330.273238 
L 283.493817 -330.50887 
L 279.90704 -330.509043 
L 276.320263 -330.509112 
L 272.733487 -330.509191 
L 269.14671 -330.509414 
L 265.559933 -330.509699 
L 261.973156 -330.510003 
L 258.386379 -330.510651 
L 254.799602 -330.512474 
L 251.212825 -330.512615 
L 247.626049 -330.5133 
L 244.039272 -330.513297 
L 240.452495 -330.513307 
L 236.865718 -330.513344 
L 233.278941 -330.51334 
L 229.692164 -330.513412 
L 226.105387 -330.513407 
L 222.518611 -330.513516 
L 218.931834 -330.513515 
L 215.345057 -330.513599 
L 211.75828 -330.513595 
L 208.171503 -330.513593 
L 204.584726 -330.513592 
L 200.997949 -330.513588 
L 197.411173 -330.513583 
L 193.824396 -330.513583 
L 190.237619 -330.513578 
L 186.650842 -330.513572 
L 183.064065 -330.513568 
L 179.477288 -330.513567 
L 175.890511 -330.513567 
L 172.303735 -330.51357 
L 168.716958 -330.51357 
L 165.130181 -330.513645 
L 161.543404 -330.513634 
L 157.956627 -330.513635 
L 154.36985 -330.513664 
L 150.783073 -330.513498 
L 147.196296 -330.513498 
L 143.60952 -330.513498 
L 140.022743 -330.513498 
L 136.435966 -330.513498 
L 132.849189 -330.513498 
L 129.262412 -330.513498 
L 125.675635 -330.513498 
L 122.088858 -330.513498 
L 118.502082 -330.513498 
L 114.915305 -330.513498 
L 111.328528 -330.513498 
L 107.741751 -330.513498 
L 104.154974 -330.513498 
L 100.568197 -330.513498 
L 96.98142 -330.513498 
z
" style="stroke: #66c2a5; stroke-opacity: 0.3"/>
    </defs>
    <g clip-path="url(#p91b624974c)">
     <use xlink:href="#m61664996db" x="0" y="350.31375" style="fill: #66c2a5; fill-opacity: 0.3; stroke: #66c2a5; stroke-opacity: 0.3"/>
    </g>
   </g>
   <g id="PolyCollection_2"/>
   <g id="PolyCollection_3">
    <defs>
     <path id="m016efba42a" d="M 96.98142 -330.513498 
L 96.98142 -330.513498 
L 100.568197 -330.513498 
L 104.154974 -330.513498 
L 107.741751 -330.513498 
L 111.328528 -330.513498 
L 114.915305 -330.509899 
L 118.502082 -330.486975 
L 122.088858 -330.418183 
L 125.675635 -330.383752 
L 129.262412 -330.393678 
L 132.849189 -330.360148 
L 136.435966 -330.292949 
L 140.022743 -330.255478 
L 143.60952 -330.274983 
L 147.196296 -330.239246 
L 150.783073 -330.231411 
L 154.36985 -330.147084 
L 157.956627 -330.037645 
L 161.543404 -329.916821 
L 165.130181 -329.928615 
L 168.716958 -329.797487 
L 172.303735 -329.769161 
L 175.890511 -329.09539 
L 179.477288 -329.282507 
L 183.064065 -329.123482 
L 186.650842 -328.526662 
L 190.237619 -328.349413 
L 193.824396 -328.346607 
L 197.411173 -328.648901 
L 200.997949 -328.690305 
L 204.584726 -328.641258 
L 208.171503 -327.492204 
L 211.75828 -326.807803 
L 215.345057 -326.374447 
L 218.931834 -325.967776 
L 222.518611 -322.92667 
L 226.105387 -323.154032 
L 229.692164 -323.073212 
L 233.278941 -322.808209 
L 236.865718 -321.397192 
L 240.452495 -321.144528 
L 244.039272 -320.072674 
L 247.626049 -317.72282 
L 251.212825 -315.319514 
L 254.799602 -314.238129 
L 258.386379 -312.059917 
L 261.973156 -310.801889 
L 265.559933 -307.687081 
L 269.14671 -305.969162 
L 272.733487 -305.298766 
L 276.320263 -303.102903 
L 279.90704 -301.075357 
L 283.493817 -301.288068 
L 287.080594 -298.595938 
L 290.667371 -297.533123 
L 294.254148 -295.27564 
L 297.840925 -294.067883 
L 301.427701 -292.809522 
L 305.014478 -292.26032 
L 308.601255 -291.993292 
L 312.188032 -290.314704 
L 315.774809 -289.881135 
L 319.361586 -287.842429 
L 322.948363 -286.567606 
L 326.535139 -280.265063 
L 330.121916 -279.886667 
L 333.708693 -275.458038 
L 337.29547 -273.433188 
L 340.882247 -269.79695 
L 344.469024 -263.603074 
L 348.055801 -254.90064 
L 351.642577 -248.563455 
L 355.229354 -244.916951 
L 358.816131 -237.386392 
L 362.402908 -233.770557 
L 365.989685 -232.992893 
L 369.576462 -226.27063 
L 373.163239 -220.639229 
L 376.750015 -213.886364 
L 380.336792 -202.98388 
L 383.923569 -194.843939 
L 387.510346 -185.839593 
L 391.097123 -174.575336 
L 394.6839 -164.395983 
L 398.270677 -155.330639 
L 401.857454 -148.79135 
L 405.44423 -143.555695 
L 409.031007 -135.868396 
L 412.617784 -131.153959 
L 416.204561 -123.625457 
L 419.791338 -120.141569 
L 423.378115 -114.226638 
L 426.964892 -108.339701 
L 430.551668 -104.554278 
L 434.138445 -102.794494 
L 437.725222 -98.363344 
L 441.311999 -94.294128 
L 444.898776 -90.510043 
L 448.485553 -86.486459 
L 452.07233 -83.530721 
L 452.07233 -83.530721 
L 452.07233 -83.530721 
L 448.485553 -95.449669 
L 444.898776 -108.071917 
L 441.311999 -121.632461 
L 437.725222 -134.056595 
L 434.138445 -144.840778 
L 430.551668 -159.091812 
L 426.964892 -172.490083 
L 423.378115 -181.372559 
L 419.791338 -190.454261 
L 416.204561 -200.169615 
L 412.617784 -210.314696 
L 409.031007 -221.167314 
L 405.44423 -234.661268 
L 401.857454 -242.530215 
L 398.270677 -250.998404 
L 394.6839 -260.753127 
L 391.097123 -266.69903 
L 387.510346 -269.005632 
L 383.923569 -275.689233 
L 380.336792 -282.251209 
L 376.750015 -286.573889 
L 373.163239 -289.222962 
L 369.576462 -291.712833 
L 365.989685 -292.648864 
L 362.402908 -298.496381 
L 358.816131 -300.968028 
L 355.229354 -302.722371 
L 351.642577 -302.998511 
L 348.055801 -304.510346 
L 344.469024 -307.270462 
L 340.882247 -309.82076 
L 337.29547 -312.355021 
L 333.708693 -314.512314 
L 330.121916 -316.090357 
L 326.535139 -319.203347 
L 322.948363 -320.28796 
L 319.361586 -321.939932 
L 315.774809 -322.908136 
L 312.188032 -323.419389 
L 308.601255 -323.567522 
L 305.014478 -324.109246 
L 301.427701 -324.478167 
L 297.840925 -325.456743 
L 294.254148 -325.971472 
L 290.667371 -326.504016 
L 287.080594 -326.73347 
L 283.493817 -326.933401 
L 279.90704 -327.5197 
L 276.320263 -327.971901 
L 272.733487 -328.168552 
L 269.14671 -328.261648 
L 265.559933 -328.517307 
L 261.973156 -328.869865 
L 258.386379 -328.959902 
L 254.799602 -329.073057 
L 251.212825 -329.267246 
L 247.626049 -329.380181 
L 244.039272 -329.374508 
L 240.452495 -329.431953 
L 236.865718 -329.719965 
L 233.278941 -329.806089 
L 229.692164 -329.83026 
L 226.105387 -329.826118 
L 222.518611 -329.848161 
L 218.931834 -330.077563 
L 215.345057 -330.199782 
L 211.75828 -330.327345 
L 208.171503 -330.381015 
L 204.584726 -330.387224 
L 200.997949 -330.431224 
L 197.411173 -330.439497 
L 193.824396 -330.468027 
L 190.237619 -330.477126 
L 186.650842 -330.489697 
L 183.064065 -330.493074 
L 179.477288 -330.493438 
L 175.890511 -330.510184 
L 172.303735 -330.511184 
L 168.716958 -330.511155 
L 165.130181 -330.511466 
L 161.543404 -330.511427 
L 157.956627 -330.511473 
L 154.36985 -330.511757 
L 150.783073 -330.511886 
L 147.196296 -330.511855 
L 143.60952 -330.512107 
L 140.022743 -330.512044 
L 136.435966 -330.512167 
L 132.849189 -330.513297 
L 129.262412 -330.513317 
L 125.675635 -330.513308 
L 122.088858 -330.513324 
L 118.502082 -330.513671 
L 114.915305 -330.513674 
L 111.328528 -330.513498 
L 107.741751 -330.513498 
L 104.154974 -330.513498 
L 100.568197 -330.513498 
L 96.98142 -330.513498 
z
" style="stroke: #a6d854; stroke-opacity: 0.3"/>
    </defs>
    <g clip-path="url(#p91b624974c)">
     <use xlink:href="#m016efba42a" x="0" y="350.31375" style="fill: #a6d854; fill-opacity: 0.3; stroke: #a6d854; stroke-opacity: 0.3"/>
    </g>
   </g>
   <g id="PolyCollection_4"/>
   <g id="line2d_1">
    <path d="M 96.98142 19.800252 
L 100.568197 19.800252 
L 104.154974 19.800252 
L 107.741751 19.800252 
L 111.328528 19.800252 
L 114.915305 19.800252 
L 118.502082 19.800252 
L 122.088858 19.800252 
L 125.675635 19.800252 
L 129.262412 19.800252 
L 132.849189 19.800252 
L 136.435966 19.800252 
L 140.022743 19.800252 
L 143.60952 19.800252 
L 147.196296 19.800252 
L 150.783073 19.800252 
L 154.36985 19.8005 
L 157.956627 19.800866 
L 161.543404 19.80085 
L 165.130181 19.800937 
L 168.716958 19.801762 
L 172.303735 19.801719 
L 175.890511 19.802017 
L 179.477288 19.801973 
L 183.064065 19.802026 
L 186.650842 19.802359 
L 190.237619 19.802663 
L 193.824396 19.802897 
L 197.411173 19.803315 
L 200.997949 19.803757 
L 204.584726 19.80435 
L 208.171503 19.804763 
L 211.75828 19.805175 
L 215.345057 19.80555 
L 218.931834 19.807613 
L 222.518611 19.808175 
L 226.105387 19.810819 
L 229.692164 19.810977 
L 233.278941 19.81435 
L 236.865718 19.815593 
L 240.452495 19.817634 
L 244.039272 19.818231 
L 247.626049 19.818459 
L 251.212825 19.828297 
L 254.799602 19.832416 
L 258.386379 19.861785 
L 261.973156 19.879506 
L 265.559933 19.889709 
L 269.14671 19.903206 
L 272.733487 19.913298 
L 276.320263 19.920374 
L 279.90704 19.923912 
L 283.493817 19.937638 
L 287.080594 20.404779 
L 290.667371 20.408436 
L 294.254148 20.457566 
L 297.840925 20.475046 
L 301.427701 20.520807 
L 305.014478 20.570473 
L 308.601255 20.725366 
L 312.188032 20.765179 
L 315.774809 20.809336 
L 319.361586 20.830192 
L 322.948363 20.953185 
L 326.535139 21.052816 
L 330.121916 21.126793 
L 333.708693 21.150249 
L 337.29547 21.18895 
L 340.882247 21.299692 
L 344.469024 21.374004 
L 348.055801 21.435753 
L 351.642577 21.549105 
L 355.229354 21.650705 
L 358.816131 21.71347 
L 362.402908 21.769676 
L 365.989685 21.91684 
L 369.576462 21.970522 
L 373.163239 22.044715 
L 376.750015 22.166249 
L 380.336792 22.366373 
L 383.923569 22.634442 
L 387.510346 22.834348 
L 391.097123 23.049219 
L 394.6839 23.569063 
L 398.270677 24.280036 
L 401.857454 24.835279 
L 405.44423 25.674946 
L 409.031007 26.53615 
L 412.617784 27.468689 
L 416.204561 28.29329 
L 419.791338 30.329312 
L 423.378115 32.663526 
L 426.964892 35.440035 
L 430.551668 40.162471 
L 434.138445 45.045554 
L 437.725222 52.06293 
L 441.311999 66.142657 
L 444.898776 87.021312 
L 448.485553 130.344426 
L 452.07233 266.783029 
" clip-path="url(#p91b624974c)" style="fill: none; stroke: #66c2a5; stroke-width: 1.75; stroke-linecap: round"/>
   </g>
   <g id="line2d_2">
    <path d="M 96.98142 19.800252 
L 100.568197 19.800252 
L 104.154974 20.027196 
L 107.741751 19.96163 
L 111.328528 20.060739 
L 114.915305 20.002657 
L 118.502082 20.044237 
L 122.088858 20.007401 
L 125.675635 20.154253 
L 129.262412 20.30045 
L 132.849189 20.252741 
L 136.435966 20.210229 
L 140.022743 20.740176 
L 143.60952 20.990662 
L 147.196296 20.963482 
L 150.783073 21.068457 
L 154.36985 21.29687 
L 157.956627 21.584403 
L 161.543404 21.882953 
L 165.130181 21.85456 
L 168.716958 21.816729 
L 172.303735 21.730959 
L 175.890511 21.914361 
L 179.477288 21.9259 
L 183.064065 21.85344 
L 186.650842 22.366357 
L 190.237619 22.510419 
L 193.824396 23.740039 
L 197.411173 24.3829 
L 200.997949 24.588098 
L 204.584726 24.428196 
L 208.171503 25.516249 
L 211.75828 26.572572 
L 215.345057 27.130886 
L 218.931834 27.827516 
L 222.518611 28.527651 
L 226.105387 28.89897 
L 229.692164 28.826729 
L 233.278941 29.430736 
L 236.865718 31.415392 
L 240.452495 33.590904 
L 244.039272 35.755626 
L 247.626049 36.473598 
L 251.212825 36.686263 
L 254.799602 36.328072 
L 258.386379 37.556467 
L 261.973156 40.418681 
L 265.559933 42.546544 
L 269.14671 45.298588 
L 272.733487 47.427655 
L 276.320263 49.450292 
L 279.90704 57.187436 
L 283.493817 58.739505 
L 287.080594 62.993594 
L 290.667371 65.358818 
L 294.254148 67.797614 
L 297.840925 69.765375 
L 301.427701 73.159271 
L 305.014478 78.923098 
L 308.601255 81.57476 
L 312.188032 84.655086 
L 315.774809 85.343781 
L 319.361586 96.766491 
L 322.948363 98.6945 
L 326.535139 98.379507 
L 330.121916 98.701251 
L 333.708693 102.859138 
L 337.29547 106.159921 
L 340.882247 109.980056 
L 344.469024 114.911718 
L 348.055801 122.102723 
L 351.642577 130.089745 
L 355.229354 140.183806 
L 358.816131 148.72797 
L 362.402908 156.416018 
L 365.989685 164.501506 
L 369.576462 175.252415 
L 373.163239 183.061742 
L 376.750015 187.96659 
L 380.336792 191.931598 
L 383.923569 202.796457 
L 387.510346 210.467521 
L 391.097123 215.186602 
L 394.6839 214.65232 
L 398.270677 216.816731 
L 401.857454 221.966546 
L 405.44423 228.604806 
L 409.031007 234.756526 
L 412.617784 239.313318 
L 416.204561 243.214769 
L 419.791338 247.518047 
L 423.378115 252.006722 
L 426.964892 254.822328 
L 430.551668 257.094687 
L 434.138445 258.009201 
L 437.725222 260.594637 
L 441.311999 262.820691 
L 444.898776 264.417724 
L 448.485553 265.458256 
L 452.07233 266.783029 
" clip-path="url(#p91b624974c)" style="fill: none; stroke: #fc8d62; stroke-width: 1.75; stroke-linecap: round"/>
   </g>
   <g id="line2d_3">
    <path d="M 96.98142 19.800252 
L 100.568197 19.800252 
L 104.154974 19.800252 
L 107.741751 19.800252 
L 111.328528 19.800252 
L 114.915305 19.800541 
L 118.502082 19.801458 
L 122.088858 19.80638 
L 125.675635 19.80758 
L 129.262412 19.80721 
L 132.849189 19.808346 
L 136.435966 19.818704 
L 140.022743 19.821002 
L 143.60952 19.819814 
L 147.196296 19.82282 
L 150.783073 19.822949 
L 154.36985 19.827048 
L 157.956627 19.83295 
L 161.543404 19.837279 
L 165.130181 19.836598 
L 168.716958 19.843165 
L 172.303735 19.843766 
L 175.890511 19.8713 
L 179.477288 19.958435 
L 183.064065 19.969908 
L 186.650842 20.019307 
L 190.237619 20.082465 
L 193.824396 20.115779 
L 197.411173 20.173004 
L 200.997949 20.188793 
L 204.584726 20.287739 
L 208.171503 20.435689 
L 211.75828 20.634862 
L 215.345057 20.944974 
L 218.931834 21.214278 
L 222.518611 22.064295 
L 226.105387 22.065771 
L 229.692164 22.071608 
L 233.278941 22.152851 
L 236.865718 22.51487 
L 240.452495 23.010099 
L 244.039272 23.281855 
L 247.626049 23.657152 
L 251.212825 24.221599 
L 254.799602 24.722995 
L 258.386379 25.258755 
L 261.973156 25.611323 
L 265.559933 26.712201 
L 269.14671 27.423123 
L 272.733487 27.689129 
L 276.320263 28.384043 
L 279.90704 29.464377 
L 283.493817 30.301096 
L 287.080594 31.111576 
L 290.667371 31.649815 
L 294.254148 32.852785 
L 297.840925 33.804363 
L 301.427701 35.337259 
L 305.014478 35.91459 
L 308.601255 36.619487 
L 312.188032 37.195522 
L 315.774809 37.891939 
L 319.361586 39.484958 
L 322.948363 41.561732 
L 326.535139 44.401018 
L 330.121916 47.509783 
L 333.708693 50.295568 
L 337.29547 52.821722 
L 340.882247 56.141283 
L 344.469024 60.329298 
L 348.055801 65.595922 
L 351.642577 69.07146 
L 355.229354 70.603837 
L 358.816131 74.774713 
L 362.402908 78.12524 
L 365.989685 82.90989 
L 369.576462 86.277509 
L 373.163239 90.403503 
L 376.750015 95.150018 
L 380.336792 102.97333 
L 383.923569 111.234297 
L 387.510346 119.968781 
L 391.097123 127.13378 
L 394.6839 136.351035 
L 398.270677 147.376462 
L 401.857454 156.084186 
L 405.44423 163.568415 
L 409.031007 175.354241 
L 412.617784 183.640381 
L 416.204561 193.458299 
L 419.791338 200.098627 
L 423.378115 208.2172 
L 426.964892 216.283234 
L 430.551668 224.221442 
L 434.138445 230.64954 
L 437.725222 237.891407 
L 441.311999 245.317222 
L 444.898776 252.810216 
L 448.485553 260.139424 
L 452.07233 266.783029 
" clip-path="url(#p91b624974c)" style="fill: none; stroke: #a6d854; stroke-width: 1.75; stroke-linecap: round"/>
   </g>
   <g id="line2d_4">
    <path d="M 96.98142 19.800252 
L 100.568197 19.800252 
L 104.154974 19.800252 
L 107.741751 19.800252 
L 111.328528 19.800252 
L 114.915305 19.800252 
L 118.502082 19.800252 
L 122.088858 19.800252 
L 125.675635 19.800252 
L 129.262412 19.800252 
L 132.849189 19.800252 
L 136.435966 19.800252 
L 140.022743 19.800252 
L 143.60952 19.800252 
L 147.196296 19.800252 
L 150.783073 19.800252 
L 154.36985 19.800252 
L 157.956627 19.800252 
L 161.543404 19.800252 
L 165.130181 19.800252 
L 168.716958 19.800252 
L 172.303735 19.800252 
L 175.890511 19.800252 
L 179.477288 19.805353 
L 183.064065 19.80513 
L 186.650842 19.814774 
L 190.237619 19.814205 
L 193.824396 19.822797 
L 197.411173 19.826379 
L 200.997949 19.825535 
L 204.584726 19.824687 
L 208.171503 19.83976 
L 211.75828 19.842364 
L 215.345057 19.844836 
L 218.931834 19.843492 
L 222.518611 19.84579 
L 226.105387 19.858168 
L 229.692164 19.860847 
L 233.278941 19.859258 
L 236.865718 19.880669 
L 240.452495 19.892686 
L 244.039272 19.909772 
L 247.626049 19.924731 
L 251.212825 19.944372 
L 254.799602 19.962311 
L 258.386379 19.958751 
L 261.973156 19.97116 
L 265.559933 20.020877 
L 269.14671 20.05066 
L 272.733487 20.087654 
L 276.320263 20.106715 
L 279.90704 20.138802 
L 283.493817 20.161774 
L 287.080594 20.245279 
L 290.667371 20.299141 
L 294.254148 20.454112 
L 297.840925 20.531072 
L 301.427701 20.607515 
L 305.014478 20.891343 
L 308.601255 21.123792 
L 312.188032 21.532027 
L 315.774809 22.147652 
L 319.361586 22.770541 
L 322.948363 22.829044 
L 326.535139 22.854297 
L 330.121916 24.936521 
L 333.708693 26.47457 
L 337.29547 28.213201 
L 340.882247 31.382495 
L 344.469024 34.09421 
L 348.055801 35.684083 
L 351.642577 40.045414 
L 355.229354 49.046975 
L 358.816131 51.985801 
L 362.402908 58.777259 
L 365.989685 64.205166 
L 369.576462 75.513241 
L 373.163239 81.80268 
L 376.750015 94.050081 
L 380.336792 101.007693 
L 383.923569 122.357483 
L 387.510346 135.583718 
L 391.097123 155.545781 
L 394.6839 174.111309 
L 398.270677 192.387923 
L 401.857454 208.324507 
L 405.44423 224.199504 
L 409.031007 235.882585 
L 412.617784 239.692225 
L 416.204561 246.024724 
L 419.791338 251.250085 
L 423.378115 254.029862 
L 426.964892 256.106927 
L 430.551668 258.68053 
L 434.138445 260.839302 
L 437.725222 262.551789 
L 441.311999 263.556871 
L 444.898776 264.567168 
L 448.485553 265.642237 
L 452.07233 266.783029 
" clip-path="url(#p91b624974c)" style="fill: none; stroke: #e78ac3; stroke-width: 1.75; stroke-linecap: round"/>
   </g>
   <g id="patch_3">
    <path d="M 79.226875 284.4 
L 79.226875 7.2 
" style="fill: none; stroke: #262626; stroke-width: 0.8; stroke-linejoin: miter; stroke-linecap: square"/>
   </g>
   <g id="patch_4">
    <path d="M 79.226875 284.4 
L 469.826875 284.4 
" style="fill: none; stroke: #262626; stroke-width: 0.8; stroke-linejoin: miter; stroke-linecap: square"/>
   </g>
  </g>
 </g>
 <defs>
  <clipPath id="p91b624974c">
   <rect x="79.226875" y="7.2" width="390.6" height="277.2"/>
  </clipPath>
 </defs>
</svg>
